<svg xmlns="http://www.w3.org/2000/svg" viewBox="0 0 28 28"><defs><style>.cls-1{fill:#fff;}</style></defs><title>Dashboard</title><g id="Dashboard"><rect class="cls-1" x="6" y="8" width="6" height="1"/><rect class="cls-1" x="6" y="11" width="6" height="1"/><rect class="cls-1" x="6" y="14" width="5" height="1"/><path class="cls-1" d="M23,11H18V6h.5A4.51,4.51,0,0,1,23,10.5Zm-4-1h3a3.45,3.45,0,0,0-3-3Z"/><path class="cls-1" d="M17.68,16.3A4.68,4.68,0,1,1,18.52,7l.2,0-.44,2-.11,0a2.63,2.63,0,0,0-.49,0,2.68,2.68,0,1,0,2.68,2.68,2.63,2.63,0,0,0,0-.49,2.75,2.75,0,0,0-.11-.41L22.09,10a4.48,4.48,0,0,1,.2.74,4.61,4.61,0,0,1,.07.84A4.69,4.69,0,0,1,17.68,16.3Z"/><path class="cls-1" d="M24.44,20H3.56A1.56,1.56,0,0,1,2,18.44V4.56A1.56,1.56,0,0,1,3.56,3H24.44A1.56,1.56,0,0,1,26,4.56V18.44A1.56,1.56,0,0,1,24.44,20ZM4,18H24V5H4Z"/><path class="cls-1" d="M19,25H9a1,1,0,0,1,0-2H19a1,1,0,0,1,0,2Z"/><path class="cls-1" d="M14,24a1,1,0,0,1-1-1V19a1,1,0,0,1,2,0v4A1,1,0,0,1,14,24Z"/></g></svg>