<svg xmlns="http://www.w3.org/2000/svg" viewBox="0 0 28 28"><defs><style>.cls-1{fill:#fff;}</style></defs><title>Report</title><g id="Report"><path class="cls-1" d="M21.77,26H6.23A1.23,1.23,0,0,1,5,24.77V6.23A1.23,1.23,0,0,1,6.23,5H10V7H7V24H21V7H18V5h3.77A1.23,1.23,0,0,1,23,6.23V24.77A1.23,1.23,0,0,1,21.77,26Z"/><path class="cls-1" d="M19,9H9V4h2.17a3,3,0,0,1,5.66,0H19ZM11,7h6V6H15V5a1,1,0,0,0-2,0V6H11Z"/><rect class="cls-1" x="9" y="12" width="10" height="1"/><rect class="cls-1" x="9" y="16" width="10" height="1"/><rect class="cls-1" x="9" y="20" width="10" height="1"/></g></svg>