<svg xmlns="http://www.w3.org/2000/svg" viewBox="0 0 28 28"><defs><style>.cls-1{fill:#f78b1e;}.cls-2{fill:#5b5650;}</style></defs><title>Communication view</title><g id="Communication_view" data-name="Communication view"><path class="cls-1" d="M4,25.91V21H3a2,2,0,0,1-2-2V8A2,2,0,0,1,3,6H6V8H3V19H6v3.09L10.44,19H19V17h2v2a2,2,0,0,1-2,2H11.06Z"/><path class="cls-2" d="M17,16c-5.44,0-9.65-6.18-9.83-6.44L6.8,9l.37-.56C7.35,8.18,11.56,2,17,2s9.65,6.18,9.83,6.44L27.2,9l-.37.56C26.65,9.82,22.44,16,17,16ZM9.24,9c1.09,1.41,4.23,5,7.76,5s6.67-3.59,7.76-5C23.67,7.59,20.53,4,17,4S10.33,7.59,9.24,9Z"/><path class="cls-2" d="M17,11.5A2.5,2.5,0,1,1,19.5,9,2.5,2.5,0,0,1,17,11.5Zm0-4A1.5,1.5,0,1,0,18.5,9,1.5,1.5,0,0,0,17,7.5Z"/></g></svg>