<svg xmlns="http://www.w3.org/2000/svg" viewBox="0 0 32 32"><defs><style>.cls-1{fill:#fff;}</style></defs><g id="icons_copy" data-name="icons copy"><polygon class="cls-1" points="22.25 30 23.75 30 24 30 24 25 29 25 29 24.75 29 23.25 29 23 24 23 24 18 23.75 18 22.25 18 22 18 22 23 17 23 17 23.25 17 24.75 17 25 22 25 22 30 22.25 30"/><path class="cls-1" d="M12.43,24.06a3.65,3.65,0,1,0-3.64-3.64A3.65,3.65,0,0,0,12.43,24.06Zm0-5.29a1.65,1.65,0,1,1-1.64,1.65A1.65,1.65,0,0,1,12.43,18.77Z"/><path class="cls-1" d="M17,30V28a3,3,0,0,0-3-3H11a3,3,0,0,0-3,3v2h2V28a1,1,0,0,1,1-1h3a1,1,0,0,1,1,1v2Z"/><path class="cls-1" d="M19.5,9.85A4.5,4.5,0,1,0,15,5.35,4.51,4.51,0,0,0,19.5,9.85Zm0-7A2.5,2.5,0,1,1,17,5.35,2.5,2.5,0,0,1,19.5,2.85Z"/><path class="cls-1" d="M4,7.57A4.28,4.28,0,1,0,8.28,3.29,4.28,4.28,0,0,0,4,7.57Zm6.56,0A2.28,2.28,0,1,1,8.28,5.29,2.28,2.28,0,0,1,10.56,7.57Z"/><path class="cls-1" d="M3,23H4v7H6V23H7V21H4V15a1,1,0,0,1,1-1h7a1,1,0,0,1,1,1v1h2V13a1,1,0,0,1,1-1h7a1,1,0,0,1,1,1v3h2V13a3,3,0,0,0-3-3H16a3,3,0,0,0-2.88,2.22A3,3,0,0,0,12,12H5a3,3,0,0,0-3,3v7A1,1,0,0,0,3,23Z"/></g></svg>