<svg xmlns="http://www.w3.org/2000/svg" viewBox="0 0 32 32"><defs><style>.cls-1{fill:#fff;}</style></defs><g id="icons_copy" data-name="icons copy"><polygon class="cls-1" points="15.29 24.71 20.52 29.93 29.73 20.73 28.31 19.31 20.52 27.1 16.71 23.29 15.29 24.71"/><path class="cls-1" d="M12,24V22h1a3,3,0,0,0,3-3V18a3,3,0,0,0-3-3H9a1,1,0,0,1-1-1V13a1,1,0,0,1,1-1h4a1,1,0,0,1,1,1h2a3,3,0,0,0-3-3H12V8H10v2H9a3,3,0,0,0-3,3v1a3,3,0,0,0,3,3h4a1,1,0,0,1,1,1v1a1,1,0,0,1-1,1H9a1,1,0,0,1-1-1H6a3,3,0,0,0,3,3h1v2Z"/><path class="cls-1" d="M27,4H5A3,3,0,0,0,2,7V25a3,3,0,0,0,3,3h9V26H5a1,1,0,0,1-1-1V7A1,1,0,0,1,5,6H27a1,1,0,0,1,1,1v9h2V7A3,3,0,0,0,27,4Z"/><rect class="cls-1" x="17" y="9" width="9" height="2"/><rect class="cls-1" x="18" y="14" width="8" height="2"/><rect class="cls-1" x="18" y="19" width="5" height="2"/></g></svg>