<svg xmlns="http://www.w3.org/2000/svg" viewBox="0 0 32 32"><defs><style>.cls-1{fill:#fff;}</style></defs><g id="icons_copy" data-name="icons copy"><path class="cls-1" d="M4,23H19.53l-1.41-2H4V5H28V21H24.66l1.63,2H28a2,2,0,0,0,2-2V5a2,2,0,0,0-2-2H4A2,2,0,0,0,2,5V21A2,2,0,0,0,4,23Z"/><rect class="cls-1" x="7" y="9" width="18" height="2"/><path class="cls-1" d="M7,17h8s-1.26-1.83-1.35-2H7Z"/><polygon class="cls-1" points="23 17 23 15 20.11 15 21.74 17 23 17"/><path class="cls-1" d="M26.36,29.75a1.25,1.25,0,1,0,2-1.5L16.44,13.66a.56.56,0,0,0-.88.68Z"/></g></svg>