<svg xmlns="http://www.w3.org/2000/svg" viewBox="0 0 32 32"><defs><style>.cls-1{fill:#fff;}</style></defs><g id="icons_copy" data-name="icons copy"><path class="cls-1" d="M21,16.37a2,2,0,1,0-2-2A2,2,0,0,0,21,16.37Z"/><path class="cls-1" d="M17.43,21h7.15a.42.42,0,0,0,.42-.43V20c0-1.66-2.67-2.41-4-2.41s-4,.74-4,2.41v.52A.43.43,0,0,0,17.43,21Z"/><path class="cls-1" d="M5,27H27a3,3,0,0,0,3-3V9a3,3,0,0,0-3-3H5A3,3,0,0,0,2,9V24A3,3,0,0,0,5,27ZM4,9A1,1,0,0,1,5,8H27a1,1,0,0,1,1,1V24a1,1,0,0,1-1,1H5a1,1,0,0,1-1-1Z"/><rect class="cls-1" x="7" y="14" width="9" height="2"/><rect class="cls-1" x="7" y="19" width="7" height="2"/></g></svg>