<svg xmlns="http://www.w3.org/2000/svg" viewBox="0 0 32 32"><defs><style>.cls-1{fill:#fff;}</style></defs><g id="icons_copy" data-name="icons copy"><path class="cls-1" d="M23,14.39h0a3.94,3.94,0,1,0,2.8,1.16A3.95,3.95,0,0,0,23,14.39Zm0,5.9A2,2,0,1,1,25,18.34,1.94,1.94,0,0,1,23,20.29Z"/><path class="cls-1" d="M16,28.21v.93a1,1,0,0,0,1,1h0l12,0a1,1,0,0,0,1-1v-.9c0-3.2-4.56-4.53-7-4.53S16,25,16,28.21Zm12-.09H18c.11-1.5,3.31-2.45,5-2.45S27.87,26.63,28,28.12Z"/><path class="cls-1" d="M6,30h7V28H6V6H9V7a1,1,0,0,0,1,1H20a1,1,0,0,0,1-1V6h3v6h2V6a2,2,0,0,0-2-2H21a2,2,0,0,0-2-2H11A2,2,0,0,0,9,4H6A2,2,0,0,0,4,6V28A2,2,0,0,0,6,30ZM11,4h8V6H11Z"/><rect class="cls-1" x="13" y="12" width="6" height="2"/><rect class="cls-1" x="9" y="12" width="2" height="2"/><rect class="cls-1" x="13" y="17" width="4" height="2"/><rect class="cls-1" x="9" y="17" width="2" height="2"/><rect class="cls-1" x="13" y="22" width="3" height="2"/><rect class="cls-1" x="9" y="22" width="2" height="2"/></g></svg>