<svg xmlns="http://www.w3.org/2000/svg" viewBox="0 0 32 32"><defs><style>.cls-1{fill:#fff;}</style></defs><g id="icons_copy" data-name="icons copy"><path class="cls-1" d="M5,19h8V17H5a1,1,0,0,1-1-1V5S4,5,4,5l8.38,5.32a3,3,0,0,0,3.22,0L24,5s0,0,0,0V8h2V5a3,3,0,0,0-3-3H5A3,3,0,0,0,2,5V16A3,3,0,0,0,5,19ZM14.54,8.58a1,1,0,0,1-1.08,0L6.24,4H21.76Z"/><path class="cls-1" d="M4,22v3a3,3,0,0,0,3,3h3v1.81L12.81,27,10,24.19V26H7a1,1,0,0,1-1-1V22Z"/><path class="cls-1" d="M15,13V28a2,2,0,0,0,2,2H28a2,2,0,0,0,2-2V13a2,2,0,0,0-2-2H17A2,2,0,0,0,15,13ZM28,28H17V13H28Z"/><rect class="cls-1" x="19" y="15" width="7" height="2"/><rect class="cls-1" x="19" y="19" width="7" height="2"/><rect class="cls-1" x="19" y="23" width="5" height="2"/></g></svg>