<svg xmlns="http://www.w3.org/2000/svg" viewBox="0 0 32 32"><defs><style>.cls-1{fill:#fff;}</style></defs><g id="icons_copy" data-name="icons copy"><path class="cls-1" d="M5,30H27a3,3,0,0,0,3-3V5a3,3,0,0,0-3-3H5A3,3,0,0,0,2,5V27A3,3,0,0,0,5,30ZM4,5A1,1,0,0,1,5,4H27a1,1,0,0,1,1,1V27a1,1,0,0,1-1,1H5a1,1,0,0,1-1-1Z"/><rect class="cls-1" x="7" y="9" width="7" height="2"/><rect class="cls-1" x="18" y="18" width="7" height="2"/><rect class="cls-1" x="18" y="22" width="7" height="2"/><polygon class="cls-1" points="10 25 12 25 12 22 15 22 15 20 12 20 12 17 10 17 10 20 7 20 7 22 10 22 10 25"/><polygon class="cls-1" points="18.88 13.54 21 11.41 23.12 13.54 24.54 12.12 22.41 10 24.54 7.88 23.12 6.46 21 8.59 18.88 6.46 17.46 7.88 19.59 10 17.46 12.12 18.88 13.54"/></g></svg>