<svg xmlns="http://www.w3.org/2000/svg" viewBox="0 0 32 32"><defs><style>.cls-1{fill:#fff;}</style></defs><g id="icons_copy" data-name="icons copy"><path class="cls-1" d="M29,28H28V25.48a1,1,0,0,0-2,0v1.23A34,34,0,0,1,17,9.65a1,1,0,0,0-2,0,33.87,33.87,0,0,1-9.17,17.2V25.48a1,1,0,0,0-2,0V28H3a1,1,0,0,0,0,2H29a1,1,0,0,0,0-2ZM16,13.71A34.71,34.71,0,0,0,24.43,28H20.22l-1.77-5.32A1,1,0,0,0,17.5,22h-3a1,1,0,0,0-.95.68L11.78,28H7.57A34.71,34.71,0,0,0,16,13.71ZM18.11,28H13.89l1.33-4h1.56Z"/><circle class="cls-1" cx="7.5" cy="8.5" r="2.5"/><polygon class="cls-1" points="7.53 3 6.53 4.63 8.53 4.63 7.53 3"/><polygon class="cls-1" points="4.1 6.46 5.52 5.04 3.66 4.6 4.1 6.46"/><polygon class="cls-1" points="3.69 9.47 3.69 7.47 2.06 8.47 3.69 9.47"/><polygon class="cls-1" points="4.1 10.48 3.66 12.34 5.52 11.9 4.1 10.48"/><polygon class="cls-1" points="6.53 12.31 7.53 13.94 8.53 12.31 6.53 12.31"/><polygon class="cls-1" points="9.54 11.9 11.4 12.34 10.96 10.48 9.54 11.9"/><polygon class="cls-1" points="11.37 9.47 13 8.47 11.37 7.47 11.37 9.47"/><polygon class="cls-1" points="10.96 6.46 11.4 4.6 9.54 5.04 10.96 6.46"/><circle class="cls-1" cx="25" cy="17" r="1"/><path class="cls-1" d="M8.27,15.73a.51.51,0,0,0-.71,0L6.5,16.79,5.44,15.73a.5.5,0,0,0-.71.71L5.79,17.5,4.73,18.56a.51.51,0,0,0,0,.71.5.5,0,0,0,.36.14.49.49,0,0,0,.35-.14L6.5,18.21l1.06,1.06a.49.49,0,0,0,.35.14.5.5,0,0,0,.36-.14.51.51,0,0,0,0-.71L7.21,17.5l1.06-1.06A.51.51,0,0,0,8.27,15.73Z"/><path class="cls-1" d="M21.73,10.27a.5.5,0,0,0,.36.14.49.49,0,0,0,.35-.14L23.5,9.21l1.06,1.06a.49.49,0,0,0,.35.14.5.5,0,0,0,.36-.14.51.51,0,0,0,0-.71L24.21,8.5l1.06-1.06a.5.5,0,0,0-.71-.71L23.5,7.79,22.44,6.73a.5.5,0,0,0-.71.71L22.79,8.5,21.73,9.56A.51.51,0,0,0,21.73,10.27Z"/></g></svg>