<svg xmlns="http://www.w3.org/2000/svg" viewBox="0 0 32 32"><defs><style>.cls-1{fill:#fff;}</style></defs><g id="icons_copy" data-name="icons copy"><path class="cls-1" d="M17,14.18a1,1,0,0,0,.7.3h0a1,1,0,0,0,.71-.29L23.69,9a4,4,0,0,0,1.15-3.37,4.08,4.08,0,0,0-2-3,4,4,0,0,0-4,0,3.93,3.93,0,0,0-1,.84,4.16,4.16,0,0,0-1-.84,4,4,0,0,0-4,0A4,4,0,0,0,11.92,9ZM12.77,5.85a2,2,0,0,1,1-1.52,2,2,0,0,1,1-.26,2,2,0,0,1,2,2,1,1,0,0,0,2,0,2,2,0,0,1,1-1.7,2,2,0,0,1,2,0,2,2,0,0,1,1,1.52,2,2,0,0,1-.58,1.69l-4.51,4.52L13.35,7.54A2,2,0,0,1,12.77,5.85Z"/><path class="cls-1" d="M5,25H3a1,1,0,0,0,0,2H5.29A1.72,1.72,0,0,0,7,25.29V25H8.27l1,.7c1.56,1.18,3.92,3,5.74,3.5a7.23,7.23,0,0,0,1.78.22A7,7,0,0,0,19.26,29c3.1-1,8.91-4.64,9.34-5s1.91-1.44,1.52-3a2.43,2.43,0,0,0-2.85-1.76h-.35l-.12.13c-.77.27-2.34.95-3.68,1.55A3.07,3.07,0,0,0,20,18c-.88,0-1.64,0-2.31.06a9.87,9.87,0,0,1-2.43,0,5.71,5.71,0,0,0-4.07-.51A27.76,27.76,0,0,1,7,17.9v-.19A1.72,1.72,0,0,0,5.29,16H3a1,1,0,0,0,0,2H5Zm6.54-5.5a3.91,3.91,0,0,1,3,.41l.24.07a11.27,11.27,0,0,0,3.05.08A19.74,19.74,0,0,1,20,20a1.1,1.1,0,0,1,1.18,1.05.94.94,0,0,1-.76,1,22.3,22.3,0,0,1-3,0,20.94,20.94,0,0,0-3.35,0,1,1,0,0,0,.16,2h.16a18.67,18.67,0,0,1,3,0,21.31,21.31,0,0,0,3.37-.05,3.13,3.13,0,0,0,.88-.28l.08,0c2-.93,5.2-2.35,5.91-2.57l.17-.05a.4.4,0,0,1,.27.06.42.42,0,0,1,.2.24c0,.11,0,.4-.77.95a57,57,0,0,1-8.84,4.69,5,5,0,0,1-3.07.2c-1.44-.43-3.72-2.14-5.08-3.16C9.21,23.19,9,23,8.51,23H7V19.9A28.42,28.42,0,0,0,11.54,19.5Z"/><circle class="cls-1" cx="10.5" cy="13.5" r="1"/><circle class="cls-1" cx="28.5" cy="4" r="1"/><path class="cls-1" d="M8.27,4.73a.51.51,0,0,0-.71,0L6.5,5.79,5.44,4.73a.5.5,0,0,0-.71.71L5.79,6.5,4.73,7.56a.51.51,0,0,0,0,.71.5.5,0,0,0,.36.14.49.49,0,0,0,.35-.14L6.5,7.21,7.56,8.27a.49.49,0,0,0,.35.14.5.5,0,0,0,.36-.14.51.51,0,0,0,0-.71L7.21,6.5,8.27,5.44A.51.51,0,0,0,8.27,4.73Z"/><path class="cls-1" d="M28.27,11.73a.51.51,0,0,0-.71,0L26.5,12.79l-1.06-1.06a.5.5,0,0,0-.71.71l1.06,1.06-1.06,1.06a.51.51,0,0,0,0,.71.5.5,0,0,0,.36.14.49.49,0,0,0,.35-.14l1.06-1.06,1.06,1.06a.49.49,0,0,0,.35.14.5.5,0,0,0,.36-.14.51.51,0,0,0,0-.71L27.21,13.5l1.06-1.06A.51.51,0,0,0,28.27,11.73Z"/></g></svg>