<svg xmlns="http://www.w3.org/2000/svg" viewBox="0 0 32 32"><defs><style>.cls-1{fill:#fff;}</style></defs><g id="icons_copy" data-name="icons copy"><path class="cls-1" d="M11.15,2.59,4.59,9.15A2,2,0,0,0,4,10.56V28a2,2,0,0,0,2,2h9V28H6V10.56L12.56,4H25V16h2V4a2,2,0,0,0-2-2H12.56A2,2,0,0,0,11.15,2.59Z"/><path class="cls-1" d="M20.09,20.05A2.95,2.95,0,1,0,23,17.1,2.94,2.94,0,0,0,20.09,20.05Z"/><path class="cls-1" d="M29,28.07c0-2.43-4-3.52-6-3.52s-6,1.09-6,3.53V30l12,0Z"/><polygon class="cls-1" points="17 13 21 13 21 11 17 11 17 7 15 7 15 11 11 11 11 13 15 13 15 17 17 17 17 13"/><rect class="cls-1" x="9" y="22" width="7" height="2"/></g></svg>