<svg xmlns="http://www.w3.org/2000/svg" viewBox="0 0 32 32"><defs><style>.cls-1{fill:#fff;}</style></defs><g id="icons_copy" data-name="icons copy"><path class="cls-1" d="M19,27V7a3,3,0,0,0-3-3H6A3,3,0,0,0,3,7V27a3,3,0,0,0,3,3H16A3,3,0,0,0,19,27Zm-2-4H5V11H17ZM6,6H16a1,1,0,0,1,1,1V9H5V7A1,1,0,0,1,6,6ZM5,27V25H17v2a1,1,0,0,1-1,1H6A1,1,0,0,1,5,27Z"/><polygon class="cls-1" points="7 18 10 18 10 21 12 21 12 18 15 18 15 16 12 16 12 13 10 13 10 16 7 16 7 18"/><path class="cls-1" d="M27.14,16.21a9.34,9.34,0,0,0,0-13.2L25.72,4.42a7.35,7.35,0,0,1,0,10.38Z"/><path class="cls-1" d="M22.92,14.25a6.57,6.57,0,0,0,0-9.28L21.51,6.39a4.55,4.55,0,0,1,0,6.44Z"/></g></svg>