<svg xmlns="http://www.w3.org/2000/svg" viewBox="0 0 32 32"><defs><style>.cls-1{fill:#fff;}</style></defs><g id="icons_copy" data-name="icons copy"><path class="cls-1" d="M4,28a2,2,0,0,0,2,2H9V28H6V4H18.64L24,8.47V12h2V8a1,1,0,0,0-.36-.77l-6-5A1,1,0,0,0,19,2H6A2,2,0,0,0,4,4Z"/><polygon class="cls-1" points="28 28 26 28 26 15 24 15 24 28 23 28 23 20 21 20 21 28 18 28 18 19 16 19 16 28 15 28 15 23 13 23 13 28 11 28 11 30 28 30 28 28"/><rect class="cls-1" x="8" y="7" width="10" height="2"/><rect class="cls-1" x="8" y="12" width="13" height="2"/><rect class="cls-1" x="8" y="17" width="5" height="2"/></g></svg>