<svg xmlns="http://www.w3.org/2000/svg" viewBox="0 0 32 32"><defs><style>.cls-1{fill:#fff;}</style></defs><g id="icons_copy" data-name="icons copy"><path class="cls-1" d="M28.58,23.11a1.06,1.06,0,0,0-.24-.39l-7.17-7.17L28,7.74a2,2,0,0,0-2.85-2.68l-7.62,6.81L10.67,5A3,3,0,0,0,6.42,5a3,3,0,0,0,0,4.25L13,15.87l-1.63,1.45a4.2,4.2,0,0,0-4.56,1.16,6.78,6.78,0,0,0-1.1,2.68,6.78,6.78,0,0,1-.52,1.56,2.16,2.16,0,0,1-.92.87c-.26.14-1,.5-1.28.61a1,1,0,0,0-.63,1.72,11.44,11.44,0,0,0,3.84,2.39,8.18,8.18,0,0,0,2.8.51,7.46,7.46,0,0,0,1.77-.22c2.21-.55,4.73-2.13,5.13-4.9a5.61,5.61,0,0,0,.06-.59,5.24,5.24,0,0,0-.15-1.42l1.4-1.61L24.1,27a1.06,1.06,0,0,0,.39.24l4.24,1.41a1.19,1.19,0,0,0,.32.05A1,1,0,0,0,30,27.35ZM7.54,7.16a1,1,0,0,1,1.71-.7L11.2,8.4,9.78,9.82,7.84,7.87A1,1,0,0,1,7.54,7.16Zm3.66,4.07,1.41-1.41L16,13.2l-1.5,1.34Zm2.74,12.18c-.27,1.79-2.13,2.87-3.65,3.25a5.8,5.8,0,0,1-3.4-.23,9.55,9.55,0,0,1-1.88-1l.22-.12A4.14,4.14,0,0,0,7,23.68a8.66,8.66,0,0,0,.71-2,5.08,5.08,0,0,1,.73-1.91,2.37,2.37,0,0,1,2.49-.47,5.11,5.11,0,0,1,1.25.5A3.8,3.8,0,0,1,14,23Zm-.55-5.2,13-11.73L14.91,19.69A5.78,5.78,0,0,0,13.39,18.21Zm12,7.18-6.81-6.82,1.31-1.51L26.76,24l.71,2.12Z"/></g></svg>