<svg xmlns="http://www.w3.org/2000/svg" viewBox="0 0 32 32"><defs><style>.cls-1{fill:#fff;}</style></defs><g id="icons_copy" data-name="icons copy"><path class="cls-1" d="M27.32,5.69c-5.11.17-9.3-.34-14.38-3.4a2.37,2.37,0,0,0-2.36,0A3.35,3.35,0,0,0,8.86,5c0,.36,0,.72-.07,1.07l0,.47c-.07,1-.13,2.1-.18,3.17-.71-.23-1.43-.48-2.2-.8a3.13,3.13,0,0,0-3.06.66,3,3,0,0,0-1.25,2.8L2.36,14A38.44,38.44,0,0,0,5.18,24.63a12,12,0,0,0,1.08,1.83,8.6,8.6,0,0,0,6.64,3.75,6.11,6.11,0,0,0,2.75-.66,12,12,0,0,0,5.13-5.82,14.94,14.94,0,0,0,4.47-4.43,42.94,42.94,0,0,0,3.83-7.79c.22-.52.43-1,.65-1.56a3.33,3.33,0,0,0-.26-3.13A2.47,2.47,0,0,0,27.32,5.69ZM14.75,27.76c-2.46,1.25-5.32-.3-6.86-2.46A10.38,10.38,0,0,1,7,23.76a37.26,37.26,0,0,1-2.65-10L4.05,12a1.11,1.11,0,0,1,.52-.91,1.65,1.65,0,0,1,.92-.39l.13,0c5.65,2.31,9.46,2.36,14.58.21a1.08,1.08,0,0,1,.93.26,1,1,0,0,1,.43.85c-.1.54-.18,1.08-.27,1.63a41,41,0,0,1-1.85,8.11A10.8,10.8,0,0,1,14.75,27.76ZM27.89,9.17l-.66,1.58a41.6,41.6,0,0,1-3.64,7.43,13.66,13.66,0,0,1-1.52,1.89A59.7,59.7,0,0,0,23.27,14c.08-.55.17-1.09.26-1.62a2.92,2.92,0,0,0-1.16-2.75,2.94,2.94,0,0,0-2.94-.53h0a14.07,14.07,0,0,1-8.87,1.09c0-1.18.12-2.38.2-3.54l0-.48c0-.34,0-.68.07-1A1.35,1.35,0,0,1,11.51,4a.37.37,0,0,1,.4,0C17.39,7.3,22.06,7.86,27.37,7.69a.54.54,0,0,1,.44.26A1.3,1.3,0,0,1,27.89,9.17Z"/><path class="cls-1" d="M10.67,17.66A1,1,0,0,0,11.79,16c-2.38-1.61-5.09,0-5.2.05a1,1,0,0,0,.52,1.86,1.06,1.06,0,0,0,.51-.14S9.35,16.77,10.67,17.66Z"/><path class="cls-1" d="M13.91,16.05a1,1,0,0,0,.52,1.86,1.06,1.06,0,0,0,.51-.14s1.73-1,3-.11A1,1,0,0,0,19.11,16C16.73,14.39,14,16,13.91,16.05Z"/><path class="cls-1" d="M15,21.67a3.1,3.1,0,0,1-4.19,0,1,1,0,0,0-1.19,1.62A5.62,5.62,0,0,0,13,24.47a5.3,5.3,0,0,0,3.27-1.22A1,1,0,1,0,15,21.67Z"/></g></svg>