<svg xmlns="http://www.w3.org/2000/svg" viewBox="0 0 32 32"><defs><style>.cls-1{fill:#fff;}</style></defs><g id="icons_copy" data-name="icons copy"><path class="cls-1" d="M6,4H21.59L26,8.41V17h2V8a1,1,0,0,0-.29-.71l-5-5A1,1,0,0,0,22,2H6A2,2,0,0,0,4,4V28a2,2,0,0,0,2,2H17V28H6Z"/><path class="cls-1" d="M28,25.66v-.05l-2.34-6a1.06,1.06,0,0,0-1-.64,1,1,0,0,0-.93.63l-2.38,6s0,0,0,0l-1,2.45a1,1,0,1,0,1.86.74L22.93,27h3.42l.72,1.83a1,1,0,0,0,.93.64.92.92,0,0,0,.36-.07,1,1,0,0,0,.57-1.29ZM23.73,25l.93-2.34L25.57,25Z"/><path class="cls-1" d="M19.39,21.89A6.3,6.3,0,0,1,17.16,21a10.23,10.23,0,0,0,2.05-5H21a1,1,0,0,0,0-2H16.52l-.67-1.68a1,1,0,1,0-1.86.74l.38.94H11a1,1,0,0,0,0,2h1.31a10.11,10.11,0,0,0,2,4.95,6.26,6.26,0,0,1-2.24.94,1,1,0,0,0-.78,1.18,1,1,0,0,0,1,.8l.21,0a8.26,8.26,0,0,0,3.27-1.46A8.09,8.09,0,0,0,19,23.85l.2,0a1,1,0,0,0,.21-2ZM17.17,16a8.48,8.48,0,0,1-1.45,3.56A8.15,8.15,0,0,1,14.33,16Z"/><rect class="cls-1" x="10" y="7" width="10" height="2"/></g></svg>