<svg xmlns="http://www.w3.org/2000/svg" viewBox="0 0 32 32"><defs><style>.cls-1{fill:#fff;}</style></defs><g id="icons_copy" data-name="icons copy"><path class="cls-1" d="M28.81,10.8a2.6,2.6,0,0,0-2.63-.43h0c-4,1.79-6.84,1.74-11.3-.2a2.74,2.74,0,0,0-2.71.52,3,3,0,0,0-1.25,2.77L11.17,15a38.43,38.43,0,0,0,2.47,9.9,11.5,11.5,0,0,0,1,1.71,7.54,7.54,0,0,0,5.93,3.56A5.22,5.22,0,0,0,23,29.57c2.85-1.53,4.36-4.8,5-6.62A42.43,42.43,0,0,0,29.74,15c.07-.51.15-1,.23-1.51A2.87,2.87,0,0,0,28.81,10.8Zm-1,3.91a41,41,0,0,1-1.62,7.57c-.94,2.63-2.42,4.65-4.06,5.53-2.08,1.11-4.5-.3-5.82-2.27a9.46,9.46,0,0,1-.79-1.43,36,36,0,0,1-2.32-9.38l-.25-1.58a1,1,0,0,1,.46-.85A1.25,1.25,0,0,1,14,12h.05c5,2.18,8.37,2.23,12.91.2a.72.72,0,0,1,.6.19.9.9,0,0,1,.39.79C27.91,13.68,27.84,14.19,27.76,14.71Z"/><path class="cls-1" d="M18.25,18.32a1,1,0,0,0,1.35-.44,1,1,0,0,0-.44-1.34,4.58,4.58,0,0,0-4.25.34,1,1,0,0,0-.3,1.37,1,1,0,0,0,.85.47,1,1,0,0,0,.53-.15A2.58,2.58,0,0,1,18.25,18.32Z"/><path class="cls-1" d="M21.73,16.66a1,1,0,0,0,.88,1.8,2.23,2.23,0,0,1,2.28,0,1,1,0,0,0,.59.19,1,1,0,0,0,.81-.42,1,1,0,0,0-.23-1.39A4.2,4.2,0,0,0,21.73,16.66Z"/><path class="cls-1" d="M22.29,22.13a2.44,2.44,0,0,1-3.48,0,1,1,0,1,0-1.23,1.57,4.85,4.85,0,0,0,3,1.17,4.71,4.71,0,0,0,3-1.18,1,1,0,1,0-1.26-1.55Z"/><path class="cls-1" d="M4,4H17.13L20,6.87V10h2V6.46a1,1,0,0,0-.29-.71L18.25,2.29A1,1,0,0,0,17.54,2H3A1,1,0,0,0,2,3V27a1,1,0,0,0,1,1h9V26H4Z"/><rect class="cls-1" x="7" y="6" width="8" height="2"/><rect class="cls-1" x="6" y="11" width="3" height="2"/><rect class="cls-1" x="6" y="15" width="3" height="2"/><rect class="cls-1" x="6" y="19" width="4" height="2"/></g></svg>