<svg xmlns="http://www.w3.org/2000/svg" viewBox="0 0 32 32"><defs><style>.cls-1{fill:#fff;}</style></defs><g id="icons"><path class="cls-1" d="M27,8H20.72a2,2,0,0,0-1.41.58L19,8.89V4a2,2,0,0,0-2-2H10.72a2,2,0,0,0-1.42.6L3.59,8.25l-.09.11A2,2,0,0,0,3,9.67V22a2,2,0,0,0,2,2h8v4a2,2,0,0,0,2,2H27a2,2,0,0,0,2-2V10A2,2,0,0,0,27,8Zm-8,3.7V14H16.69Zm-10-6V8H6.69ZM5,22,4.94,10H9a2,2,0,0,0,2-2V4h6v6.87l-3.41,3.38A2,2,0,0,0,13,15.67V22Zm10,6V16h4a2,2,0,0,0,2-2V10h6V28Z"/><rect class="cls-1" x="7" y="13" width="4" height="2"/><rect class="cls-1" x="7" y="17" width="4" height="2"/><rect class="cls-1" x="17" y="19" width="8" height="2"/><rect class="cls-1" x="17" y="23" width="8" height="2"/></g></svg>