<svg xmlns="http://www.w3.org/2000/svg" viewBox="0 0 32 32"><defs><style>.cls-1{fill:#fff;}</style></defs><g id="icons_copy" data-name="icons copy"><path class="cls-1" d="M14.17,14.47a1.09,1.09,0,1,0,0-2.18H3.09a1.09,1.09,0,1,0,0,2.18h3v3.15L4,22.1H6l-.29,1.83H5A1.47,1.47,0,0,0,3.58,25.2l-.1.62L7.55,26l.35-2h0l.43-1.82H9.48l.43,1.82h0l.35,2,4.07-.15-.09-.62a1.49,1.49,0,0,0-1.46-1.27h-.66l-.29-1.83h1.63l-2.18-4.4V14.47Z"/><path class="cls-1" d="M8.63,11.89A2.46,2.46,0,1,0,6.18,9.43,2.46,2.46,0,0,0,8.63,11.89Z"/><path class="cls-1" d="M28.91,12.29H17.83a1.09,1.09,0,1,0,0,2.18h2.44l-.16,5.11a.71.71,0,0,0,.7.73l-.42,3.62h-.66a1.47,1.47,0,0,0-1.45,1.27l-.1.62,4.07.15.35-2h0l.68-3.61h.38l.68,3.61h0l.35,2,4.07-.15-.09-.62a1.49,1.49,0,0,0-1.46-1.27h-.66l-.42-3.64a.71.71,0,0,0,.58-.71l-.15-5.11h2.35a1.09,1.09,0,0,0,0-2.18Z"/><path class="cls-1" d="M23.37,11.89a2.46,2.46,0,1,0-2.46-2.46A2.46,2.46,0,0,0,23.37,11.89Z"/></g></svg>