<svg xmlns="http://www.w3.org/2000/svg" viewBox="0 0 32 32"><defs><style>.cls-1{fill:#fff;}</style></defs><g id="icons_copy" data-name="icons copy"><circle class="cls-1" cx="24.08" cy="8.51" r="2.5"/><path class="cls-1" d="M30.29,17.5l-2.51-3.67a3.71,3.71,0,0,0-1.45-1.51,16.36,16.36,0,0,0-4-.14c-1.11.24-1.64,1.47-2.25,2.44S17.92,18,18.21,17.55a1.3,1.3,0,0,0,.21,1.63.94.94,0,0,0,.59.23,1,1,0,0,0,.81-.48l1.49-2.41L21.08,22v4.11a1,1,0,1,0,2,0V22h2v4.11a1,1,0,1,0,2,0V22l-.2-5.49L28.73,19a.93.93,0,0,0,.78.44.91.91,0,0,0,.62-.26A1.31,1.31,0,0,0,30.29,17.5Z"/><circle class="cls-1" cx="9.59" cy="6.25" r="2.84"/><path class="cls-1" d="M13.08,25.68V22h2.67l-2.67-4.93V14.71l2.32,3a1.33,1.33,0,0,0,1.88.22A1.38,1.38,0,0,0,17.49,16l-4.28-5.46A1.4,1.4,0,0,0,12.16,10l-5.32,0a1.41,1.41,0,0,0-1.12.57l-4,5.49A1.38,1.38,0,0,0,2,18a1.34,1.34,0,0,0,.79.26,1.31,1.31,0,0,0,1.07-.55l2.21-3v2.39L3.42,22H6.08v3.67a1.5,1.5,0,0,0,1.5,1.5h0a1.5,1.5,0,0,0,1.5-1.5V22h1v3.67a1.5,1.5,0,0,0,1.5,1.5h0A1.5,1.5,0,0,0,13.08,25.68Z"/></g></svg>