<svg xmlns="http://www.w3.org/2000/svg" viewBox="0 0 32 32"><defs><style>.cls-1{fill:#fff;}</style></defs><g id="icons_copy" data-name="icons copy"><path class="cls-1" d="M27,6H5A3,3,0,0,0,2,9V23a3,3,0,0,0,3,3H27a3,3,0,0,0,3-3V9A3,3,0,0,0,27,6Zm1,17a1,1,0,0,1-1,1H5a1,1,0,0,1-1-1V9A1,1,0,0,1,5,8H27a1,1,0,0,1,1,1Z"/><path class="cls-1" d="M16.45,13.43,13.65,13,12.4,10.49a1,1,0,0,0-1.8,0L9.35,13l-2.8.41a1,1,0,0,0-.81.68,1,1,0,0,0,.26,1l2,2L7.54,19.9a1,1,0,0,0,.4,1A1,1,0,0,0,9,21l2.5-1.32L14,21a1.12,1.12,0,0,0,.47.11,1,1,0,0,0,.59-.19,1,1,0,0,0,.4-1L15,17.11l2-2a1,1,0,0,0,.26-1A1,1,0,0,0,16.45,13.43ZM13.2,16.05a1,1,0,0,0-.28.88l.22,1.31L12,17.62a1.06,1.06,0,0,0-.94,0l-1.17.62.22-1.31a1,1,0,0,0-.28-.88l-1-.93,1.32-.19a1,1,0,0,0,.75-.55l.59-1.19.59,1.19a1,1,0,0,0,.75.55l1.32.19Z"/><rect class="cls-1" x="19" y="11" width="7" height="2"/><rect class="cls-1" x="19" y="15" width="7" height="2"/><rect class="cls-1" x="19" y="19" width="7" height="2"/></g></svg>