<svg xmlns="http://www.w3.org/2000/svg" viewBox="0 0 32 32"><defs><style>.cls-1{fill:#fff;}</style></defs><g id="icons_copy" data-name="icons copy"><circle class="cls-1" cx="16.08" cy="6.51" r="2.5"/><path class="cls-1" d="M17.23,16.93a2.47,2.47,0,0,0,.41,3.16,2.14,2.14,0,0,0,1.37.52h.07v3.51a1,1,0,1,1-2,0V20h-2v4.11a1.08,1.08,0,0,1-1,1.16,1.09,1.09,0,0,1-1-1.16V20.55a2,2,0,0,0,.43.05A2.12,2.12,0,0,0,15,20a2.5,2.5,0,0,0,.33-3.19L12.63,13q-.2-.3-.42-.6c.55-.92,1.08-2,2.09-2.18a16.36,16.36,0,0,1,4,.14,3.71,3.71,0,0,1,1.45,1.51l.33.48a11.13,11.13,0,0,0-.79,1.19c-.1.17-.19.33-.29.48-1,1.53-1.51,2.4-1.8,2.95Z"/><circle class="cls-1" cx="8.08" cy="8.51" r="2.5"/><path class="cls-1" d="M14.13,19.14a.91.91,0,0,1-.62.26.79.79,0,0,1-.4-.1.88.88,0,0,1-.38-.34l-1.27-1.67-.58-.77,0,.88L11.08,22v4.11a1.08,1.08,0,0,1-1,1.16,1.09,1.09,0,0,1-1-1.16V22h-2v4.11a1.08,1.08,0,0,1-1,1.16,1.09,1.09,0,0,1-1-1.16V22l.23-5.49L3.82,18.93a1,1,0,0,1-.81.48.94.94,0,0,1-.59-.23,1.3,1.3,0,0,1-.24-1.58h0l0,0c.2-.34,1.3-2.07,1.84-2.93s1.14-2.2,2.25-2.44a16.36,16.36,0,0,1,4,.14,2.88,2.88,0,0,1,1.19,1.13l.26.38,1,1.51c.16.21.31.43.45.65l1,1.51A1.31,1.31,0,0,1,14.13,19.14Z"/><circle class="cls-1" cx="24.08" cy="8.51" r="2.5"/><path class="cls-1" d="M30.13,19.14a.91.91,0,0,1-.62.26.93.93,0,0,1-.78-.44l-1.85-2.44.2,5.49v4.11a1,1,0,1,1-2,0V22h-2v4.11a1,1,0,1,1-2,0V22l.19-4.65a.9.9,0,0,1-.36-.19l-1.09,1.76a1,1,0,0,1-.76.47h0a.94.94,0,0,1-.59-.23,1.3,1.3,0,0,1-.24-1.58h0l0,0c.09-.16.39-.63.74-1.18l.6-1,.5-.79c.26-.4.49-.85.77-1.25a2.48,2.48,0,0,1,1.48-1.19,16.36,16.36,0,0,1,4,.14,3.71,3.71,0,0,1,1.45,1.51l2.51,3.67A1.31,1.31,0,0,1,30.13,19.14Z"/><circle class="cls-1" cx="8.08" cy="8.51" r="2.5"/><path class="cls-1" d="M14.13,19.14a.91.91,0,0,1-.62.26.79.79,0,0,1-.4-.1.88.88,0,0,1-.38-.34l-1.27-1.67-.58-.77,0,.88L11.08,22v4.11a1.08,1.08,0,0,1-1,1.16,1.09,1.09,0,0,1-1-1.16V22h-2v4.11a1.08,1.08,0,0,1-1,1.16,1.09,1.09,0,0,1-1-1.16V22l.23-5.49L3.82,18.93a1,1,0,0,1-.81.48.94.94,0,0,1-.59-.23,1.3,1.3,0,0,1-.24-1.58h0l0,0c.2-.34,1.3-2.07,1.84-2.93s1.14-2.2,2.25-2.44a16.36,16.36,0,0,1,4,.14,2.88,2.88,0,0,1,1.19,1.13l.26.38,1,1.51c.16.21.31.43.45.65l1,1.51A1.31,1.31,0,0,1,14.13,19.14Z"/><circle class="cls-1" cx="24.08" cy="8.51" r="2.5"/><path class="cls-1" d="M30.13,19.14a.91.91,0,0,1-.62.26.93.93,0,0,1-.78-.44l-1.85-2.44.2,5.49v4.11a1,1,0,1,1-2,0V22h-2v4.11a1,1,0,1,1-2,0V22l.19-4.65,0-.84-.4.65-1.09,1.76a1,1,0,0,1-.76.47h0a.94.94,0,0,1-.59-.23,1.3,1.3,0,0,1-.24-1.58h0l0,0c.09-.16.39-.63.74-1.18l.6-1,.5-.79c.26-.4.49-.85.77-1.25a2.48,2.48,0,0,1,1.48-1.19,16.36,16.36,0,0,1,4,.14,3.71,3.71,0,0,1,1.45,1.51l2.51,3.67A1.31,1.31,0,0,1,30.13,19.14Z"/></g></svg>