<svg xmlns="http://www.w3.org/2000/svg" viewBox="0 0 32 32"><defs><style>.cls-1{fill:#fff;}</style></defs><g id="icons_copy" data-name="icons copy"><path class="cls-1" d="M5,15h8a2,2,0,0,0,2-2V7a2,2,0,0,0-2-2H5A2,2,0,0,0,3,7v6A2,2,0,0,0,5,15ZM5,7h8v6H5Z"/><path class="cls-1" d="M19,15h8a2,2,0,0,0,2-2V7a2,2,0,0,0-2-2H19a2,2,0,0,0-2,2v6A2,2,0,0,0,19,15Zm0-8h8v6H19Z"/><path class="cls-1" d="M5,27h8a2,2,0,0,0,2-2V19a2,2,0,0,0-2-2H5a2,2,0,0,0-2,2v6A2,2,0,0,0,5,27Zm0-8h8v6H5Z"/><path class="cls-1" d="M19,27h8a2,2,0,0,0,2-2V19a2,2,0,0,0-2-2H19a2,2,0,0,0-2,2v6A2,2,0,0,0,19,27Zm0-8h8v6H19Z"/></g></svg>