<svg xmlns="http://www.w3.org/2000/svg" viewBox="0 0 32 32"><defs><style>.cls-1{fill:#fff;}</style></defs><g id="icons_copy" data-name="icons copy"><path class="cls-1" d="M22.5,10.85A4.5,4.5,0,1,0,18,6.35,4.51,4.51,0,0,0,22.5,10.85Zm0-7A2.5,2.5,0,1,1,20,6.35,2.5,2.5,0,0,1,22.5,3.85Z"/><path class="cls-1" d="M10.28,12.85A4.28,4.28,0,1,0,6,8.57,4.28,4.28,0,0,0,10.28,12.85Zm0-6.56A2.28,2.28,0,1,1,8,8.57,2.28,2.28,0,0,1,10.28,6.29Z"/><path class="cls-1" d="M4,24H6v6H8V24h4V22H5V16a1,1,0,0,1,1-1h8a1,1,0,0,1,1,1h3V14a1,1,0,0,1,1-1h7a1,1,0,0,1,1,1v2h2V14a3,3,0,0,0-3-3H19a3,3,0,0,0-3,2.8,3,3,0,0,0-2-.8H6a3,3,0,0,0-3,3v7A1,1,0,0,0,4,24Z"/><path class="cls-1" d="M15,22v2h2.1a5,5,0,0,0,.73,1.75l-1.49,1.49,1.42,1.42,1.49-1.49A5,5,0,0,0,21,27.9V30h2V27.9a5,5,0,0,0,1.75-.73l1.49,1.49,1.42-1.42-1.49-1.49A5,5,0,0,0,26.9,24H29V22H26.9a5,5,0,0,0-.73-1.75l1.49-1.49-1.42-1.42-1.49,1.49A5,5,0,0,0,23,18.1V16H21v2.1a5,5,0,0,0-1.75.73l-1.49-1.49-1.42,1.42,1.49,1.49A5,5,0,0,0,17.1,22Zm7-2a3,3,0,1,1-3,3A3,3,0,0,1,22,20Z"/></g></svg>