<svg xmlns="http://www.w3.org/2000/svg" viewBox="0 0 32 32"><defs><style>.cls-1{fill:#fff;}</style></defs><g id="icons_copy" data-name="icons copy"><path class="cls-1" d="M19.49,11.52c-5.67,0-10.09,5.62-10.28,5.86a1,1,0,0,0,0,1.22c.19.24,4.61,5.86,10.28,5.86H20c5.46-.29,9.66-5.62,9.84-5.85a1,1,0,0,0,0-1.22C29.6,17.14,25.21,11.57,19.49,11.52Zm.35,10.93h-.35c-3.68,0-6.93-3.12-8.17-4.47,1.24-1.35,4.5-4.47,8.22-4.47s6.91,3.13,8.14,4.47C26.48,19.3,23.4,22.27,19.84,22.45Z"/><path class="cls-1" d="M19.5,14.49a3.5,3.5,0,1,0,0,7h.36a3.5,3.5,0,0,0-.36-7Zm.16,5H19.5A1.5,1.5,0,1,1,21,18,1.51,1.51,0,0,1,19.66,19.49Z"/><rect class="cls-1" x="2" y="8" width="13" height="2"/><rect class="cls-1" x="2" y="13" width="7" height="2"/><rect class="cls-1" x="2" y="18" width="5" height="2"/><rect class="cls-1" x="2" y="23" width="8" height="2"/></g></svg>