<svg xmlns="http://www.w3.org/2000/svg" viewBox="0 0 32 32"><defs><style>.cls-1{fill:#fff;}</style></defs><g id="icons_copy" data-name="icons copy"><path class="cls-1" d="M20.83,25.67a5.79,5.79,0,0,0,3.35-1.07l3.11,3.11,1.42-1.42L25.6,23.18a5.78,5.78,0,0,0,1.06-3.35,5.83,5.83,0,1,0-5.83,5.84Zm0-9.67A3.84,3.84,0,1,1,17,19.83,3.83,3.83,0,0,1,20.83,16Z"/><path class="cls-1" d="M11.23,15.43a10.38,10.38,0,0,1,3.28.62l.67-1.89a12.46,12.46,0,0,0-3.95-.73C8.36,13.43,3,15,3,18.78v1.14A2.12,2.12,0,0,0,5.1,22h0L13,22V20L5.1,20v1L5,19.92V18.78C5,16.61,9.12,15.43,11.23,15.43Z"/><path class="cls-1" d="M6.62,8.62A4.62,4.62,0,1,0,11.23,4,4.62,4.62,0,0,0,6.62,8.62ZM11.23,6A2.62,2.62,0,1,1,8.62,8.62,2.62,2.62,0,0,1,11.23,6Z"/></g></svg>