<svg xmlns="http://www.w3.org/2000/svg" viewBox="0 0 32 32"><defs><style>.cls-1{fill:#fff;}</style></defs><g id="icons_copy" data-name="icons copy"><path class="cls-1" d="M2.64,23h7.72a.65.65,0,0,0,.64-.65V19.64c0-1.77-3-2.56-4.5-2.56S2,17.87,2,19.64v2.73A.64.64,0,0,0,2.64,23Z"/><path class="cls-1" d="M4.25,14.05A2.25,2.25,0,1,0,6.5,11.81,2.25,2.25,0,0,0,4.25,14.05Z"/><path class="cls-1" d="M14.23,28.52v1a.53.53,0,0,0,.53.53h6a.53.53,0,0,0,.53-.53v-1c0-1.46-2.36-2.12-3.55-2.12S14.23,27.06,14.23,28.52Z"/><path class="cls-1" d="M19.55,24a1.78,1.78,0,1,0-1.78,1.77A1.78,1.78,0,0,0,19.55,24Z"/><path class="cls-1" d="M23.26,30h5.21a.53.53,0,0,0,.53-.53v-1c0-1.46-2.37-2.12-3.55-2.12a5.65,5.65,0,0,0-2.46.65,3.34,3.34,0,0,1,.33,1.47v1A2.48,2.48,0,0,1,23.26,30Z"/><path class="cls-1" d="M27.23,24a1.78,1.78,0,1,0-1.78,1.77A1.78,1.78,0,0,0,27.23,24Z"/><path class="cls-1" d="M29,6a2,2,0,0,0-2-2H6A2,2,0,0,0,4,6v4H6V6H27V18H13v2H27a2,2,0,0,0,2-2Z"/><rect class="cls-1" x="10" y="9" width="14" height="2"/><rect class="cls-1" x="13" y="13" width="11" height="2"/></g></svg>