<svg xmlns="http://www.w3.org/2000/svg" viewBox="0 0 32 32"><defs><style>.cls-1{fill:#fff;}</style></defs><g id="icons_copy" data-name="icons copy"><path class="cls-1" d="M27.12,20.22c-.57.14-2.43,1-4,1.65A3.07,3.07,0,0,0,20,19a20.76,20.76,0,0,0-2.31.06,9.87,9.87,0,0,1-2.43,0,7.29,7.29,0,0,0-4.66-.69c-.93.08-2.17.19-4.09.22A1.68,1.68,0,0,0,5.29,18H2v2H5v6H2v2H5.29A1.72,1.72,0,0,0,7,26.29V26H8.27l1,.71c1.56,1.17,3.92,2.95,5.74,3.49a7.25,7.25,0,0,0,1.78.23A6.76,6.76,0,0,0,19.26,30c3.09-1,8.91-4.64,9.34-5s1.91-1.44,1.52-3.06A2.45,2.45,0,0,0,27.12,20.22Zm.29,3.16a57.46,57.46,0,0,1-8.84,4.69,4.91,4.91,0,0,1-3.07.2c-1.44-.43-3.72-2.14-5.07-3.16S9,24,8.51,24H7V20.56c1.74,0,2.92-.14,3.81-.22a5.54,5.54,0,0,1,3.77.57l.24.07a11.27,11.27,0,0,0,3.05.08A19.83,19.83,0,0,1,20,21a1.1,1.1,0,0,1,1.18,1.05.94.94,0,0,1-.76,1,22.3,22.3,0,0,1-3,0,20.94,20.94,0,0,0-3.35,0l.32,2a18.67,18.67,0,0,1,3,0c.63,0,1.24,0,1.81,0a11.83,11.83,0,0,0,1.56-.09,2.74,2.74,0,0,0,.95-.32v0c2-.95,5.43-2.46,6-2.61a.43.43,0,0,1,.52.29C28.21,22.54,28.14,22.83,27.41,23.38Z"/><path class="cls-1" d="M22,8V7.5A3.5,3.5,0,0,0,18.47,4H18V2H16V4h-.5a3.5,3.5,0,1,0,0,7h3a1.5,1.5,0,0,1,0,3h-3A1.5,1.5,0,0,1,14,12.5V12H12v.5a3.5,3.5,0,0,0,3.5,3.5H16v1h2V16h.5a3.5,3.5,0,0,0,0-7h-3a1.5,1.5,0,1,1,0-3h3A1.5,1.5,0,0,1,20,7.5V8Z"/></g></svg>