<svg xmlns="http://www.w3.org/2000/svg" viewBox="0 0 32 32"><defs><style>.cls-1{fill:#fff;}</style></defs><g id="icons_copy" data-name="icons copy"><path class="cls-1" d="M5,11H26v2h2V6a2,2,0,0,0-2-2H23V2H21V4H10V2H8V4H5A2,2,0,0,0,3,6V22a2,2,0,0,0,2,2h7V22H5ZM8,6V7h2V6H21V7h2V6h3V9H5V6Z"/><path class="cls-1" d="M28.07,20.84A6.86,6.86,0,1,0,25,26.55l3.16,3.16,1.41-1.42L26.5,25.21A6.84,6.84,0,0,0,28.07,20.84Zm-10.3,3.44A4.86,4.86,0,0,1,21.21,16a4.87,4.87,0,0,1,4.86,4.85,4.83,4.83,0,0,1-1.43,3.44,4.86,4.86,0,0,1-6.87,0Z"/></g></svg>