<svg xmlns="http://www.w3.org/2000/svg" viewBox="0 0 32 32"><defs><style>.cls-1{fill:#fff;}</style></defs><g id="icons_copy" data-name="icons copy"><path class="cls-1" d="M6,27H9v1a2,2,0,0,0,2,2H26a2,2,0,0,0,2-2V13.56a2,2,0,0,0-.59-1.41L20.85,5.59A2,2,0,0,0,19.44,5h-.17L16.85,2.59A2,2,0,0,0,15.44,2H6A2,2,0,0,0,4,4V25A2,2,0,0,0,6,27Zm5,1V7h8v5a2,2,0,0,0,2,2h5V28ZM21,8.56,24.44,12H21ZM6,4h9.44l1,1H11A2,2,0,0,0,9,7V25H6Z"/><rect class="cls-1" x="14" y="17" width="9" height="2"/><rect class="cls-1" x="14" y="12" width="3" height="2"/><rect class="cls-1" x="14" y="22" width="9" height="2"/></g></svg>