<svg xmlns="http://www.w3.org/2000/svg" viewBox="0 0 32 32"><defs><style>.cls-1{fill:#fff;}</style></defs><g id="icons_copy" data-name="icons copy"><path class="cls-1" d="M14.41,14.59A6.17,6.17,0,0,0,18.77,4.05a6.09,6.09,0,0,0-4.36-1.81h0a6.18,6.18,0,0,0,0,12.35Zm0-10.35a4.17,4.17,0,0,1,4.17,4.17,4.11,4.11,0,0,1-1.22,2.95,4.17,4.17,0,1,1-2.95-7.12Z"/><path class="cls-1" d="M5.1,28h0L14,28V26L5.1,26h0A.18.18,0,0,1,5,26v-2.2C5,20.68,11.28,19,14.5,19A16.07,16.07,0,0,1,22,21L23,19.28A18.06,18.06,0,0,0,14.5,17C10.49,17,3,19,3,23.77V26A2.07,2.07,0,0,0,5.1,28Z"/><polygon class="cls-1" points="16.84 22.79 15.43 24.21 20.38 29.16 29.57 19.96 28.16 18.55 20.38 26.33 16.84 22.79"/></g></svg>