<svg xmlns="http://www.w3.org/2000/svg" viewBox="0 0 32 32"><defs><style>.cls-1{fill:#fff;}</style></defs><g id="icons_copy" data-name="icons copy"><path class="cls-1" d="M28,28V4a2,2,0,0,0-2-2H13.56a2,2,0,0,0-1.41.59L5.59,9.15A2,2,0,0,0,5,10.56V28a2,2,0,0,0,2,2H26A2,2,0,0,0,28,28ZM12,5.56V9H8.56ZM26,28H7V11h5a2,2,0,0,0,2-2V4H26Z"/><polygon class="cls-1" points="16 15 16 23 9 23 9 25 24 25 24 23 22 23 22 9 20 9 20 23 18 23 18 15 16 15"/><rect class="cls-1" x="9" y="14" width="4" height="2"/><rect class="cls-1" x="9" y="18" width="4" height="2"/></g></svg>