<svg xmlns="http://www.w3.org/2000/svg" viewBox="0 0 32 32"><defs><style>.cls-1{fill:#fff;}</style></defs><g id="icons_copy" data-name="icons copy"><path class="cls-1" d="M3,10.56V28a2,2,0,0,0,2,2H23V28H5V11h5a2,2,0,0,0,2-2V4H25V7h2V4a2,2,0,0,0-2-2H11.56a2,2,0,0,0-1.41.59L3.59,9.15A2,2,0,0,0,3,10.56ZM6.56,9,10,5.56V9Z"/><path class="cls-1" d="M23,11V24a1,1,0,0,0,.11.45l2,4a1,1,0,0,0,1.78,0l2-4A1,1,0,0,0,29,24V11a1.91,1.91,0,0,0-1.8-2H24.8A1.91,1.91,0,0,0,23,11Zm3,14.76-1-2V16h2v7.76ZM27,11v3H25V11Z"/><rect class="cls-1" x="14" y="7" width="7" height="2"/><path class="cls-1" d="M16,13H12a1,1,0,0,0-1,1v5H8a1,1,0,0,0-1,1v5a1,1,0,0,0,1,1H20a1,1,0,0,0,1-1V17a1,1,0,0,0-1-1H17V14A1,1,0,0,0,16,13ZM9,21h2v3H9Zm4-1V15h2v9H13Zm6-2v6H17V18Z"/></g></svg>