<svg xmlns="http://www.w3.org/2000/svg" viewBox="0 0 32 32"><defs><style>.cls-1{fill:#fff;}</style></defs><g id="icons_copy" data-name="icons copy"><path class="cls-1" d="M29,22H25.52A10,10,0,1,0,6,19a9.92,9.92,0,0,0,.48,3H3a1,1,0,0,0-1,1v7H4V24H28v6h2V23A1,1,0,0,0,29,22Zm-9.44,0a2.78,2.78,0,0,0,.19-1A2.75,2.75,0,0,0,17,18.25H15a1.25,1.25,0,0,1,0-2.5h2A1.25,1.25,0,0,1,18.25,17h1.5A2.75,2.75,0,0,0,17,14.25h-.25V13h-1.5v1.25H15a2.75,2.75,0,0,0,0,5.5h2A1.25,1.25,0,0,1,18.25,21a1.23,1.23,0,0,1-.54,1H14.29a1.23,1.23,0,0,1-.54-1h-1.5a2.78,2.78,0,0,0,.19,1H8.59A8.1,8.1,0,0,1,8,19a8,8,0,0,1,16,0,8.1,8.1,0,0,1-.59,3Z"/><rect class="cls-1" x="15" y="2" width="2" height="3"/><rect class="cls-1" x="22" y="3" width="2" height="4"/><rect class="cls-1" x="8" y="4" width="2" height="3"/><rect class="cls-1" x="12" y="26" width="7" height="2"/></g></svg>