<svg xmlns="http://www.w3.org/2000/svg" viewBox="0 0 32 32"><defs><style>.cls-1{fill:#fff;}</style></defs><g id="icons_copy" data-name="icons copy"><path class="cls-1" d="M14.43,18.77a1.52,1.52,0,0,1,.73.18l1.58-1.36a3.64,3.64,0,0,0-5.44,4.68l1.57-1.35a1.59,1.59,0,0,1-.08-.5A1.65,1.65,0,0,1,14.43,18.77Z"/><path class="cls-1" d="M19,29V28a3,3,0,0,0-1.92-2.79L15,27h1a1,1,0,0,1,1,1v1Z"/><path class="cls-1" d="M21.5.85A4.5,4.5,0,1,0,26,5.35,4.51,4.51,0,0,0,21.5.85Zm0,7A2.5,2.5,0,1,1,24,5.35,2.5,2.5,0,0,1,21.5,7.85Z"/><path class="cls-1" d="M6,7.57a4.28,4.28,0,1,0,4.28-4.28A4.28,4.28,0,0,0,6,7.57Zm6.56,0a2.28,2.28,0,1,1-2.28-2.28A2.28,2.28,0,0,1,12.56,7.57Z"/><path class="cls-1" d="M17,13a1,1,0,0,1,1-1h5.24l2.27-1.95A2.84,2.84,0,0,0,25,10H18a3,3,0,0,0-2.89,2.22A2.93,2.93,0,0,0,14,12H7a3,3,0,0,0-3,3v7a1,1,0,0,0,1,1H6v3.83l2-1.72V23H9V21H6V15a1,1,0,0,1,1-1h7a1,1,0,0,1,1,1v1h2Z"/><path class="cls-1" d="M25,29V22h2a1,1,0,0,0,1-1V15.82l-2,1.72V20H23.14l-2.33,2H23v7Z"/><polygon class="cls-1" points="27.33 11.12 25.82 12.42 17.88 19.25 16.02 20.85 14.63 22.04 12.76 23.65 6.26 29.24 7.56 30.76 10 28.66 14.26 25 15.56 23.88 17.68 22.06 20 20.07 20.08 20 26 14.91 28 13.19 30.02 11.39 28.71 9.87 27.33 11.12"/></g></svg>