<svg xmlns="http://www.w3.org/2000/svg" viewBox="0 0 32 32"><defs><style>.cls-1{fill:#fff;}</style></defs><g id="icons_copy" data-name="icons copy"><path class="cls-1" d="M13,28H9V7H20v5a1,1,0,0,0,1,1h6v5h2V12.15a1,1,0,0,0-.29-.71L22.56,5.29A1,1,0,0,0,21.85,5H20.27L17.85,2.59A2,2,0,0,0,16.44,2H5A2,2,0,0,0,3,4V26a2,2,0,0,0,2,2H7v1a1,1,0,0,0,1,1h5ZM25.44,11H22V7.56ZM5,26V4H16.44l1,1H8A1,1,0,0,0,7,6V26Z"/><rect class="cls-1" x="11" y="10" width="7" height="2"/><rect class="cls-1" x="11" y="14" width="7" height="2"/><rect class="cls-1" x="11" y="18" width="5" height="2"/><path class="cls-1" d="M16,30H28a1,1,0,0,0,1-1V21a1,1,0,0,0-1-1H25V18a1,1,0,0,0-1-1H20a1,1,0,0,0-1,1v4H16a1,1,0,0,0-1,1v6A1,1,0,0,0,16,30Zm11-8v6H25V22Zm-6-3h2v9H21V19Zm-4,5h2v4H17Z"/></g></svg>