<svg xmlns="http://www.w3.org/2000/svg" viewBox="0 0 32 32"><defs><style>.cls-1{fill:#fff;}</style></defs><g id="icons_copy" data-name="icons copy"><path class="cls-1" d="M9.19,5.45c-.32-.25-1,.53-1.37.77A13.7,13.7,0,0,0,6.08,8a6.8,6.8,0,0,0-.77,1c-.17.42.06.39.37.31A6.18,6.18,0,0,0,7,9c.63-.19,1,.17,1.34.58A10,10,0,0,0,6,15.26c-.59.06-1.19.1-1.54-.53a5.83,5.83,0,0,0-1-1.48c-.41.05-.36,1.09-.44,1.52a14.43,14.43,0,0,0,0,2.46,7.61,7.61,0,0,0,.19,1.28c.18.41.33.22.5-.05a6.17,6.17,0,0,0,.75-1.19c.35-.63,1-.59,1.54-.53A9.91,9.91,0,0,0,8.5,22.59c-.38.46-.77.94-1.47.72A5.63,5.63,0,0,0,5.3,23c-.24.32.53,1,.78,1.37a14.3,14.3,0,0,0,1.74,1.74,7.76,7.76,0,0,0,1,.78c.42.17.39-.07.31-.38a6.18,6.18,0,0,0-.33-1.35c-.22-.7.26-1.09.73-1.47A10,10,0,0,0,15.26,26c.06.59.1,1.19-.53,1.54a5.83,5.83,0,0,0-1.48,1c.05.41,1.09.36,1.52.44a14.43,14.43,0,0,0,2.46,0,7.61,7.61,0,0,0,1.28-.19c.41-.18.22-.33-.05-.5a6.17,6.17,0,0,0-1.19-.75c-.63-.35-.59-.95-.53-1.54a10,10,0,0,0,5.7-2.32c.47.38.95.77.73,1.47a5.75,5.75,0,0,0-.36,1.73c.32.25,1-.53,1.37-.78a13.62,13.62,0,0,0,1.74-1.74,6.83,6.83,0,0,0,.77-1c.17-.42-.06-.38-.37-.31a6.81,6.81,0,0,0-1.35.33c-.7.22-1.09-.26-1.47-.72A9.91,9.91,0,0,0,26,16.74c.59-.06,1.19-.1,1.54.53a5.83,5.83,0,0,0,1,1.48c.41-.05.36-1.09.44-1.52a14.43,14.43,0,0,0,0-2.46,7.61,7.61,0,0,0-.19-1.28c-.18-.41-.33-.22-.5,0a6.17,6.17,0,0,0-.75,1.19c-.35.63-.95.59-1.54.53a10,10,0,0,0-2.33-5.71C24,9.14,24.34,8.78,25,9a6,6,0,0,0,1.73.37c.24-.32-.53-1-.78-1.37a13.7,13.7,0,0,0-1.74-1.75,7.58,7.58,0,0,0-1-.77c-.42-.17-.39.07-.31.37a6.26,6.26,0,0,0,.33,1.36c.19.61-.16,1-.57,1.33A9.92,9.92,0,0,0,16.74,6c-.06-.59-.1-1.19.53-1.54a5.83,5.83,0,0,0,1.48-1c-.05-.41-1.09-.36-1.52-.44a14.43,14.43,0,0,0-2.46,0,7.61,7.61,0,0,0-1.28.19c-.41.18-.22.33,0,.5a6.17,6.17,0,0,0,1.19.75c.63.35.59,1,.53,1.54A9.92,9.92,0,0,0,9.4,8.51c-.41-.34-.76-.72-.57-1.33A5.75,5.75,0,0,0,9.19,5.45ZM16,8a8,8,0,1,1-8,8A8,8,0,0,1,16,8Z"/><circle class="cls-1" cx="12.5" cy="17.5" r="1.5"/><circle class="cls-1" cx="15.5" cy="11.5" r="1.5"/><circle class="cls-1" cx="19.5" cy="15.5" r="1.5"/><circle class="cls-1" cx="17.5" cy="20.5" r="1.5"/></g></svg>