<svg xmlns="http://www.w3.org/2000/svg" viewBox="0 0 32 32"><defs><style>.cls-1{fill:#fff;}</style></defs><g id="icons_copy" data-name="icons copy"><path class="cls-1" d="M18,16a3,3,0,1,0-2.94-2.95A2.95,2.95,0,0,0,18,16Z"/><path class="cls-1" d="M24,21.07c0-2.43-4-3.52-6-3.52s-6,1.09-6,3.53V23l12,0Z"/><path class="cls-1" d="M4,23a1,1,0,0,0,0,2H5v2a3,3,0,0,0,3,3H26a3,3,0,0,0,3-3V5a3,3,0,0,0-3-3H8A3,3,0,0,0,5,5V7H4A1,1,0,0,0,4,9H5v2H4a1,1,0,0,0,0,2H5v2H4a1,1,0,0,0,0,2H5v2H4a1,1,0,0,0,0,2H5v2Zm3-2H8a1,1,0,0,0,0-2H7V17H8a1,1,0,0,0,0-2H7V13H8a1,1,0,0,0,0-2H7V9H8A1,1,0,0,0,8,7H7V5A1,1,0,0,1,8,4H26a1,1,0,0,1,1,1V27a1,1,0,0,1-1,1H8a1,1,0,0,1-1-1V25H8a1,1,0,0,0,0-2H7Z"/></g></svg>