<svg xmlns="http://www.w3.org/2000/svg" viewBox="0 0 32 32"><defs><style>.cls-1{fill:#fff;}</style></defs><g id="icons_copy" data-name="icons copy"><rect class="cls-1" x="7" y="6" width="13" height="2"/><rect class="cls-1" x="7" y="10" width="13" height="2"/><rect class="cls-1" x="7" y="14" width="10" height="2"/><path class="cls-1" d="M22.57,21.49a3.76,3.76,0,0,0,0-7.51h0a3.75,3.75,0,0,0-2.65,6.41A3.7,3.7,0,0,0,22.57,21.49Zm0-5.51a1.76,1.76,0,1,1-1.75,1.75A1.75,1.75,0,0,1,22.57,16Z"/><path class="cls-1" d="M17,30l11,0h0a1,1,0,0,0,.71-.29A1,1,0,0,0,29,29V26.29c0-3-4.23-4.29-6.5-4.29S16,23.26,16,26.29V29A1,1,0,0,0,17,30Zm1-3.71c0-1.4,3-2.29,4.5-2.29s4.5.89,4.5,2.29V28l-9,0Z"/><rect class="cls-1" x="7" y="18" width="10" height="2"/><rect class="cls-1" x="7" y="22" width="7" height="2"/><path class="cls-1" d="M22,2H5A2,2,0,0,0,3,4V26a2,2,0,0,0,2,2H15V26H5V4H22v7h2V4A2,2,0,0,0,22,2Z"/></g></svg>