<svg xmlns="http://www.w3.org/2000/svg" viewBox="0 0 32 32"><defs><style>.cls-1{fill:#fff;}</style></defs><g id="icons_copy" data-name="icons copy"><path class="cls-1" d="M3,9.91V26a2,2,0,0,0,2,2H17V26H5V11h5a2,2,0,0,0,2-2V4H22V7h2V4a2,2,0,0,0-2-2H10.91a2,2,0,0,0-1.41.59L3.59,8.5A2,2,0,0,0,3,9.91Zm7-5V9H5.91Z"/><circle class="cls-1" cx="23" cy="11.5" r="2.5"/><path class="cls-1" d="M28.52,22.51a.91.91,0,0,0,.62-.26,1.31,1.31,0,0,0,.16-1.64l-2.61-3.79a3.63,3.63,0,0,0-1.44-1.51,16.36,16.36,0,0,0-4-.14c-1.12.24-1.64,1.47-2.26,2.44l-1.92,3a1.3,1.3,0,0,0,.22,1.63.91.91,0,0,0,.59.23,1,1,0,0,0,.81-.48l1.57-2.53L18.7,25H20v4.11a1,1,0,1,0,2,0V25h2v4.11a1,1,0,1,0,2,0V25h1.3l-1.5-5.5,1.94,2.57A.93.93,0,0,0,28.52,22.51Z"/><rect class="cls-1" x="7" y="13" width="9" height="2"/><rect class="cls-1" x="14" y="8" width="5" height="2"/><rect class="cls-1" x="7" y="18" width="7" height="2"/></g></svg>