<svg xmlns="http://www.w3.org/2000/svg" viewBox="0 0 32 32"><defs><style>.cls-1{fill:#fff;}</style></defs><g id="icons_copy" data-name="icons copy"><path class="cls-1" d="M29.93,11.62A1,1,0,0,0,29,11H25.55c-1.18-1.94-1.16-5,.15-6.28A1,1,0,0,0,25,3H7A5,5,0,0,0,7,13H7a4.9,4.9,0,0,0,.26,6.32A5,5,0,0,0,9,29H27a1,1,0,0,0,.9-.56,1,1,0,0,0-.11-1.05c-1.35-1.77-1.46-4.89-.31-6.39H29a1,1,0,0,0,.9-.56,1,1,0,0,0-.11-1.05c-1.44-1.88-1.49-5.32-.09-6.67A1,1,0,0,0,29.93,11.62ZM4,8A3,3,0,0,1,7,5H23.19a7.58,7.58,0,0,0-.51,3H8.5a.5.5,0,0,0,0,1H22.77a9.05,9.05,0,0,0,.52,2H7A3,3,0,0,1,4,8Zm21,5h2.19a7.14,7.14,0,0,0-.47,2H12.5a.5.5,0,0,0,0,1H26.68a8.82,8.82,0,0,0,.61,3H11a3,3,0,0,1,0-6Zm-.32,11H10.5a.5.5,0,0,0,0,1H24.77a9.05,9.05,0,0,0,.52,2H9a3,3,0,0,1,0-6H25.19A7.58,7.58,0,0,0,24.68,24Z"/></g></svg>