<?xml version="1.0" encoding="UTF-8"?>
<svg id="icons" xmlns="http://www.w3.org/2000/svg" viewBox="0 0 32 32">
  <defs>
    <style>
      .cls-1 {
        fill: #fff;
        stroke-width: 0px;
      }
    </style>
  </defs>
  <rect class="cls-1" x="23" y="6" width="6" height="2"/>
  <rect class="cls-1" x="12" y="15" width="17" height="2"/>
  <rect class="cls-1" x="19" y="24" width="10" height="2"/>
  <polygon class="cls-1" points="20 11 22 11 22 3 20 3 20 6 3 6 3 8 20 8 20 11"/>
  <polygon class="cls-1" points="9 20 11 20 11 12 9 12 9 15 3 15 3 17 9 17 9 20"/>
  <polygon class="cls-1" points="16 24 3 24 3 26 16 26 16 29 18 29 18 21 16 21 16 24"/>
</svg>