<svg xmlns="http://www.w3.org/2000/svg" viewBox="0 0 32 32"><defs><style>.cls-1{fill:#fff;}</style></defs><g id="icons_copy" data-name="icons copy"><path class="cls-1" d="M9.91,23.34l-1.05-1,4.58-4.56-1.07-1.07L5.7,23.34a1.51,1.51,0,0,0,0,2.15l1,1A1.49,1.49,0,0,0,7.8,27a1.51,1.51,0,0,0,1.08-.45l.84-.84v3.9h1v-4.9l4.83-4.83-1.07-1.07ZM7.79,25.46l-1-1.06,1-1,1,1Z"/><path class="cls-1" d="M18.32,12.86l.34-.34.17.85,1.6,1.6,6.45-6.45a1.51,1.51,0,0,0,0-2.15l-1-1a1.55,1.55,0,0,0-2.15,0l-6.45,6.45ZM24.79,6.4l1,1-1.3,1.3L24.18,7ZM22.9,8.28,23.25,10l-.85.84-.34-1.72ZM20.78,10.4l.35,1.73-.85.84-.35-1.72Z"/><path class="cls-1" d="M8.88,5.12a1.53,1.53,0,0,0-2.15,0l-1,1a1.51,1.51,0,0,0,0,2.15L22.15,24.76v4.39h1V25.76l.55.54a1.51,1.51,0,0,0,2.15,0l1-1a1.53,1.53,0,0,0,0-2.15ZM8.05,8.53,6.76,7.24a0,0,0,0,1,0,0l1.06-1,.58.59Zm2.12,2.13-.85-.85L9.68,8l.84.85Zm2.12,2.12-.84-.85.35-1.76.84.85Zm2.12,2.12-.84-.85.35-1.76.84.85Zm8.24,8.24-7-7L16,14.42l7.66,7.67Zm2.11,2.1-1.05-1,1.05-1.05,1.06,1.06Z"/><circle class="cls-1" cx="17.25" cy="4.54" r="1"/><path class="cls-1" d="M28.71,17.21l1.06-1.06a.51.51,0,0,0,0-.71.5.5,0,0,0-.71,0L28,16.5l-1.06-1.06a.5.5,0,0,0-.71,0,.51.51,0,0,0,0,.71l1.06,1.06-1.06,1.06a.5.5,0,0,0,0,.7.51.51,0,0,0,.36.15.5.5,0,0,0,.35-.15L28,17.91,29.06,19a.5.5,0,0,0,.35.15.51.51,0,0,0,.36-.15.5.5,0,0,0,0-.7Z"/><path class="cls-1" d="M5.41,15.86a.51.51,0,0,0,.36-.15.51.51,0,0,0,0-.71L4.71,13.94l1.06-1.06a.5.5,0,0,0,0-.7.5.5,0,0,0-.71,0L4,13.24,2.94,12.18a.5.5,0,0,0-.71,0,.5.5,0,0,0,0,.7l1.06,1.06L2.23,15a.51.51,0,0,0,0,.71.51.51,0,0,0,.36.15.5.5,0,0,0,.35-.15L4,14.65l1.06,1.06A.5.5,0,0,0,5.41,15.86Z"/></g></svg>