<?xml version="1.0" encoding="UTF-8"?>
<svg id="icons" xmlns="http://www.w3.org/2000/svg" viewBox="0 0 32 32">
  <defs>
    <style>
      .cls-1 {
        fill: #fff;
        stroke-width: 0px;
      }
    </style>
  </defs>
  <path class="cls-1" d="m27,6H9c-1.65,0-3,1.35-3,3v4h2v-2.74l7.98,7.26c.58.52,1.3.78,2.02.78s1.44-.26,2.02-.78l7.98-7.26v11.74c0,.55-.45,1-1,1H8v2h19c1.65,0,3-1.35,3-3v-13c0-1.65-1.35-3-3-3Zm-8.33,10.04c-.38.35-.96.35-1.35,0l-8.74-7.94c.13-.06.26-.09.41-.09h18c.15,0,.28.04.41.09l-8.74,7.94Z"/>
  <rect class="cls-1" x="5" y="19" width="5" height="2"/>
  <rect class="cls-1" x="2" y="15" width="6" height="2"/>
</svg>