<?xml version="1.0" encoding="UTF-8"?>
<svg id="icons" xmlns="http://www.w3.org/2000/svg" viewBox="0 0 32 32">
  <defs>
    <style>
      .cls-1 {
        fill: #fff;
        stroke-width: 0px;
      }
    </style>
  </defs>
  <path class="cls-1" d="m4,21v-10h19v1.29h2v-5.29c0-1.65-1.35-3-3-3h-3v-2h-2v2h-7v-2h-2v2h-3c-1.65,0-3,1.35-3,3v14c0,1.65,1.35,3,3,3h7.08v-2h-7.08c-.55,0-1-.45-1-1Zm1-15h3v1h2v-1h7v1h2v-1h3c.55,0,1,.45,1,1v2H4v-2c0-.55.45-1,1-1Z"/>
  <path class="cls-1" d="m22,14c-4.41,0-8,3.59-8,8s3.59,8,8,8,8-3.59,8-8-3.59-8-8-8Zm0,14c-3.31,0-6-2.69-6-6s2.69-6,6-6,6,2.69,6,6-2.69,6-6,6Z"/>
  <polygon class="cls-1" points="23 18 21 18 21 23 26 23 26 21 23 21 23 18"/>
</svg>