<?xml version="1.0" encoding="UTF-8"?>
<svg id="icons" xmlns="http://www.w3.org/2000/svg" viewBox="0 0 32 32">
  <defs>
    <style>
      .cls-1 {
        fill: #fff;
        stroke-width: 0px;
      }
    </style>
  </defs>
  <path class="cls-1" d="m27,4h-8.44c-.53,0-1.04.21-1.41.59l-6.56,6.56c-.35.35-.59.92-.59,1.41v2.44h2v-2h5c1.1,0,2-.9,2-2v-5h8v21h-15v-2h-2v2c0,1.1.9,2,2,2h15c1.1,0,2-.9,2-2V6c0-1.1-.9-2-2-2Zm-13.44,7l3.44-3.44v3.44h-3.44Z"/>
  <rect class="cls-1" x="3" y="17" width="4" height="2"/>
  <rect class="cls-1" x="7" y="21" width="4" height="2"/>
  <rect class="cls-1" x="9" y="17" width="9" height="2"/>
  <rect class="cls-1" x="13" y="21" width="7" height="2"/>
</svg>