<?xml version="1.0" encoding="UTF-8"?>
<svg id="icons" xmlns="http://www.w3.org/2000/svg" viewBox="0 0 32 32">
  <defs>
    <style>
      .cls-1 {
        fill: #fff;
        stroke-width: 0px;
      }
    </style>
  </defs>
  <path class="cls-1" d="m11.96,11.8c2.63,0,4.77-2.13,4.77-4.77s-2.13-4.77-4.77-4.77-4.77,2.13-4.77,4.77c0,2.63,2.13,4.77,4.77,4.77Z"/>
  <path class="cls-1" d="m18,17v-1.34c0-.91.17-1.78.49-2.57-.65-.1-1.09-.09-1.09-.09H7.7c-5.7,0-5.7,5.18-5.7,5.18v7.82h9v-5.57c0-.43.1-.85.28-1.22.03-.06.06-.12.09-.18.59-1.2,1.82-2.03,3.25-2.03h3.38Z"/>
  <path class="cls-1" d="m25,10.66c-2.76,0-5,2.24-5,5v3.34h-5.38c-.89,0-1.62.72-1.62,1.62v6.77c0,.89.72,1.62,1.62,1.62h8.77c.89,0,1.62-.72,1.62-1.62v-6.77c0-.89-.72-1.62-1.62-1.62h-1.38v-3.34c0-1.65,1.35-3,3-3s3,1.35,3,3v1.34c0,.55.45,1,1,1s1-.45,1-1v-1.34c0-2.76-2.24-5-5-5Z"/>
</svg>