<svg xmlns="http://www.w3.org/2000/svg" viewBox="0 0 32 32"><defs><style>.cls-1{fill:#fff;}</style></defs><g id="icons_copy" data-name="icons copy"><path class="cls-1" d="M8.43,13.47a4,4,0,1,0,4-4A4,4,0,0,0,8.43,13.47Zm6,0a2,2,0,1,1-2-2A2,2,0,0,1,14.43,13.47Z"/><path class="cls-1" d="M18.07,8.74l1.43-.62.57,1a8.15,8.15,0,0,1,1.8-.89L20.74,6.36a1,1,0,0,0-1.27-.42l-1.78.78-2-1.16-.23-2a1,1,0,0,0-1-.89H10.39a1,1,0,0,0-1,.89l-.23,2-2,1.15L5.39,5.94a1,1,0,0,0-1.26.42l-2,3.55a1,1,0,0,0,.28,1.3l1.52,1.1v2.31l-1.51,1.1A1,1,0,0,0,2.14,17l2,3.55A1,1,0,0,0,5.41,21l1.78-.78,2,1.16.2,2a.9.9,0,0,0,.21.49l1.67-1.67-.17-1.55a1,1,0,0,0-.5-.75L7.74,18.24a1,1,0,0,0-.9,0l-1.43.62-1.14-2,1.2-.87a1,1,0,0,0,.46-.81V11.81A1,1,0,0,0,5.52,11l-1.2-.88,1.15-2,1.42.62a1,1,0,0,0,.9,0l2.87-1.66a1,1,0,0,0,.49-.75l.18-1.62h2.3l.18,1.62a1,1,0,0,0,.5.75l2.86,1.66A1,1,0,0,0,18.07,8.74Z"/><path class="cls-1" d="M24.76,9.93a6.37,6.37,0,0,0-6.36,6.36A6.25,6.25,0,0,0,18.63,18l-8.15,8.15a1,1,0,0,0-.29.71v2.42a1,1,0,0,0,1,1h3.1a1,1,0,0,0,.94-.66l.46-1.3,1.84-.51a1,1,0,0,0,.69-.69l.52-1.81,1.83-.53a1.06,1.06,0,0,0,.43-.26l2.07-2.07a6.44,6.44,0,0,0,1.69.23,6.36,6.36,0,0,0,0-12.72Zm-5,13-2.11.61a1,1,0,0,0-.68.68L16.45,26l-1.79.5a1,1,0,0,0-.67.63l-.4,1.12h-1.4v-1l7.34-7.34a5.67,5.67,0,0,0,.73.89,6.68,6.68,0,0,0,.88.73Zm8.08-3.52a4.36,4.36,0,0,1-7.44-3.09,4.36,4.36,0,1,1,7.44,3.09Z"/><path class="cls-1" d="M24.27,14.29a1.77,1.77,0,0,0,0,2.49,1.76,1.76,0,1,0,0-2.49Z"/></g></svg>