<svg xmlns="http://www.w3.org/2000/svg" viewBox="0 0 32 32"><defs><style>.cls-1{fill:#f15a29;}.cls-2{fill:#211c1b;}</style></defs><g id="icons_copy" data-name="icons copy"><path class="cls-1" d="M26,12V5a2,2,0,0,0-2-2H13.25a2,2,0,0,0-1.42.58L6.59,8.83A2,2,0,0,0,6,10.24V27a2,2,0,0,0,2,2H25V27H8V11h3.58A2.42,2.42,0,0,0,14,8.58V5H24v7ZM11.58,9H9.24L12,6.25V8.58A.42.42,0,0,1,11.58,9Z"/><rect class="cls-2" x="15" y="14" width="12" height="2"/><rect class="cls-2" x="11" y="14" width="2" height="2"/><rect class="cls-2" x="15" y="18" width="12" height="2"/><rect class="cls-2" x="11" y="18" width="2" height="2"/><rect class="cls-2" x="15" y="22" width="12" height="2"/><rect class="cls-2" x="11" y="22" width="2" height="2"/><rect class="cls-1" x="16" y="8" width="6" height="2"/></g></svg>