<svg xmlns="http://www.w3.org/2000/svg" viewBox="0 0 32 32"><defs><style>.cls-1{fill:#f15a29;}.cls-2{fill:#211c1b;}</style></defs><g id="icons_copy" data-name="icons copy"><path class="cls-1" d="M6,17H4V9A2,2,0,0,1,6,7H16V9H6Z"/><path class="cls-1" d="M28,25H23V23h5V13h2V23A2,2,0,0,1,28,25Z"/><path class="cls-1" d="M4.29,28.12a.9.9,0,0,1-.9-.9V21.38l-.8.69a.9.9,0,0,1-1.18-1.36l2.24-1.95a.92.92,0,0,1,.59-.22.94.94,0,0,1,1,.9v7.78A.9.9,0,0,1,4.29,28.12Z"/><path class="cls-1" d="M13.29,28.12h-5a.9.9,0,0,1-.9-.9,1.06,1.06,0,0,1,.25-.68l1.68-1.76c.82-.84,2.17-2.24,2.17-3.39a.92.92,0,0,0-.92-1.05,1.34,1.34,0,0,0-1.23,1.12.89.89,0,0,1-1.1.63A.91.91,0,0,1,7.6,21a3.07,3.07,0,0,1,3-2.45,2.69,2.69,0,0,1,2.72,2.85c0,1.88-1.61,3.54-2.67,4.64l-.28.29h2.95a.9.9,0,1,1,0,1.8Zm-5-1h0Z"/><path class="cls-1" d="M18.66,28.12A2.86,2.86,0,0,1,15.78,26a.9.9,0,0,1,1.75-.41,1.09,1.09,0,0,0,1.13.7,1.12,1.12,0,0,0,1.23-1.17c0-.72-.5-1.15-1.35-1.15h-.25a.9.9,0,1,1,0-1.8h.25c.57,0,1.24-.16,1.24-.92s-.33-.92-1-.92a1.18,1.18,0,0,0-1.16.66.91.91,0,0,1-1.22.37A.9.9,0,0,1,16,20.18a3,3,0,0,1,2.76-1.63,2.65,2.65,0,0,1,2.8,2.73,2.61,2.61,0,0,1-.69,1.83,2.83,2.83,0,0,1,.8,2A2.93,2.93,0,0,1,18.66,28.12Z"/><rect class="cls-1" x="8" y="11" width="8" height="2"/><rect class="cls-1" x="23" y="19" width="3" height="2"/><rect class="cls-1" x="8" y="15" width="13" height="2"/><polygon class="cls-2" points="30 9 25 9 25 4 23 4 23 9 18 9 18 11 23 11 23 16 25 16 25 11 30 11 30 9"/></g></svg>