<svg xmlns="http://www.w3.org/2000/svg" viewBox="0 0 32 32"><defs><style>.cls-1{fill:#f15a29;}.cls-2{fill:#211c1b;}</style></defs><g id="icons_copy" data-name="icons copy"><path class="cls-1" d="M15.76,6.78v7.74h1.5V9.1a.84.84,0,0,1,1.67,0V19a3.34,3.34,0,0,1-.14,1h1.53a4.77,4.77,0,0,0,.11-1V9.1A2.32,2.32,0,0,0,17.26,7V6.78a2.33,2.33,0,0,0-3.18-2.14V4.46a2.34,2.34,0,0,0-4.67,0h0A2.33,2.33,0,0,0,6.23,6.6v3.63a3,3,0,0,0-1.44-.38,1.73,1.73,0,0,0-1.73,1.72V19a5.07,5.07,0,0,0,.74,2.65l2,3.25V30h1.5V24.7a.68.68,0,0,0-.11-.39L5.08,20.88A3.61,3.61,0,0,1,4.56,19V11.57a.22.22,0,0,1,.23-.22,1.41,1.41,0,0,1,1.44,1.38v5.48h1.5V6.6a.84.84,0,0,1,1.68,0v7.92h1.5V4.46a.84.84,0,0,1,1.67,0V14.52h1.5V6.78a.84.84,0,0,1,1.68,0Z"/><rect class="cls-1" x="16.21" y="26" width="1.5" height="4"/><polygon class="cls-2" points="30 22 24 22 24 16 22 16 22 22 16 22 16 24 22 24 22 30 24 30 24 24 30 24 30 22"/></g></svg>