<svg xmlns="http://www.w3.org/2000/svg" viewBox="0 0 32 32"><defs><style>.cls-1{fill:#211c1b;}.cls-2{fill:#f15a29;}</style></defs><g id="icons_copy" data-name="icons copy"><polygon class="cls-1" points="30 23 25 23 25 18 23 18 23 23 18 23 18 25 23 25 23 30 25 30 25 25 30 25 30 23"/><rect class="cls-2" x="7" y="8" width="18" height="2"/><path class="cls-2" d="M17,16h8V14H18.37C18.28,14.17,17,16,17,16Z"/><polygon class="cls-2" points="7 14 7 16 10.26 16 11.89 14 7 14"/><path class="cls-2" d="M3.64,27.25,15.56,12.66a.56.56,0,0,1,.88.68L5.64,28.75a1.25,1.25,0,1,1-2-1.5Z"/><path class="cls-2" d="M4,4H28V16h2V4a2,2,0,0,0-2-2H4A2,2,0,0,0,2,4V20a2,2,0,0,0,2,2H5.71l1.63-2H4Z"/><polygon class="cls-2" points="17 20 13.88 20 12.47 22 17 22 17 20"/></g></svg>