<svg xmlns="http://www.w3.org/2000/svg" viewBox="0 0 32 32"><defs><style>.cls-1{fill:#f15a29;}.cls-2{fill:#211c1b;}</style></defs><g id="icons_copy" data-name="icons copy"><path class="cls-1" d="M10.9,24.82A10.49,10.49,0,0,1,7.45,22.5,10.85,10.85,0,0,1,5,11H2.85a13.08,13.08,0,0,0-.57,3.84,12.71,12.71,0,0,0,1,5,12.91,12.91,0,0,0,6.84,6.84,12.71,12.71,0,0,0,5,1A13.14,13.14,0,0,0,17,27.54v-2A10.88,10.88,0,0,1,10.9,24.82Z"/><path class="cls-1" d="M26.94,9.84a12.66,12.66,0,0,0-2.75-4.08A12.83,12.83,0,0,0,6,5.76l0,0V2H4V9h7V7H7.64A10.77,10.77,0,0,1,19.33,4.85a10.82,10.82,0,0,1,5.77,5.77A10.89,10.89,0,0,1,26,14.84c0,.22,0,.44,0,.66h2c0-.22,0-.44,0-.66A12.76,12.76,0,0,0,26.94,9.84Z"/><rect class="cls-2" x="24" y="18" width="2" height="12"/><rect class="cls-2" x="19" y="23" width="12" height="2"/><path class="cls-2" d="M19.5,13V12a3,3,0,0,0-3-3H16V7.5H14V9h-.51a3,3,0,0,0-3,3v1a3,3,0,0,0,3,3h3a1,1,0,0,1,1,1v1a1,1,0,0,1-1,1h-3a1,1,0,0,1-1-1V17h-2v1a3,3,0,0,0,3,3H14v1.5h2V21h.51a3,3,0,0,0,3-3V17a3,3,0,0,0-3-3h-3a1,1,0,0,1-1-1V12a1,1,0,0,1,1-1h3a1,1,0,0,1,1,1v1Z"/></g></svg>