<svg xmlns="http://www.w3.org/2000/svg" viewBox="0 0 32 32"><defs><style>.cls-1{fill:#211c1b;}.cls-2{fill:#f15a29;}</style></defs><g id="icons_copy" data-name="icons copy"><polygon class="cls-1" points="4.94 8.1 2.11 5.27 3.52 3.85 4.94 5.27 8.47 1.73 9.89 3.15 4.94 8.1"/><polygon class="cls-1" points="4.94 14.1 2.11 11.27 3.52 9.85 4.94 11.27 8.47 7.73 9.89 9.15 4.94 14.1"/><rect class="cls-2" x="12" y="5" width="17" height="2"/><rect class="cls-2" x="12" y="11" width="17" height="2"/><polygon class="cls-1" points="4.94 20.1 2.11 17.27 3.52 15.85 4.94 17.27 8.47 13.73 9.89 15.15 4.94 20.1"/><rect class="cls-2" x="12" y="17" width="8" height="2"/><polygon class="cls-1" points="31 22 25 22 25 16 23 16 23 22 17 22 17 24 23 24 23 30 25 30 25 24 31 24 31 22"/></g></svg>