<svg xmlns="http://www.w3.org/2000/svg" viewBox="0 0 32 32"><defs><style>.cls-1{fill:#211c1b;}.cls-2{fill:#f15a29;}</style></defs><g id="icons_copy" data-name="icons copy"><polygon class="cls-1" points="16 22 11 22 11 17 9 17 9 22 4 22 4 24 9 24 9 29 11 29 11 24 16 24 16 22"/><path class="cls-2" d="M28.5,24.06C28,23.41,25,19.75,25,19.75L28.48,19a.13.13,0,0,0,.05-.24l-9.82-6.22a.14.14,0,0,0-.2.16l3.54,11.08a.13.13,0,0,0,.25,0l1.62-3.18s3.44,4.49,3.46,4.5.82-.63,1.1-.87A.12.12,0,0,0,28.5,24.06Z"/><path class="cls-2" d="M7,19H4a2,2,0,0,1-2-2V7A2,2,0,0,1,4,5H28a2,2,0,0,1,2,2v9H28V7H4V17H7Z"/><rect class="cls-2" x="13" y="17" width="5" height="2"/><rect class="cls-2" x="6" y="9" width="20" height="2"/><rect class="cls-2" x="6" y="13" width="11" height="2"/></g></svg>