<svg xmlns="http://www.w3.org/2000/svg" viewBox="0 0 32 32"><defs><style>.cls-1{fill:#f15a29;}.cls-2{fill:#211c1b;}</style></defs><g id="icons_copy" data-name="icons copy"><path class="cls-1" d="M28.85,8.8a1.83,1.83,0,0,0-.44-.65L22.85,2.59a1.83,1.83,0,0,0-.65-.44A2,2,0,0,0,21.44,2H16a2,2,0,0,0-2,2V14h2V4h5V9a2,2,0,0,0,2,2h4v9H18v2h9a2,2,0,0,0,2-2V9.56A2,2,0,0,0,28.85,8.8ZM23,5.56,26.44,9H23Z"/><path class="cls-2" d="M21.81,17.49c-.14-.42-.26-.22-.39.05a6.89,6.89,0,0,0-.57,1.19.84.84,0,0,1-1,.55A8,8,0,0,0,18.15,15a1.65,1.65,0,0,1,.36-.28c.52-.13,1.29.46,1.83.52.28.1.49.16.3-.23a17.07,17.07,0,0,0-3.55-3.55c-.39-.2-.33,0-.23.3A7.16,7.16,0,0,0,17.31,13a.76.76,0,0,1-.18,1,7.94,7.94,0,0,0-4.41-1.86,2.22,2.22,0,0,1,.07-.57c.28-.48,1.25-.61,1.67-1,.27-.13.46-.25,0-.39a16.89,16.89,0,0,0-5,0c-.42.14-.22.26,0,.39a6.89,6.89,0,0,0,1.19.57.84.84,0,0,1,.55,1A7.92,7.92,0,0,0,6.89,14a1.56,1.56,0,0,1-.27-.35c-.13-.52.46-1.29.52-1.83.1-.28.16-.49-.23-.3A17.07,17.07,0,0,0,3.36,15c-.2.39,0,.33.3.23A7.16,7.16,0,0,0,4.9,14.8a.77.77,0,0,1,1,.19,7.87,7.87,0,0,0-1.76,4.29,2.22,2.22,0,0,1-.57-.07c-.48-.28-.61-1.25-1-1.67-.13-.27-.25-.46-.39-.05a16.89,16.89,0,0,0,0,5c.14.42.26.22.39-.05a6.89,6.89,0,0,0,.57-1.19.84.84,0,0,1,1-.55A7.93,7.93,0,0,0,6,25.12a1.87,1.87,0,0,1-.47.37C5,25.62,4.2,25,3.66,25c-.28-.1-.49-.16-.3.23a16.78,16.78,0,0,0,3.55,3.54c.39.21.33,0,.23-.29a7.16,7.16,0,0,0-.45-1.24A.81.81,0,0,1,7,26.14a7.93,7.93,0,0,0,4.29,1.75,2.22,2.22,0,0,1-.07.57c-.28.48-1.25.61-1.67,1-.27.13-.46.25,0,.39a16.89,16.89,0,0,0,5,0c.42-.14.22-.26,0-.39a6.89,6.89,0,0,0-1.19-.57.84.84,0,0,1-.55-1A7.93,7.93,0,0,0,17,26.14a1.79,1.79,0,0,1,.38.48c.13.52-.46,1.29-.52,1.83-.1.28-.16.49.23.29a16.78,16.78,0,0,0,3.55-3.54c.2-.39,0-.33-.3-.23a7.16,7.16,0,0,0-1.24.45.82.82,0,0,1-1.07-.3,7.94,7.94,0,0,0,1.86-4.4,2.22,2.22,0,0,1,.57.07c.48.28.61,1.25,1,1.67.13.27.25.46.39.05A16.89,16.89,0,0,0,21.81,17.49ZM12,25.92A5.92,5.92,0,1,1,17.92,20,5.92,5.92,0,0,1,12,25.92Z"/><path class="cls-2" d="M9.31,20a1.16,1.16,0,1,0,1.15,1.15A1.16,1.16,0,0,0,9.31,20Z"/><path class="cls-2" d="M12.77,16.54a1.16,1.16,0,1,0-1.15,1.15A1.16,1.16,0,0,0,12.77,16.54Z"/><path class="cls-2" d="M14.69,18.46a1.16,1.16,0,1,0,1.16,1.16A1.16,1.16,0,0,0,14.69,18.46Z"/><path class="cls-2" d="M13.15,22.31a1.16,1.16,0,1,0,1.16,1.15A1.15,1.15,0,0,0,13.15,22.31Z"/></g></svg>