<svg xmlns="http://www.w3.org/2000/svg" viewBox="0 0 32 32"><defs><style>.cls-1{fill:#f15a29;}.cls-2{fill:#211c1b;}</style></defs><g id="exp"><path class="cls-1" d="M6,5V7H22a6,6,0,0,0,6,6v6a6,6,0,0,0-6,6H6v2H30V5ZM28,25H24a4,4,0,0,1,4-4Zm0-14a4,4,0,0,1-4-4h4Z"/><path class="cls-2" d="M18.85,14v-.81a2,2,0,0,0-2-2h-1V9h-1.7v2.15h-1a2,2,0,0,0-2,2v1.62a2,2,0,0,0,2,2h3.62a.34.34,0,0,1,.34.34v1.62a.34.34,0,0,1-.34.34H13.19a.34.34,0,0,1-.34-.34V18h-1.7v.81a2,2,0,0,0,2,2h1V23h1.7V20.85h1a2,2,0,0,0,2-2V17.19a2,2,0,0,0-2-2H13.19a.34.34,0,0,1-.34-.34V13.19a.34.34,0,0,1,.34-.34h3.62a.34.34,0,0,1,.34.34V14Z"/><rect class="cls-1" x="3" y="15" width="6" height="2"/><rect class="cls-1" x="2" y="10" width="5" height="2"/><rect class="cls-1" x="2" y="20" width="5" height="2"/></g></svg>