<svg xmlns="http://www.w3.org/2000/svg" viewBox="0 0 32 32"><defs><style>.cls-1{fill:#f15a29;}.cls-2{fill:#211c1b;}</style></defs><g id="icons_copy" data-name="icons copy"><path class="cls-1" d="M26,26H6a2,2,0,0,1-2-2V8A2,2,0,0,1,6,6H26a2,2,0,0,1,2,2V24A2,2,0,0,1,26,26ZM6,8V24H26V8Z"/><rect class="cls-2" x="13" y="11" width="10" height="2"/><rect class="cls-2" x="13" y="15" width="10" height="2"/><rect class="cls-2" x="13" y="19" width="10" height="2"/><rect class="cls-2" x="9" y="11" width="2" height="2"/><rect class="cls-2" x="9" y="15" width="2" height="2"/><rect class="cls-2" x="9" y="19" width="2" height="2"/></g></svg>