<svg xmlns="http://www.w3.org/2000/svg" viewBox="0 0 32 32"><defs><style>.cls-1{fill:#f15a29;}.cls-2{fill:#211c1b;}</style></defs><g id="icons_copy" data-name="icons copy"><path class="cls-1" d="M23,15.43a1.07,1.07,0,0,1-.76-.31L20.5,13.41l-1.71,1.72a1.09,1.09,0,0,1-1.14.22,1.07,1.07,0,0,1-.65-1V6h2v6.09l1.26-1.27a.34.34,0,0,1,.48,0L22,12.09V6h2v8.39a1.07,1.07,0,0,1-.65,1A1,1,0,0,1,23,15.43Z"/><rect class="cls-2" x="17.5" y="21.95" width="2" height="5.1" transform="translate(-4.45 4.1) rotate(-11.31)"/><rect class="cls-2" x="10.95" y="23.5" width="5.1" height="2" transform="translate(-13.17 32.93) rotate(-78.68)"/><rect class="cls-2" x="10" y="26" width="12" height="2"/><path class="cls-2" d="M27,23H5a2,2,0,0,1-2-2V7A2,2,0,0,1,5,5H27a2,2,0,0,1,2,2V21A2,2,0,0,1,27,23ZM5,7V21H27V7Z"/><rect class="cls-1" x="7" y="9" width="8" height="2"/><rect class="cls-1" x="7" y="13" width="8" height="2"/><rect class="cls-1" x="7" y="17" width="18" height="2"/></g></svg>