<svg xmlns="http://www.w3.org/2000/svg" viewBox="0 0 32 32"><defs><style>.cls-1{fill:#f15a29;}.cls-2{fill:#211c1b;}</style></defs><g id="exp"><path class="cls-1" d="M30,29.35,28.71,29c-4-1.23-8.19-1.09-12.59-.93S7.1,28.34,2.7,27L2,26.73V21.51Q2,14.76,2,8V6.68l1.28.38C7.34,8.25,11.53,8.13,16,8c1.41,0,2.88-.08,4.31-.07v2c-1.41,0-2.86,0-4.26.07a47.37,47.37,0,0,1-12-.7q0,6.11,0,12.2v3.74c3.86,1.06,7.84.93,12.05.78,3.94-.14,8-.28,12,.66V10.76a24.63,24.63,0,0,0-2.53-.48l-.11,0h.12v-2a1.24,1.24,0,0,1,.35.05A21.59,21.59,0,0,1,29.28,9l.72.21Z"/><path class="cls-2" d="M8.19,15.8h3.62V14.2h-2V12H8.2v2.2h0a2,2,0,0,0-2,2v.62a2,2,0,0,0,2,2H9.81a.4.4,0,0,1,.39.39v.62a.4.4,0,0,1-.39.39H6.19v1.6h2V24H9.8V21.8h0a2,2,0,0,0,2-2v-.62a2,2,0,0,0-2-2H8.19a.4.4,0,0,1-.39-.39v-.62A.4.4,0,0,1,8.19,15.8Z"/><rect class="cls-2" x="14" y="22" width="12" height="2"/><rect class="cls-2" x="20" y="18" width="6" height="2"/><path class="cls-2" d="M14.85,17.91A.91.91,0,0,1,14,16.72l.8-2.38A9.34,9.34,0,0,1,17,10.74l7.81-7.8a3,3,0,0,1,4.1,0A2.85,2.85,0,0,1,29.77,5,2.88,2.88,0,0,1,28.92,7l-7.81,7.8a9.21,9.21,0,0,1-3.59,2.23l-2.39.79A.92.92,0,0,1,14.85,17.91Zm12-14a1.08,1.08,0,0,0-.78.32h0L18.28,12a7.39,7.39,0,0,0-1.78,2.89l-.23.67.68-.22a7.44,7.44,0,0,0,2.89-1.79l7.81-7.81A1.1,1.1,0,0,0,28,5a1.12,1.12,0,0,0-.32-.78A1.1,1.1,0,0,0,26.87,3.89Z"/></g></svg>