<svg xmlns="http://www.w3.org/2000/svg" viewBox="0 0 32 32"><defs><style>.cls-1{fill:#f15a29;}.cls-2{fill:#211c1b;}</style></defs><g id="icons_copy" data-name="icons copy"><rect class="cls-1" x="7" y="11" width="14" height="2"/><rect class="cls-1" x="7" y="16" width="14" height="2"/><path class="cls-1" d="M12.47,24H23V22H4V8H24v3h2V8a2,2,0,0,0-2-2H4A2,2,0,0,0,2,8V22a2,2,0,0,0,2,2h8.47Z"/><polygon class="cls-2" points="28 25 28 19 28 17 26 17 24 17 24 19 26 19 26 25 24 25 24 27 30 27 30 25 28 25"/><rect class="cls-2" x="26" y="13" width="2" height="2"/></g></svg>