<svg xmlns="http://www.w3.org/2000/svg" viewBox="0 0 32 32"><defs><style>.cls-1{fill:#f15a29;}.cls-2{fill:#211c1b;}</style></defs><g id="icons_copy" data-name="icons copy"><path class="cls-1" d="M11,21H3a1,1,0,0,1-1-1V3A1,1,0,0,1,3,2H25a1,1,0,0,1,1,1V6.5H24V4H4V19h7Z"/><path class="cls-2" d="M28,8H20.25a2,2,0,0,0-1.42.59l-5.24,5.24A2,2,0,0,0,13,15.24V28a2,2,0,0,0,2,2H28a2,2,0,0,0,2-2V10A2,2,0,0,0,28,8Zm-9,3.25V14H16.24ZM15,28V16h4a2,2,0,0,0,2-2V10h7V28Z"/><rect class="cls-2" x="21" y="19" width="5" height="2"/><rect class="cls-2" x="17" y="19" width="2" height="2"/><rect class="cls-2" x="21" y="23" width="5" height="2"/><rect class="cls-2" x="17" y="23" width="2" height="2"/><rect class="cls-2" x="23" y="13" width="3" height="2"/><rect class="cls-1" x="6" y="6" width="11" height="2"/><rect class="cls-1" x="6" y="10" width="7" height="2"/><rect class="cls-1" x="6" y="14" width="5" height="2"/><rect class="cls-1" x="3" y="23" width="8" height="2"/><rect class="cls-1" x="3" y="27" width="8" height="2"/></g></svg>