<svg xmlns="http://www.w3.org/2000/svg" viewBox="0 0 32 32"><defs><style>.cls-1{fill:#f15a29;}.cls-2{fill:#211c1b;}</style></defs><g id="icons_copy" data-name="icons copy"><path class="cls-1" d="M24,5H4A2,2,0,0,0,2,7V19a2,2,0,0,0,2,2H6v5a1,1,0,0,0,.7.95A1,1,0,0,0,7,27a1,1,0,0,0,.81-.42l4-5.59H14l-.35-.36a2.09,2.09,0,0,1-.47-.8L13,19H11.29a1,1,0,0,0-.81.42L8,22.89V20a1,1,0,0,0-1-1H4V7H24V17.67l1.83,1.89A1,1,0,0,0,26,19V7A2,2,0,0,0,24,5Z"/><rect class="cls-2" x="6" y="9" width="16" height="2"/><rect class="cls-2" x="6" y="13" width="6" height="2"/><path class="cls-2" d="M28.79,25.07l-9-9.35a1,1,0,0,0-.4-.25L15.12,14a1,1,0,0,0-1,.22,1,1,0,0,0-.26,1l1.33,4.28a1,1,0,0,0,.24.4l9,9.35a2.07,2.07,0,0,0,1.49.65,1.71,1.71,0,0,0,1.2-.48l1.75-1.7a1.72,1.72,0,0,0,.5-1.41A2.07,2.07,0,0,0,28.79,25.07ZM16.34,16.55l2.15.73,5.38,5.58L22.4,24.29,17,18.72Zm9.54,11.34-2.09-2.16,1.47-1.43,2.09,2.17Z"/></g></svg>