<svg xmlns="http://www.w3.org/2000/svg" viewBox="0 0 32 32"><defs><style>.cls-1{fill:#f15a29;}.cls-2{fill:#211c1b;}</style></defs><g id="icons_copy" data-name="icons copy"><path class="cls-1" d="M20,2H10.56a2,2,0,0,0-1.41.59L2.59,9.15A2,2,0,0,0,2,10.56V25a2,2,0,0,0,2,2H17V25H4V12H9a2,2,0,0,0,2-2V4h9V15h2V4A2,2,0,0,0,20,2ZM4.56,10,9,5.56V10Z"/><polygon class="cls-2" points="18 16 14 16 14 12 12 12 12 16 8 16 8 18 12 18 12 22 14 22 14 18 18 18 18 16"/><path class="cls-2" d="M28,22V20.5a3.5,3.5,0,0,0-7,0V22a2,2,0,0,0-2,2v4a2,2,0,0,0,2,2h7a2,2,0,0,0,2-2V24A2,2,0,0,0,28,22Zm-5-1.5a1.5,1.5,0,0,1,3,0V22H23ZM21,28V24h7v4Z"/></g></svg>