<svg xmlns="http://www.w3.org/2000/svg" viewBox="0 0 32 32"><defs><style>.cls-1{fill:#f15a29;}.cls-2{fill:#211c1b;}</style></defs><g id="icons_copy" data-name="icons copy"><path class="cls-1" d="M23,2H5A3,3,0,0,0,2,5V16a3,3,0,0,0,3,3h9V17H5a1,1,0,0,1-1-1V5S4,5,4,5l8.38,5.31a2.93,2.93,0,0,0,1.61.47,3,3,0,0,0,1.61-.46L24,5s0,0,0,0v5h2V5A3,3,0,0,0,23,2ZM14.53,8.58a1,1,0,0,1-1.07,0L6.24,4H21.76Z"/><path class="cls-2" d="M13.81,27,11,24.19V26H7a1,1,0,0,1-1-1V21H4v4a3,3,0,0,0,3,3h4v1.81Z"/><path class="cls-2" d="M29.41,17.59l-5-5A2,2,0,0,0,23,12H18a2,2,0,0,0-2,2V28a2,2,0,0,0,2,2H28a2,2,0,0,0,2-2V19A2,2,0,0,0,29.41,17.59ZM24,15l3,3H24ZM18,28V14h4v4a2,2,0,0,0,2,2h4v8Z"/></g></svg>