<svg xmlns="http://www.w3.org/2000/svg" viewBox="0 0 32 32"><defs><style>.cls-1{fill:#211c1b;}.cls-2{fill:#f15a29;}</style></defs><g id="icons_copy" data-name="icons copy"><path class="cls-1" d="M20.53,30.21a7.54,7.54,0,0,1-5.93-3.56,10.58,10.58,0,0,1-1-1.71A38.33,38.33,0,0,1,11.17,15l-.25-1.58a3,3,0,0,1,1.25-2.77,2.74,2.74,0,0,1,2.71-.52c4.46,1.94,7.31,2,11.3.2h0a2.6,2.6,0,0,1,2.63.43A2.87,2.87,0,0,1,30,13.49c-.08.5-.16,1-.23,1.51A42.43,42.43,0,0,1,28,23c-.64,1.82-2.15,5.09-5,6.62A5.22,5.22,0,0,1,20.53,30.21ZM14,12a1.25,1.25,0,0,0-.68.3,1.07,1.07,0,0,0-.46.85l.25,1.59a36.42,36.42,0,0,0,2.32,9.38,9.87,9.87,0,0,0,.79,1.42c1.32,2,3.74,3.39,5.82,2.27,1.64-.88,3.12-2.9,4.06-5.53a41,41,0,0,0,1.62-7.57c.08-.52.15-1,.23-1.53a.9.9,0,0,0-.39-.79.69.69,0,0,0-.6-.19c-4.53,2-7.91,2-12.91-.2Z"/><path class="cls-1" d="M15.46,18.72a1,1,0,0,1-.85-.47,1,1,0,0,1,.3-1.37,4.57,4.57,0,0,1,4.25-.34,1,1,0,0,1,.44,1.34,1,1,0,0,1-1.35.44,2.59,2.59,0,0,0-2.26.25A1,1,0,0,1,15.46,18.72Z"/><path class="cls-1" d="M25.48,18.65a1,1,0,0,1-.59-.19,2.23,2.23,0,0,0-2.28,0,1,1,0,0,1-.88-1.8,4.2,4.2,0,0,1,4.33.18,1,1,0,0,1,.23,1.39A1,1,0,0,1,25.48,18.65Z"/><path class="cls-1" d="M20.58,24.86a4.85,4.85,0,0,1-3-1.17,1,1,0,1,1,1.23-1.57,2.44,2.44,0,0,0,3.48,0,1,1,0,0,1,1.26,1.55A4.71,4.71,0,0,1,20.58,24.86Z"/><path class="cls-2" d="M12,26H3a1,1,0,0,1-1-1V3A1,1,0,0,1,3,2H16.54a1,1,0,0,1,.71.29l4.46,4.46a1,1,0,0,1,.29.71V10H20V7.87L16.13,4H4V24h8Z"/><rect class="cls-2" x="7" y="6" width="8" height="2"/><rect class="cls-2" x="6" y="11" width="3" height="2"/><rect class="cls-2" x="6" y="15" width="3" height="2"/><rect class="cls-2" x="6" y="19" width="4" height="2"/></g></svg>