<svg xmlns="http://www.w3.org/2000/svg" viewBox="0 0 32 32"><defs><style>.cls-1{fill:#f15a29;}.cls-2{fill:#211c1b;}</style></defs><g id="icons_copy" data-name="icons copy"><path class="cls-1" d="M12.43,16.77A3.65,3.65,0,1,0,15,23V17.83A3.64,3.64,0,0,0,12.43,16.77Zm0,5.29a1.65,1.65,0,1,1,1.65-1.64A1.64,1.64,0,0,1,12.43,22.06Z"/><path class="cls-1" d="M17,28v2H15V28a1,1,0,0,0-1-1H11a1,1,0,0,0-1,1v2H8V28a3,3,0,0,1,3-3h3a2.69,2.69,0,0,1,.57.06A3,3,0,0,1,17,28Z"/><path class="cls-1" d="M19.5.85A4.5,4.5,0,1,0,24,5.35,4.51,4.51,0,0,0,19.5.85Zm0,7A2.5,2.5,0,1,1,22,5.35,2.5,2.5,0,0,1,19.5,7.85Z"/><path class="cls-1" d="M8.28,3.29a4.28,4.28,0,1,0,4.28,4.28A4.28,4.28,0,0,0,8.28,3.29Zm0,6.56a2.28,2.28,0,1,1,2.28-2.28A2.28,2.28,0,0,1,8.28,9.85Z"/><path class="cls-1" d="M23.86,10v2H16a1,1,0,0,0-1,1v3a4.78,4.78,0,0,0-2-.66V15a1,1,0,0,0-1-1H5a1,1,0,0,0-1,1v6H7.36A4.94,4.94,0,0,0,8,23H6v7H4V23H3a1,1,0,0,1-1-1V15a3,3,0,0,1,3-3h7a3,3,0,0,1,1.12.22A3,3,0,0,1,16,10Z"/><path class="cls-2" d="M21,25a1,1,0,0,1-1-1V19.16l-.41.36A1,1,0,1,1,18.28,18l2-1.76A1,1,0,0,1,21,16a1,1,0,0,1,1,1v7A1,1,0,0,1,21,25Z"/><path class="cls-2" d="M29.77,20.18H25.26a1,1,0,0,1-1-1,1.14,1.14,0,0,1,.27-.74l1.53-1.6c.71-.74,1.9-2,1.9-2.93,0-.35-.11-.76-.65-.76s-.83.55-.92.87a1,1,0,1,1-1.93-.52,2.94,2.94,0,0,1,2.85-2.35A2.61,2.61,0,0,1,30,13.91c0,1.74-1.43,3.25-2.41,4.27h2.22a1,1,0,1,1,0,2Zm-4.51-1.05h0Z"/><path class="cls-2" d="M27.07,30.21a2.77,2.77,0,0,1-2.79-2,1,1,0,0,1,1.95-.45c.05.23.34.48.84.48a.83.83,0,0,0,.92-.86c0-.74-.65-.85-1-.85h-.23a1,1,0,0,1,0-2H27c.93,0,.93-.49.93-.65,0-.57-.38-.65-.71-.65a.9.9,0,0,0-.89.51,1,1,0,0,1-1.36.41,1,1,0,0,1-.41-1.35,2.9,2.9,0,0,1,2.66-1.57,2.66,2.66,0,0,1,2.14,4.3A2.79,2.79,0,0,1,30,27.35,2.83,2.83,0,0,1,27.07,30.21Z"/></g></svg>