<svg xmlns="http://www.w3.org/2000/svg" viewBox="0 0 32 32"><defs><style>.cls-1{fill:#fff;}</style></defs><g id="icons_copy" data-name="icons copy"><rect class="cls-1" x="9" y="10" width="9" height="2"/><rect class="cls-1" x="8" y="15" width="10" height="2"/><rect class="cls-1" x="8" y="20" width="4" height="2"/><path class="cls-1" d="M8.4,3.59,3.59,8.4A2,2,0,0,0,3,9.82V26a2,2,0,0,0,2,2h7V26H5V9.82L9.82,5H21v7h2V5a2,2,0,0,0-2-2H9.82A2,2,0,0,0,8.4,3.59Z"/><polygon class="cls-1" points="29 22 23 22 23 16 21 16 21 22 15 22 15 24 21 24 21 30 23 30 23 24 29 24 29 22"/></g></svg>