<svg xmlns="http://www.w3.org/2000/svg" viewBox="0 0 32 32"><defs><style>.cls-1{fill:#fff;}</style></defs><g id="icons_copy" data-name="icons copy"><path class="cls-1" d="M14.53,25V23H5a1,1,0,0,1-1-1V11.08l9.13,7.3a3,3,0,0,0,3.74,0L26,11.08v3.6h2V10a3,3,0,0,0-3-3H5a3,3,0,0,0-3,3V22a3,3,0,0,0,3,3ZM25,9a1.13,1.13,0,0,1,.32.06l-9.7,7.76a1,1,0,0,1-1.24,0L4.68,9.06A1.13,1.13,0,0,1,5,9Z"/><polygon class="cls-1" points="25 17 23 17 23 22 18 22 18 24 23 24 23 29 25 29 25 24 30 24 30 22 25 22 25 17"/></g></svg>