<svg xmlns="http://www.w3.org/2000/svg" viewBox="0 0 32 32"><defs><style>.cls-1{fill:#231f20;}.cls-2{fill:#f15a29;}</style></defs><g id="exp"><path class="cls-1" d="M13,15H5a2,2,0,0,1-2-2V7A2,2,0,0,1,5,5h8a2,2,0,0,1,2,2v6A2,2,0,0,1,13,15ZM5,7v6h8V7Z"/><path class="cls-2" d="M27,15H19a2,2,0,0,1-2-2V7a2,2,0,0,1,2-2h8a2,2,0,0,1,2,2v6A2,2,0,0,1,27,15ZM19,7v6h8V7Z"/><path class="cls-2" d="M13,27H5a2,2,0,0,1-2-2V19a2,2,0,0,1,2-2h8a2,2,0,0,1,2,2v6A2,2,0,0,1,13,27ZM5,19v6h8V19Z"/><path class="cls-1" d="M27,27H19a2,2,0,0,1-2-2V19a2,2,0,0,1,2-2h8a2,2,0,0,1,2,2v6A2,2,0,0,1,27,27Zm-8-8v6h8V19Z"/></g></svg>