<svg xmlns="http://www.w3.org/2000/svg" viewBox="0 0 32 32"><defs><style>.cls-1{fill:#211c1b;}.cls-2{fill:#f15a29;}</style></defs><g id="icons_copy" data-name="icons copy"><path class="cls-1" d="M16.86,17.25h-2a1.25,1.25,0,0,1,0-2.5h2A1.25,1.25,0,0,1,18.11,16h1.5a2.75,2.75,0,0,0-2.75-2.75h-.11V12h-1.5v1.25h-.39a2.75,2.75,0,0,0,0,5.5h2a1.25,1.25,0,0,1,0,2.5h-2A1.25,1.25,0,0,1,13.61,20h-1.5a2.75,2.75,0,0,0,2.75,2.75h.39V23h1.5v-.25h.11a2.75,2.75,0,0,0,0-5.5Z"/><rect class="cls-1" x="12" y="25" width="7" height="2"/><path class="cls-1" d="M9.62,23a8,8,0,1,1,14.24-5,7.91,7.91,0,0,1-1.77,5h2.42a10,10,0,1,0-17.3,0Z"/><path class="cls-2" d="M30,29H28V23H4v6H2V22a1,1,0,0,1,1-1H29a1,1,0,0,1,1,1Z"/><rect class="cls-1" x="15" y="2" width="2" height="3"/><rect class="cls-1" x="22" y="3" width="2" height="4"/><rect class="cls-1" x="8" y="4" width="2" height="3"/></g></svg>