<svg xmlns="http://www.w3.org/2000/svg" viewBox="0 0 32 32"><defs><style>.cls-1{fill:#f15a29;}.cls-2{fill:#211c1b;}</style></defs><g id="icons_copy" data-name="icons copy"><path class="cls-1" d="M20.5,23.9l-1-1.74a12.68,12.68,0,0,0,4.07-4,41.6,41.6,0,0,0,3.64-7.43l.66-1.58A1.3,1.3,0,0,0,27.81,8a.52.52,0,0,0-.44-.26c-5.31.17-10-.39-15.46-3.68a.35.35,0,0,0-.4,0,1.35,1.35,0,0,0-.65,1.09c0,.37,0,.71-.07,1l0,.5c-.09,1.43-.19,2.91-.23,4.35l-2,0c0-1.49.14-3,.24-4.45l0-.49c0-.35,0-.71.07-1.07a3.35,3.35,0,0,1,1.72-2.71,2.37,2.37,0,0,1,2.36,0C18,5.35,22.21,5.86,27.32,5.69a2.52,2.52,0,0,1,2.15,1.13A3.33,3.33,0,0,1,29.73,10c-.22.51-.43,1-.65,1.56a42.94,42.94,0,0,1-3.83,7.79A14.68,14.68,0,0,1,20.5,23.9Z"/><path class="cls-2" d="M12.9,30.21a8.6,8.6,0,0,1-6.64-3.75,12,12,0,0,1-1.08-1.83C3.56,21.28,3,17.6,2.36,14.05l-.29-1.71a3,3,0,0,1,1.25-2.8,3.13,3.13,0,0,1,3.06-.66C11.52,11,14.81,11,19.43,9.1h0a2.94,2.94,0,0,1,2.94.53,2.92,2.92,0,0,1,1.16,2.75c-.09.53-.18,1.07-.26,1.62a43.22,43.22,0,0,1-2,8.5c-.73,1.94-2.44,5.43-5.66,7.05A6.11,6.11,0,0,1,12.9,30.21ZM5.49,10.71a1.65,1.65,0,0,0-.92.39,1.11,1.11,0,0,0-.52.91l.28,1.71c.57,3.41,1.16,7,2.65,10a10.38,10.38,0,0,0,.91,1.54c1.54,2.16,4.4,3.71,6.86,2.46a10.8,10.8,0,0,0,4.69-6,41,41,0,0,0,1.85-8.11c.09-.55.17-1.09.27-1.63a1,1,0,0,0-.43-.85,1.08,1.08,0,0,0-.93-.26h0c-5.12,2.15-8.93,2.1-14.58-.21Z"/><path class="cls-2" d="M7.11,17.91a1,1,0,0,1-.52-1.86c.11-.06,2.82-1.66,5.2-.05a1,1,0,0,1-1.13,1.66c-1.31-.89-3,.1-3,.11A1.06,1.06,0,0,1,7.11,17.91Z"/><path class="cls-2" d="M14.43,17.91a1,1,0,0,1-.52-1.86c.11-.07,2.82-1.66,5.2-.05A1,1,0,0,1,18,17.66c-1.31-.89-3,.1-3,.11A1.06,1.06,0,0,1,14.43,17.91Z"/><path class="cls-2" d="M13,24.47a5.62,5.62,0,0,1-3.32-1.2,1,1,0,0,1,1.19-1.62,3.1,3.1,0,0,0,4.19,0,1,1,0,1,1,1.21,1.58A5.3,5.3,0,0,1,13,24.47Z"/></g></svg>