<svg xmlns="http://www.w3.org/2000/svg" viewBox="0 0 32 32"><defs><style>.cls-1{fill:#fff;}</style></defs><g id="icons_copy" data-name="icons copy"><path class="cls-1" d="M17.12,29.79a1,1,0,0,0,1.3-.56l1-2.56h6.64l1,2.55a1,1,0,0,0,.93.64.89.89,0,0,0,.36-.07,1,1,0,0,0,.57-1.3L23.75,15.26a1.11,1.11,0,0,0-1-.64,1,1,0,0,0-.93.63L16.56,28.49A1,1,0,0,0,17.12,29.79Zm5.66-11.54,2.51,6.42H20.23Z"/><path class="cls-1" d="M4.74,17A1,1,0,0,0,4,18.14a1,1,0,0,0,1,.79.75.75,0,0,0,.21,0,12.76,12.76,0,0,0,5.21-2.3,12.87,12.87,0,0,0,5.22,2.3.71.71,0,0,0,.2,0A1,1,0,0,0,16,17a11,11,0,0,1-4.1-1.71A15.56,15.56,0,0,0,15.71,7H18a1,1,0,0,0,0-2H11.62L10.38,2.48a1,1,0,0,0-1.8.89L9.39,5H3A1,1,0,0,0,3,7H5a15.5,15.5,0,0,0,3.81,8.23A10.84,10.84,0,0,1,4.74,17ZM7,7h6.66a13.15,13.15,0,0,1-3.35,6.94A12.91,12.91,0,0,1,7,7Z"/></g></svg>