<svg xmlns="http://www.w3.org/2000/svg" viewBox="0 0 32 32"><defs><style>.cls-1{fill:#f15a29;}.cls-2{fill:#211c1b;}</style></defs><g id="icons_copy" data-name="icons copy"><path class="cls-1" d="M27.5,27.86a1,1,0,0,1-.94-.64l-1-2.7h-7l-1.07,2.71a1,1,0,1,1-1.86-.74l5.5-13.86A1,1,0,0,1,22,12a1.12,1.12,0,0,1,1,.64l5.42,13.85a1,1,0,0,1-.57,1.3A.92.92,0,0,1,27.5,27.86Zm-8.21-5.34h5.44L22,15.62Z"/><path class="cls-2" d="M16.56,18.56a10.73,10.73,0,0,1-2.67-1.32A15.56,15.56,0,0,0,17.71,9H20a1,1,0,0,0,0-2H13.62L12.38,4.48a1,1,0,0,0-1.8.89L11.39,7H5A1,1,0,0,0,5,9H7a15.48,15.48,0,0,0,3.82,8.24A11.12,11.12,0,0,1,6.74,19,1,1,0,0,0,6,20.14a1,1,0,0,0,1,.79.75.75,0,0,0,.21,0,12.76,12.76,0,0,0,5.21-2.3,12.43,12.43,0,0,0,3.46,1.81ZM9,9H15.7a12.9,12.9,0,0,1-3.34,7A12.94,12.94,0,0,1,9,9Z"/></g></svg>