<svg xmlns="http://www.w3.org/2000/svg" viewBox="0 0 32 32"><defs><style>.cls-1{fill:#211c1b;}.cls-2{fill:#f15a29;}</style></defs><g id="icons_copy" data-name="icons copy"><circle class="cls-1" cx="23" cy="11.5" r="2.5"/><path class="cls-1" d="M29.3,20.61l-2.61-3.79a3.63,3.63,0,0,0-1.44-1.51,16.36,16.36,0,0,0-4-.14c-1.12.24-1.64,1.47-2.26,2.44l-1.92,3a1.3,1.3,0,0,0,.22,1.63.91.91,0,0,0,.59.23,1,1,0,0,0,.81-.48l1.57-2.53L18.7,25H20v4.11a1,1,0,1,0,2,0V25h2v4.11a1,1,0,1,0,2,0V25h1.3l-1.5-5.5,1.94,2.57a.93.93,0,0,0,.78.44.91.91,0,0,0,.62-.26A1.31,1.31,0,0,0,29.3,20.61Z"/><rect class="cls-2" x="11" y="13" width="7" height="2"/><rect class="cls-2" x="7" y="13" width="2" height="2"/><rect class="cls-2" x="7" y="17" width="2" height="2"/><rect class="cls-2" x="7" y="21" width="2" height="2"/><rect class="cls-2" x="11" y="17" width="5" height="2"/><rect class="cls-2" x="11" y="21" width="4" height="2"/><rect class="cls-2" x="14" y="6" width="6" height="2"/><path class="cls-2" d="M22,2H10.91a2,2,0,0,0-1.41.59L3.59,8.5A2,2,0,0,0,3,9.91V26a2,2,0,0,0,2,2H17V26H5V11h5a2,2,0,0,0,2-2V4H22V7h2V4A2,2,0,0,0,22,2ZM5.91,9,10,4.91V9Z"/></g></svg>