<?xml version="1.0" encoding="utf-8"?>
<!-- Generator: Adobe Illustrator 26.0.0, SVG Export Plug-In . SVG Version: 6.00 Build 0)  -->
<svg version="1.1" id="Layer_1" xmlns="http://www.w3.org/2000/svg" xmlns:xlink="http://www.w3.org/1999/xlink" x="0px" y="0px"
	 viewBox="0 0 32 32" style="enable-background:new 0 0 32 32;" xml:space="preserve">
<style type="text/css">
	.st0{fill:#F15A29;}
	.st1{fill:#211C1B;}
</style>
<g id="icons_copy">
	<path class="st0" d="M23,9v7.8l-0.2-0.2L21,18.4V9c0-0.5-0.5-1-1-1H6C5.5,8,5,8.5,5,9v11c0,0.5,0.5,1,1,1h12.4l-2,2H6
		c-1.7,0-3-1.3-3-3V9c0-1.7,1.3-3,3-3h14C21.7,6,23,7.3,23,9z"/>
	<rect x="4" y="11" class="st0" width="18" height="2"/>
	<rect x="16" y="4" class="st0" width="2" height="5"/>
	<rect x="8" y="4" class="st0" width="2" height="5"/>
	<path class="st1" d="M29.3,13.7L27.6,12c-0.4-0.4-0.9-0.5-1.4-0.5c-0.5,0.1-0.9,0.3-1.3,0.6l-2,2l-2,2L16.1,21l-1.7,1.7
		c-0.1,0.1-0.1,0.2-0.2,0.3c0,0,0,0.1-0.1,0.1l-1.4,4.2c-0.2,0.5,0.1,1.1,0.6,1.3c0.1,0,0.2,0,0.3,0s0.2,0,0.3-0.1l4.2-1.4
		c0.1,0,0.3-0.1,0.4-0.2l10.6-10.6c0.3-0.3,0.6-0.8,0.6-1.3C29.9,14.6,29.7,14.1,29.3,13.7z M17.3,25.4l-2.1,0.7l0.7-2.1l1-1l2-2
		l2.1-2.1l1.8-1.8l0.2,0.2l1.2,1.2L17.3,25.4z M25.7,17.1l-1.4-1.4l2.1-2.1l1.4,1.4L25.7,17.1z"/>
	<rect x="8" y="16" class="st0" width="3" height="2"/>
	<rect x="14" y="16" class="st0" width="3" height="2"/>
</g>
</svg>
