<svg xmlns="http://www.w3.org/2000/svg" viewBox="0 0 32 32"><defs><style>.cls-1{fill:#211c1b;}.cls-2{fill:#f15a29;}</style></defs><g id="exp"><path class="cls-1" d="M11.26,13.46a5.34,5.34,0,0,1,0-10.67h0a5.34,5.34,0,0,1,0,10.67Zm0-8.67a3.34,3.34,0,1,0,3.33,3.33,3.33,3.33,0,0,0-3.33-3.33Z"/><path class="cls-2" d="M27,21H23a1,1,0,0,1-1-1V19a1,1,0,0,1,1-1h4a1,1,0,0,1,1,1h2a3,3,0,0,0-3-3H26V14H24v2H23a3,3,0,0,0-3,3v1a3,3,0,0,0,3,3h4a1,1,0,0,1,1,1v1a1,1,0,0,1-1,1H23a1,1,0,0,1-1-1H20a3,3,0,0,0,3,3h1v2h2V28h1a3,3,0,0,0,3-3V24A3,3,0,0,0,27,21Z"/><rect class="cls-2" x="20" y="6" width="2" height="5"/><rect class="cls-2" x="24" y="2" width="2" height="5"/><rect class="cls-2" x="28" y="8" width="2" height="4"/><rect class="cls-2" x="12" y="28" width="7" height="2"/><path class="cls-1" d="M18,22H4v-1.7c0-2.38,5-3.84,7.79-3.84A13.29,13.29,0,0,1,18,18.11l.1.06a5.11,5.11,0,0,1,.75-1.87,15.4,15.4,0,0,0-7-1.83C8.38,14.47,2,16.19,2,20.31v1.84a1.83,1.83,0,0,0,.59,1.33A1.92,1.92,0,0,0,3.92,24H18Z"/></g></svg>