<svg xmlns="http://www.w3.org/2000/svg" viewBox="0 0 32 32"><defs><style>.cls-1{fill:#f15a29;}.cls-2{fill:#211c1b;}</style></defs><g id="icons_copy" data-name="icons copy"><path class="cls-1" d="M13,26H10a2,2,0,0,1-2-2V7a2,2,0,0,1,2-2H22a2,2,0,0,1,2,2V9H22V7H10V24h3Z"/><path class="cls-1" d="M9,23H6a2,2,0,0,1-2-2V4A2,2,0,0,1,6,2H18a2,2,0,0,1,2,2V6H18V4H6V21H9Z"/><path class="cls-2" d="M26,29H14a2,2,0,0,1-2-2V10a2,2,0,0,1,2-2H26a2,2,0,0,1,2,2V27A2,2,0,0,1,26,29ZM14,10V27H26V10Z"/><rect class="cls-2" x="16" y="13" width="8" height="2"/><rect class="cls-2" x="16" y="17" width="8" height="2"/><rect class="cls-2" x="16" y="21" width="8" height="2"/></g></svg>