<svg xmlns="http://www.w3.org/2000/svg" viewBox="0 0 32 32"><defs><style>.cls-1{fill:#f15a29;}.cls-2{fill:#211c1b;}</style></defs><g id="icons_copy" data-name="icons copy"><rect class="cls-1" x="6.05" y="11.93" width="5.52" height="1.5" transform="translate(-6.39 9.94) rotate(-45)"/><rect class="cls-1" x="8.17" y="14.05" width="5.52" height="1.5" transform="translate(-7.27 12.06) rotate(-45)"/><rect class="cls-1" x="10.29" y="16.17" width="5.52" height="1.5" transform="translate(-8.14 14.18) rotate(-45)"/><rect class="cls-1" x="12.41" y="18.29" width="5.52" height="1.5" transform="translate(-9.02 16.3) rotate(-45)"/><rect class="cls-1" x="14.53" y="20.42" width="5.52" height="1.5" transform="translate(-9.9 18.43) rotate(-45)"/><path class="cls-1" d="M22.06,30.58a.71.71,0,0,1-.53-.22.74.74,0,0,1,0-1.06l7.77-7.77a.75.75,0,0,1,1.06,1.06l-7.77,7.77A.74.74,0,0,1,22.06,30.58Z"/><path class="cls-1" d="M23.85,29.1l-4.6-4.59,5.26-5.26,4.59,4.6Zm-2.48-4.59L23.85,27,27,23.85l-2.47-2.48Z"/><path class="cls-2" d="M28.24,16.58a.74.74,0,0,0-1.06,0l-.88.88L13.39,4.56a1.78,1.78,0,0,0-2.47,0L8.8,6.68l-.89-.89-.58.58L2.2,1.61a.42.42,0,0,0-.59.59L6.37,7.33l-.58.58.89.89L4.56,10.92a1.73,1.73,0,0,0,0,2.47L17.46,26.3l-.88.88a.74.74,0,0,0,0,1.06.71.71,0,0,0,.53.22.74.74,0,0,0,.53-.22l.88-.88,8.84-8.84.88-.88A.74.74,0,0,0,28.24,16.58Zm-9.72,8.66L5.62,12.33a.22.22,0,0,1-.08-.17A.24.24,0,0,1,5.62,12L8.75,8.85l.1-.1L12,5.62a.24.24,0,0,1,.18-.08.22.22,0,0,1,.17.08l12.91,12.9Z"/></g></svg>