<svg xmlns="http://www.w3.org/2000/svg" viewBox="0 0 32 32"><defs><style>.cls-1{fill:#f15a29;}.cls-2{fill:#211c1b;}</style></defs><g id="icons_copy" data-name="icons copy"><path class="cls-1" d="M4,28a1,1,0,0,1-1-1V4a1,1,0,0,1,1.66-.75L6.25,4.66,7.83,3.25a1,1,0,0,1,1.33,0l1.58,1.41,1.59-1.41a1,1,0,0,1,1.32,0l1.59,1.41,1.59-1.41a1,1,0,0,1,1.32,0l1.6,1.41,1.59-1.41A1,1,0,0,1,23,4v8H21V6.22l-.59.53a1,1,0,0,1-1.33,0L17.49,5.34,15.9,6.75a1,1,0,0,1-1.32,0L13,5.34,11.4,6.75a1,1,0,0,1-1.33,0L8.49,5.34,6.91,6.75a1,1,0,0,1-1.33,0L5,6.23V25l1.17-.85a1,1,0,0,1,1.17,0L9.5,25.76l2.17-1.57a1,1,0,0,1,1.17,0L15,25.76l2.17-1.57,1.17,1.62-2.75,2a1,1,0,0,1-1.18,0l-2.17-1.57-2.16,1.57a1,1,0,0,1-1.18,0L6.75,26.24,4.59,27.81A1,1,0,0,1,4,28Z"/><rect class="cls-2" x="7" y="10" width="12" height="2"/><rect class="cls-2" x="7" y="15" width="3" height="2"/><rect class="cls-2" x="7" y="19" width="3" height="2"/><rect class="cls-2" x="12" y="15" width="6" height="2"/><rect class="cls-2" x="12" y="19" width="6" height="2"/><path class="cls-2" d="M27,20H23a1,1,0,0,1-1-1V18a1,1,0,0,1,1-1h4a1,1,0,0,1,1,1h2a3,3,0,0,0-3-3H26V13H24v2H23a3,3,0,0,0-3,3v1a3,3,0,0,0,3,3h4a1,1,0,0,1,1,1v1a1,1,0,0,1-1,1H23a1,1,0,0,1-1-1H20a3,3,0,0,0,3,3h1v2h2V27h1a3,3,0,0,0,3-3V23A3,3,0,0,0,27,20Z"/></g></svg>