<svg xmlns="http://www.w3.org/2000/svg" viewBox="0 0 32 32"><defs><style>.cls-1{fill:#211c1b;}.cls-2{fill:#f15a29;}</style></defs><g id="icons_copy" data-name="icons copy"><rect class="cls-1" x="12" y="11" width="8" height="2"/><rect class="cls-1" x="8" y="11" width="2" height="2"/><rect class="cls-1" x="12" y="15" width="5" height="2"/><rect class="cls-1" x="8" y="15" width="2" height="2"/><rect class="cls-1" x="12" y="19" width="5" height="2"/><rect class="cls-1" x="8" y="19" width="2" height="2"/><path class="cls-1" d="M23,22.29a4,4,0,0,1,0-7.9h0a3.95,3.95,0,1,1,0,7.9Zm0-5.9A1.95,1.95,0,1,0,25,18.34,2,2,0,0,0,23,16.39Z"/><path class="cls-1" d="M17,30.14a1,1,0,0,1-1-1v-.93c0-3.2,4.56-4.53,7-4.53s7,1.33,7,4.53v.9a1,1,0,0,1-1,1l-12,0Zm6-4.46c-1.69,0-4.89.95-5,2.45H28C27.87,26.63,24.68,25.68,23,25.68Z"/><path class="cls-2" d="M22,4H20a2,2,0,0,0-2-2H10A2,2,0,0,0,8,4H6A2,2,0,0,0,4,6V28a2,2,0,0,0,2,2h6V28H6V6H8V7A1,1,0,0,0,9,8H19a1,1,0,0,0,1-1V6h2v6h2V6A2,2,0,0,0,22,4ZM18,6H10V4h8Z"/><rect class="cls-1" x="12" y="11" width="8" height="2"/><rect class="cls-1" x="8" y="11" width="2" height="2"/><rect class="cls-1" x="12" y="15" width="5" height="2"/><rect class="cls-1" x="8" y="15" width="2" height="2"/><rect class="cls-1" x="12" y="19" width="5" height="2"/><rect class="cls-1" x="8" y="19" width="2" height="2"/><rect class="cls-1" x="12" y="23" width="3" height="2"/><rect class="cls-1" x="8" y="23" width="2" height="2"/><rect class="cls-1" x="12" y="23" width="3" height="2"/><rect class="cls-1" x="8" y="23" width="2" height="2"/></g></svg>