<svg xmlns="http://www.w3.org/2000/svg" viewBox="0 0 32 32"><defs><style>.cls-1{fill:#211c1b;}.cls-2{fill:#f15a29;}</style></defs><g id="icons_copy" data-name="icons copy"><polygon class="cls-1" points="22 6 22 8 23.64 8 13.05 19.47 9.08 14.58 2.36 20.23 3.64 21.77 8.81 17.42 12.95 22.53 25 9.47 25 11 27 11 27 6 22 6"/><polygon class="cls-2" points="24 14 24 16 25.69 16 21.06 20.54 9.12 6.6 2.36 12.23 3.64 13.77 8.88 9.4 20.94 23.46 27 17.52 27 19 29 19 29 14 24 14"/><polygon class="cls-1" points="30 30 2 30 2 2 4 2 4 28 30 28 30 30"/></g></svg>