<svg xmlns="http://www.w3.org/2000/svg" viewBox="0 0 32 32"><defs><style>.cls-1{fill:#f15a29;}.cls-2{fill:#fff;}.cls-3{fill:#211c1b;}</style></defs><g id="icons_copy" data-name="icons copy"><path class="cls-1" d="M21,10.78l.76-1.61.61-1.27-1-1-.9-.9-1-1-1.28.61-1.61.76-.14-.06-.59-1.67-.48-1.33H11.26l-.47,1.33-.6,1.67-.14.06L8.44,5.61,7.17,5,4.27,7.9l.61,1.27.76,1.61,0,.14-1.68.59L2.58,12v4.09l1.33.47,1.68.6,0,.14L4.88,18.9l-.61,1.27,1,1,.9.9,1,1,1.27-.61,1.61-.76.14.05.35,1a2.28,2.28,0,0,1,.45-.63L12.06,21l-.21-.58-.13-.22L10,19.51,7.58,20.65l-.89-.89,1.14-2.41-.74-1.79-2.51-.89V13.4l2.51-.9.74-1.78L6.69,8.31l.89-.9L10,8.56l1.79-.74.89-2.51h1.27l.9,2.51,1.78.74L19,7.41l.9.9-1.15,2.41.74,1.78.78.28,1.57-1.56-.84-.3Zm-7.66-.84a4.1,4.1,0,1,0,0,8.19,4,4,0,0,0,2.51-.87,3.57,3.57,0,0,0,.7-.7,4.09,4.09,0,0,0-3.21-6.62Zm0,6.19A2.1,2.1,0,1,1,15.4,14,2.1,2.1,0,0,1,13.31,16.13Zm0-6.19a4.1,4.1,0,1,0,0,8.19,4,4,0,0,0,2.51-.87,3.57,3.57,0,0,0,.7-.7,4.09,4.09,0,0,0-3.21-6.62Zm0,6.19A2.1,2.1,0,1,1,15.4,14,2.1,2.1,0,0,1,13.31,16.13Zm0-6.19a4.1,4.1,0,1,0,0,8.19,4,4,0,0,0,2.51-.87,3.57,3.57,0,0,0,.7-.7,4.09,4.09,0,0,0-3.21-6.62Zm0,6.19A2.1,2.1,0,1,1,15.4,14,2.1,2.1,0,0,1,13.31,16.13Z"/><path class="cls-2" d="M16.52,16.56a3.57,3.57,0,0,1-.7.7Z"/><path class="cls-3" d="M28.52,12.76l-1.69-1.7a1.92,1.92,0,0,0-2.69.15l-12,12a1,1,0,0,0-.24.39l-1.42,4.24a1,1,0,0,0,.95,1.32.91.91,0,0,0,.32-.06L16,27.71a1,1,0,0,0,.39-.24l12-12A2.09,2.09,0,0,0,29,14,1.7,1.7,0,0,0,28.52,12.76ZM15.12,25.89l-2.13.7.71-2.12L22,16.16l1.4,1.41Zm9.73-9.73-1.41-1.41,2.13-2.12L27,14Z"/></g></svg>