<svg xmlns="http://www.w3.org/2000/svg" viewBox="0 0 32 32"><defs><style>.cls-1{fill:#f15a29;}.cls-2{fill:#211c1b;}</style></defs><g id="icons_copy" data-name="icons copy"><path class="cls-1" d="M19,28v1H17V28a1,1,0,0,0-1-1H15l2.08-1.79A3,3,0,0,1,19,28Z"/><polygon class="cls-2" points="20 20 20.08 20 20 20.07 20 20"/><path class="cls-1" d="M26,17.54l2-1.72V21a1,1,0,0,1-1,1H20.81l2.33-2H26Z"/><path class="cls-1" d="M10.79,20.42a3.64,3.64,0,0,0,.51,1.85l1.57-1.35a1.59,1.59,0,0,1-.08-.5,1.65,1.65,0,0,1,1.64-1.65,1.52,1.52,0,0,1,.73.18l1.58-1.36a3.65,3.65,0,0,0-5.95,2.83Z"/><path class="cls-1" d="M21.5,9.85A4.5,4.5,0,1,0,17,5.35,4.51,4.51,0,0,0,21.5,9.85Zm0-7A2.5,2.5,0,1,1,19,5.35,2.5,2.5,0,0,1,21.5,2.85Z"/><path class="cls-1" d="M10.28,11.85A4.28,4.28,0,1,0,6,7.57,4.28,4.28,0,0,0,10.28,11.85Zm0-6.56A2.28,2.28,0,1,1,8,7.57,2.28,2.28,0,0,1,10.28,5.29Z"/><path class="cls-1" d="M18,10a3,3,0,0,0-2.89,2.22A2.93,2.93,0,0,0,14,12H7a3,3,0,0,0-3,3v7a1,1,0,0,0,1,1H6v3.83l2-1.72V23H9V21H6V15a1,1,0,0,1,1-1h7a1,1,0,0,1,1,1v1h2V13a1,1,0,0,1,1-1h5.24l2.27-1.95A2.84,2.84,0,0,0,25,10Z"/><rect class="cls-1" x="23" y="21" width="2" height="8"/><polygon class="cls-2" points="30.02 11.39 28 13.19 26 14.91 20.08 20 20 20.07 17.68 22.06 15.56 23.88 14.26 25 10 28.66 7.56 30.76 6.26 29.24 12.76 23.65 14.63 22.04 16.02 20.85 17.88 19.25 25.82 12.42 27.33 11.12 28.71 9.87 30.02 11.39"/></g></svg>