<svg xmlns="http://www.w3.org/2000/svg" viewBox="0 0 32 32"><defs><style>.cls-1{fill:#f15a29;}.cls-2{fill:#211c1b;}</style></defs><g id="icons_copy" data-name="icons copy"><path class="cls-1" d="M18.49,4.71h0A3.89,3.89,0,1,0,22.36,8.6,3.89,3.89,0,0,0,18.48,4.71Zm0,5.77A1.89,1.89,0,1,1,20.36,8.6,1.89,1.89,0,0,1,18.49,10.48Z"/><path class="cls-1" d="M18.5,13.23c-2.27,0-6.5,1.31-6.5,4.45v.71a1.59,1.59,0,0,0,.48,1.15,1.53,1.53,0,0,0,1.1.46H18c0-.16,0-.32,0-.49A5.4,5.4,0,0,1,18.21,18H14v-.32c0-1.52,2.91-2.45,4.5-2.45a6.16,6.16,0,0,1,1.34.16A5.56,5.56,0,0,1,22,14.21V14A9.35,9.35,0,0,0,18.5,13.23Z"/><path class="cls-1" d="M2.81,20h7.58A3.45,3.45,0,0,1,10,18.39V18H4V15.81c0-1.6,3.42-2.76,5.2-2.76a8.22,8.22,0,0,1,2.71.55,8.23,8.23,0,0,1,1.8-1.21l-.18-.26A10.75,10.75,0,0,0,9.2,11.05c-2.58,0-7.2,1.59-7.2,4.76V19a1,1,0,0,0,.29.71A1.08,1.08,0,0,0,2.81,20Z"/><path class="cls-1" d="M9.2,10a4,4,0,0,1,0-8h0a4,4,0,0,1,0,8Zm0-6a2,2,0,1,0,2,2A2,2,0,0,0,9.2,4Z"/><path class="cls-2" d="M30,20v-.5A3.5,3.5,0,0,0,26.5,16H26V14H24v2h-.5a3.5,3.5,0,0,0,0,7h3a1.5,1.5,0,0,1,0,3h-3A1.5,1.5,0,0,1,22,24.5V24H20v.5A3.5,3.5,0,0,0,23.5,28H24v2h2V28h.5a3.5,3.5,0,0,0,0-7h-3a1.5,1.5,0,0,1,0-3h3A1.5,1.5,0,0,1,28,19.5V20Z"/><rect class="cls-2" x="7" y="23" width="11" height="2"/><rect class="cls-2" x="10" y="27" width="9" height="2"/></g></svg>