<svg xmlns="http://www.w3.org/2000/svg" viewBox="0 0 32 32"><defs><style>.cls-1{fill:#f15a29;}.cls-2{fill:#211c1b;}</style></defs><g id="icons_copy" data-name="icons copy"><path class="cls-1" d="M18.42,7.27,13.73,2.58A2,2,0,0,0,12.32,2H4A2,2,0,0,0,2,4V21a2,2,0,0,0,2,2H8V21H4V4h7V8a2,2,0,0,0,2,2h4v3h2V8.68A2,2,0,0,0,18.42,7.27ZM13,4.68,16.32,8H13Z"/><path class="cls-2" d="M27,15H13a3,3,0,0,0-3,3v9a3,3,0,0,0,3,3H27a3,3,0,0,0,3-3V18A3,3,0,0,0,27,15Zm-.85,2-5.53,4.34a1,1,0,0,1-1.24,0L13.85,17ZM27,28H13a1,1,0,0,1-1-1V18.09l6.15,4.83a3,3,0,0,0,3.7,0L28,18.09V27A1,1,0,0,1,27,28Z"/></g></svg>