<svg xmlns="http://www.w3.org/2000/svg" viewBox="0 0 32 32"><defs><style>.cls-1{fill:#f15a29;}.cls-2{fill:#211c1b;}</style></defs><g id="icons_copy" data-name="icons copy"><polygon class="cls-1" points="14 15 2 15 2 3 10 3 10 5 4 5 4 13 12 13 12 10 14 10 14 15"/><polygon class="cls-2" points="8 12.07 5.18 9.25 6.59 7.83 8 9.24 12.95 4.29 14.36 5.71 8 12.07"/><path class="cls-1" d="M14,29H2V18H14ZM4,27h8V20H4Z"/><rect class="cls-2" x="16" y="7" width="14" height="2"/><rect class="cls-2" x="16" y="11" width="11" height="2"/><rect class="cls-2" x="16" y="21" width="14" height="2"/><rect class="cls-2" x="16" y="25" width="11" height="2"/></g></svg>