<svg xmlns="http://www.w3.org/2000/svg" viewBox="0 0 32 32"><defs><style>.cls-1{fill:#f15a29;}.cls-2{fill:#fff;}.cls-3{fill:#211c1b;}</style></defs><g id="icons_copy" data-name="icons copy"><path class="cls-1" d="M25.59,20.07a2.47,2.47,0,0,1-2,1.05,2.36,2.36,0,0,1-.75-.12h-3.3a25,25,0,0,0,.13-3.78,42.15,42.15,0,0,1-2.83-5.15c.09.3.17.61.25.93H11a10.77,10.77,0,0,1,2.33-5c.23,0,.46,0,.69,0s.46,0,.69,0a8,8,0,0,1,1.36,2A7.13,7.13,0,0,1,15.67,8a7.4,7.4,0,0,1,.22-1.83A11.85,11.85,0,0,0,14,6,12,12,0,1,0,25.88,19.65C25.77,19.81,25.68,20,25.59,20.07ZM10.43,8.67A16.12,16.12,0,0,0,8.93,13H5.35A10.07,10.07,0,0,1,10.43,8.67ZM4,18a10,10,0,0,1,.46-3H8.61a25.62,25.62,0,0,0,0,6H4.46A10,10,0,0,1,4,18Zm1.35,5H8.93a16.33,16.33,0,0,0,1.52,4.34A10.1,10.1,0,0,1,5.35,23Zm9.54,5c-.3,0-.59,0-.89,0s-.46,0-.69,0A11,11,0,0,1,11,23h6.19A10.65,10.65,0,0,1,14.89,28Zm2.63-7h-6.9a24.09,24.09,0,0,1,0-6h6.85A24.1,24.1,0,0,1,17.52,21Zm.27,6.25A16.09,16.09,0,0,0,19.22,23h3.43A10.12,10.12,0,0,1,17.79,27.25Z"/><path class="cls-2" d="M16.82,12.07a14.92,14.92,0,0,1-.77-2A14.76,14.76,0,0,1,16.82,12.07Z"/><path class="cls-3" d="M23.57,19.65a1,1,0,0,1-.81-.43c-.58-.81-5.62-8-5.62-11.24A6.43,6.43,0,0,1,30,8c0,3.23-5,10.43-5.61,11.24A1,1,0,0,1,23.57,19.65Zm0-16.1A4.44,4.44,0,0,0,19.14,8c0,1.71,2.46,5.95,4.43,8.9C25.55,13.93,28,9.69,28,8A4.43,4.43,0,0,0,23.57,3.55Z"/><circle class="cls-3" cx="23.57" cy="7.98" r="1.98"/></g></svg>