<svg xmlns="http://www.w3.org/2000/svg" viewBox="0 0 32 32"><defs><style>.cls-1{fill:#f15a29;}.cls-2{fill:#211c1b;}</style></defs><g id="icons_copy" data-name="icons copy"><path class="cls-1" d="M14.5,18H5a3,3,0,0,1-3-3V6A3,3,0,0,1,5,3H20a3,3,0,0,1,3,3V9.7H21V6a1,1,0,0,0-1-1H5A1,1,0,0,0,4,6v9a1,1,0,0,0,1,1h9.5Z"/><path class="cls-1" d="M12.5,11.61a3,3,0,0,1-1.79-.6L3.09,5.34l1.19-1.6L11.9,9.41a1,1,0,0,0,1.2,0l7.62-5.67,1.19,1.6L14.29,11A3,3,0,0,1,12.5,11.61Z"/><path class="cls-2" d="M29.65,24.31l-.6-.63c-1.12-1.16-1.32-2.3-1.32-4.11V18.51A5.86,5.86,0,0,0,23,12.67V12.2a1,1,0,0,0-2,0v.47a5.86,5.86,0,0,0-4.73,5.84v1.06c0,1.81-.2,2.95-1.32,4.11l-.6.63a1,1,0,0,0-.2,1.08,1,1,0,0,0,.92.61H28.93a1,1,0,0,0,.92-.61A1,1,0,0,0,29.65,24.31ZM17.24,24a7.75,7.75,0,0,0,1-4.43V18.51a3.8,3.8,0,0,1,3.66-3.92h.14a3.8,3.8,0,0,1,3.66,3.92v1.06a7.75,7.75,0,0,0,1,4.43Z"/><path class="cls-2" d="M22,29a2,2,0,0,0,2-2H20A2,2,0,0,0,22,29Z"/><rect class="cls-2" x="9.21" y="20.57" width="2" height="4" transform="translate(-13.79 28.71) rotate(-80)"/><rect class="cls-2" x="8.21" y="26.43" width="4" height="2" transform="translate(-4.61 2.19) rotate(-10.01)"/></g></svg>