<svg xmlns="http://www.w3.org/2000/svg" viewBox="0 0 32 32"><defs><style>.cls-1{fill:#231f20;}.cls-2{fill:#f15a29;}</style></defs><g id="exp"><rect class="cls-1" x="17" y="5" width="13" height="2"/><rect class="cls-1" x="15" y="10" width="7" height="2"/><rect class="cls-2" x="2" y="26" width="7" height="2"/><rect class="cls-2" x="2" y="21" width="4" height="2"/><path class="cls-1" d="M9,9H5A1,1,0,0,1,4,8V7A1,1,0,0,1,5,6H9a1,1,0,0,1,1,1h2A3,3,0,0,0,9,4H8V2H6V4H5A3,3,0,0,0,2,7V8a3,3,0,0,0,3,3H9a1,1,0,0,1,1,1v1a1,1,0,0,1-1,1H5a1,1,0,0,1-1-1H2a3,3,0,0,0,3,3H6v2H8V16H9a3,3,0,0,0,3-3V12A3,3,0,0,0,9,9Z"/><path class="cls-2" d="M16.83,29.77a1.66,1.66,0,0,1-1.19-.49L8.86,22.5a1.69,1.69,0,0,1,0-2.39l2.56-2.56a1.69,1.69,0,0,1,2.39,0l3,3,7.67-7.66a1.66,1.66,0,0,1,1.19-.5h0a1.66,1.66,0,0,1,1.19.5l2.56,2.56a1.69,1.69,0,0,1,0,2.39L18,29.28A1.65,1.65,0,0,1,16.83,29.77Zm-6.34-8.46,6.34,6.33,11-11-2.12-2.12L16.83,23.4l-4.22-4.22Zm15-7Z"/></g></svg>