<svg xmlns="http://www.w3.org/2000/svg" viewBox="0 0 32 32"><defs><style>.cls-1{fill:#211c1b;}.cls-2{fill:#f15a29;}</style></defs><g id="icons_copy" data-name="icons copy"><path class="cls-1" d="M27.2,2H24.8A1.91,1.91,0,0,0,23,4V21a1,1,0,0,0,.11.45l2,4a1,1,0,0,0,1.78,0l2-4A1,1,0,0,0,29,21V4A1.91,1.91,0,0,0,27.2,2ZM27,4V7H25V4ZM26,22.76l-1-2V9h2V20.76Z"/><path class="cls-2" d="M19,3H11.56a2,2,0,0,0-1.41.59L3.59,10.15A2,2,0,0,0,3,11.56V20H5V12h5a2,2,0,0,0,2-2V5h7V24H16v2h3a2,2,0,0,0,2-2V5A2,2,0,0,0,19,3ZM6.56,10,10,6.56V10Z"/><path class="cls-1" d="M13.5,23H7V20.64a.5.5,0,0,0-.82-.38L.92,24.71a.49.49,0,0,0,0,.76l5.26,4.46A.5.5,0,0,0,7,29.54V27h6.5a.5.5,0,0,0,.5-.5v-3A.5.5,0,0,0,13.5,23Z"/><rect class="cls-2" x="7" y="14" width="10" height="2"/><rect class="cls-2" x="9" y="18" width="8" height="2"/></g></svg>