<svg xmlns="http://www.w3.org/2000/svg" viewBox="0 0 32 32"><defs><style>.cls-1{fill:#fff;}</style></defs><g id="icons_copy" data-name="icons copy"><path class="cls-1" d="M30,24V6a1.91,1.91,0,0,0-1.8-2H25.8A1.91,1.91,0,0,0,24,6V24a1,1,0,0,0,.11.45l2,4a1,1,0,0,0,1.78,0l2-4A1,1,0,0,0,30,24ZM28,6V9H26V6ZM27,25.76l-1-2V11h2V23.76Z"/><path class="cls-1" d="M14.85,2.59A2,2,0,0,0,13.44,2H5A2,2,0,0,0,3,4V18H5V4h8V9a2,2,0,0,0,2,2h5V28H17v2h3a2,2,0,0,0,2-2V10.56a2,2,0,0,0-.59-1.41Zm.15,3L18.44,9H15Z"/><path class="cls-1" d="M7,29.54V27h7.5a.5.5,0,0,0,.5-.5v-3a.5.5,0,0,0-.5-.5H7V20.64a.5.5,0,0,0-.82-.38L.92,24.71a.49.49,0,0,0,0,.76l5.26,4.46A.5.5,0,0,0,7,29.54Z"/><rect class="cls-1" x="8" y="14" width="9" height="2"/><rect class="cls-1" x="10" y="18" width="7" height="2"/></g></svg>