<svg xmlns="http://www.w3.org/2000/svg" viewBox="0 0 32 32"><defs><style>.cls-1{fill:#f15a29;}.cls-2{fill:#211c1b;}</style></defs><g id="icons_copy" data-name="icons copy"><path class="cls-1" d="M24.41,8.15,18.85,2.59A2,2,0,0,0,17.44,2H5A2,2,0,0,0,3,4V27a2,2,0,0,0,2,2h8V27H5V4H16V8a2,2,0,0,0,2,2h5v4h2V9.56A2,2,0,0,0,24.41,8.15ZM18,4.56,21.44,8H18Z"/><path class="cls-2" d="M11,6.33a2,2,0,0,0-2,2H9a2,2,0,0,0,2,2h0a2,2,0,0,0,0-4Z"/><path class="cls-2" d="M7.43,15A.43.43,0,0,1,7,14.56V14c0-1.67,2.67-2.41,4-2.41s4,.75,4,2.41v.53a.42.42,0,0,1-.42.43Z"/><rect class="cls-1" x="7" y="18" width="9" height="2"/><rect class="cls-1" x="7" y="22" width="5" height="2"/><path class="cls-2" d="M28,20H25V17a1,1,0,0,0-1-1H20a1,1,0,0,0-1,1v5H16a1,1,0,0,0-1,1v6a1,1,0,0,0,1,1H28a1,1,0,0,0,1-1V21A1,1,0,0,0,28,20ZM17,24h2v4H17Zm4-1V18h2V28H21Zm6,5H25V22h2Z"/></g></svg>