<svg xmlns="http://www.w3.org/2000/svg" viewBox="0 0 32 32"><defs><style>.cls-1{fill:#211c1b;}.cls-2{fill:#f15a29;}</style></defs><g id="icons_copy" data-name="icons copy"><path class="cls-1" d="M25,19H21a1,1,0,0,1-1-1V17a1,1,0,0,1,1-1h4a1,1,0,0,1,1,1h2a3,3,0,0,0-3-3H24V12H22v2H21a3,3,0,0,0-3,3v1a3,3,0,0,0,3,3h4a1,1,0,0,1,1,1v1a1,1,0,0,1-1,1H21a1,1,0,0,1-1-1H18a3,3,0,0,0,3,3h1v2h2V26h1a3,3,0,0,0,3-3V22A3,3,0,0,0,25,19Z"/><path class="cls-2" d="M19,4H12.52a2,2,0,0,0-1.31.48L4.7,10.09A2,2,0,0,0,4,11.61V24a2,2,0,0,0,2,2H16V24H6V13h5a2,2,0,0,0,2-2V6h6v4h2V6A2,2,0,0,0,19,4ZM6.71,11,11,7.31V11Z"/><rect class="cls-1" x="8" y="20" width="7" height="2"/><rect class="cls-1" x="8" y="16" width="7" height="2"/></g></svg>