<svg xmlns="http://www.w3.org/2000/svg" viewBox="0 0 32 32"><defs><style>.cls-1{fill:#211c1b;}.cls-2{fill:#f15a29;}</style></defs><g id="icons_copy" data-name="icons copy"><polygon class="cls-1" points="20.52 29.93 14.89 24.3 16.3 22.89 20.52 27.1 28.62 19 30.04 20.41 20.52 29.93"/><path class="cls-2" d="M14,27H5a3,3,0,0,1-3-3V6A3,3,0,0,1,5,3H26a3,3,0,0,1,3,3V17H27V6a1,1,0,0,0-1-1H5A1,1,0,0,0,4,6V24a1,1,0,0,0,1,1h9Z"/><rect class="cls-2" x="12" y="9" width="12" height="2"/><rect class="cls-1" x="7" y="8" width="3" height="3"/><rect class="cls-2" x="12" y="14" width="12" height="2"/><rect class="cls-1" x="7" y="13" width="3" height="3"/><rect class="cls-2" x="12" y="19" width="9" height="2"/><rect class="cls-1" x="7" y="18" width="3" height="3"/></g></svg>