<svg xmlns="http://www.w3.org/2000/svg" viewBox="0 0 32 32"><defs><style>.cls-1{fill:#f15a29;}.cls-2{fill:#211c1b;}</style></defs><g id="icons_copy" data-name="icons copy"><path class="cls-1" d="M21,2H11.56a2,2,0,0,0-1.41.59L3.59,9.15A2,2,0,0,0,3,10.56V26a2,2,0,0,0,2,2H17V26H5V11h5a2,2,0,0,0,2-2V4h9v9h2V4A2,2,0,0,0,21,2ZM6.56,9,10,5.56V9Z"/><rect class="cls-1" x="7" y="14" width="7" height="2"/><rect class="cls-1" x="7" y="18" width="8" height="2"/><rect class="cls-1" x="7" y="22" width="9" height="2"/><rect class="cls-1" x="14" y="8" width="5" height="2"/><path class="cls-2" d="M17.83,14.74,28,21.2,24.3,22s3.5,4.31,3.52,4.31h0s-1.15.94-1.18.94h0s-3.39-4.42-3.39-4.42l-1.74,3.41L17.85,14.77l0,0m0-2a2,2,0,0,0-1.5.68A2,2,0,0,0,16,15.57l3.6,11.3a2,2,0,0,0,1.74,1.39h.16a2,2,0,0,0,1.78-1.09l.3-.58c1.67,2.17,1.72,2.21,2,2.36a2,2,0,0,0,1.08.32h0c1.28,0,2.74-1.68,2.75-1.7A2,2,0,0,0,29.3,25c-.13-.16-.71-.86-1.4-1.72l.56-.12a2,2,0,0,0,.64-3.64L18.9,13.05a2,2,0,0,0-1.07-.31Z"/></g></svg>