<svg xmlns="http://www.w3.org/2000/svg" viewBox="0 0 32 32"><defs><style>.cls-1{fill:#fff;}</style></defs><g id="icons_copy" data-name="icons copy"><path class="cls-1" d="M24.21,26.57l3.25,3.25,1.42-1.41-3.27-3.26a6.39,6.39,0,1,0-5.2,2.68A6.35,6.35,0,0,0,24.21,26.57ZM16,21.42a4.42,4.42,0,1,1,1.29,3.11A4.39,4.39,0,0,1,16,21.42Z"/><path class="cls-1" d="M12,25H6V8.25L10.25,4H22v9h2V4a2,2,0,0,0-2-2H9.43L4,7.43V25a2,2,0,0,0,2,2h6Z"/><rect class="cls-1" x="11" y="7" width="8" height="2"/><rect class="cls-1" x="9" y="11" width="10" height="2"/><rect class="cls-1" x="9" y="15" width="4" height="2"/><rect class="cls-1" x="9" y="19" width="3" height="2"/></g></svg>