<svg xmlns="http://www.w3.org/2000/svg" viewBox="0 0 32 32"><defs><style>.cls-1{fill:#f15a29;}.cls-2{fill:#211c1b;}</style></defs><g id="icons_copy" data-name="icons copy"><rect class="cls-1" x="8" y="13" width="5" height="2"/><rect class="cls-2" x="3" y="12" width="3" height="3"/><rect class="cls-1" x="8" y="8" width="6" height="2"/><rect class="cls-2" x="3" y="7" width="3" height="3"/><rect class="cls-1" x="8" y="18" width="7" height="2"/><rect class="cls-2" x="3" y="17" width="3" height="3"/><rect class="cls-1" x="8" y="23" width="15" height="2"/><rect class="cls-2" x="3" y="22" width="3" height="3"/><path class="cls-2" d="M28.46,23.73l-3.55-6.14A6,6,0,0,0,26.29,10h0a6,6,0,1,0-5.18,9,5.81,5.81,0,0,0,2.08-.39l3.54,6.15ZM17.62,15a4,4,0,0,1,6.93-4,4,4,0,0,1-1.46,5.46A4,4,0,0,1,17.62,15Z"/></g></svg>