<svg xmlns="http://www.w3.org/2000/svg" viewBox="0 0 32 32"><defs><style>.cls-1{fill:#f15a29;}.cls-2{fill:#211c1b;}</style></defs><g id="icons_copy" data-name="icons copy"><path class="cls-1" d="M28.41,9.15,21.85,2.59A2,2,0,0,0,20.44,2H9A2,2,0,0,0,7,4V9.26A7.47,7.47,0,0,1,9,9V4H20v6a2,2,0,0,0,2,2h5V28H12v2H27a2,2,0,0,0,2-2V10.56A2,2,0,0,0,28.41,9.15ZM22,10V5.56L26.44,10Z"/><rect class="cls-1" x="12" y="7" width="6" height="2"/><path class="cls-1" d="M25,14v2H16.93a7.64,7.64,0,0,0-.51-2Z"/><path class="cls-1" d="M25,18v2H16.42a7.64,7.64,0,0,0,.51-2Z"/><path class="cls-1" d="M25,22v2H12.86a8,8,0,0,0,1.8-1.34,6,6,0,0,0,.58-.66Z"/><path class="cls-2" d="M15,17a6,6,0,0,0-6-6A6,6,0,0,0,4.76,21.24,5.87,5.87,0,0,0,8,22.91V30h2V22.91A6,6,0,0,0,15,17Zm-3.17,2.83a4.1,4.1,0,0,1-5.66,0,4,4,0,1,1,5.66,0Z"/></g></svg>