<svg xmlns="http://www.w3.org/2000/svg" viewBox="0 0 32 32"><defs><style>.cls-1{fill:#211c1b;}.cls-2{fill:#f15a29;}</style></defs><g id="icons_copy" data-name="icons copy"><path class="cls-1" d="M29,19a4.85,4.85,0,0,0-.28-1.57l1.84-1.06-1-1.74L27.72,15.7A4.92,4.92,0,0,0,25,14.1V12H23v2.1a4.92,4.92,0,0,0-2.72,1.6l-1.84-1.07-1,1.74,1.84,1.06a4.54,4.54,0,0,0,0,3.14l-1.84,1.06,1,1.74,1.84-1.07A4.92,4.92,0,0,0,23,23.9V26h2V23.9a4.92,4.92,0,0,0,2.72-1.6l1.84,1.07,1-1.74-1.84-1.06A4.85,4.85,0,0,0,29,19Zm-5,2.5A2.5,2.5,0,1,1,26.5,19,2.5,2.5,0,0,1,24,21.5Z"/><path class="cls-2" d="M4.2,25.83A2.22,2.22,0,0,1,2,23.61V22.35c0-4.11,5.86-5.81,9-5.81a13.32,13.32,0,0,1,6.5,1.84l-1.08,1.68A11.31,11.31,0,0,0,11,18.54c-2.38,0-7,1.34-7,3.81v1.26a.21.21,0,0,0,.2.22l12.6,0v2Z"/><path class="cls-2" d="M11,16.2a5,5,0,1,1,5-5A5,5,0,0,1,11,16.2Zm0-8a3,3,0,1,0,3,3A3,3,0,0,0,11,8.2Z"/></g></svg>