<svg xmlns="http://www.w3.org/2000/svg" viewBox="0 0 32 32"><defs><style>.cls-1{fill:#fff;}</style></defs><g id="icons_copy" data-name="icons copy"><path class="cls-1" d="M27,27V5a3,3,0,0,0-3-3H8A3,3,0,0,0,5,5V27a3,3,0,0,0,3,3H24A3,3,0,0,0,27,27ZM13,4h6V5H13ZM7,27V5A1,1,0,0,1,8,4h3V6a1,1,0,0,0,1,1h8a1,1,0,0,0,1-1V4h3a1,1,0,0,1,1,1V27a1,1,0,0,1-1,1H8A1,1,0,0,1,7,27Z"/><rect class="cls-1" x="14" y="10" width="8" height="2"/><rect class="cls-1" x="9" y="9" width="3" height="3"/><rect class="cls-1" x="14" y="16" width="8" height="2"/><rect class="cls-1" x="9" y="15" width="3" height="3"/><rect class="cls-1" x="14" y="22" width="8" height="2"/><rect class="cls-1" x="9" y="21" width="3" height="3"/></g></svg>