<svg xmlns="http://www.w3.org/2000/svg" viewBox="0 0 32 32"><defs><style>.cls-1{fill:#211c1b;}.cls-2{fill:#f15a29;}</style></defs><g id="icons_copy" data-name="icons copy"><path class="cls-1" d="M23,25.06c-.54-.65-3.51-4.31-3.51-4.31L23,20a.13.13,0,0,0,0-.24l-9.81-6.22a.14.14,0,0,0-.2.16l3.54,11.08a.13.13,0,0,0,.25,0l1.62-3.18s3.44,4.49,3.46,4.5.82-.63,1.1-.87A.12.12,0,0,0,23,25.06Z"/><path class="cls-2" d="M28,20H25V18h3V8H4V18h8v2H4a2,2,0,0,1-2-2V8A2,2,0,0,1,4,6H28a2,2,0,0,1,2,2V18A2,2,0,0,1,28,20Z"/><rect class="cls-1" x="6" y="10" width="20" height="2"/><rect class="cls-1" x="20" y="14" width="6" height="2"/><rect class="cls-1" x="6" y="14" width="5" height="2"/></g></svg>