<svg xmlns="http://www.w3.org/2000/svg" viewBox="0 0 32 32"><defs><style>.cls-1{fill:#f15a29;}.cls-2{fill:#211c1b;}.cls-3{fill:#231f20;}</style></defs><g id="icons_copy" data-name="icons copy"><path class="cls-1" d="M17.44,15.32h0a1,1,0,0,1-.71-.3L11.61,9.79a4,4,0,0,1-1.14-3.34,4.1,4.1,0,0,1,2-3,4,4,0,0,1,4,0,4.16,4.16,0,0,1,1,.84,3.93,3.93,0,0,1,1-.84,4,4,0,0,1,4,0,4,4,0,0,1,.83,6.34L18.15,15A1,1,0,0,1,17.44,15.32Zm-3-10.41a2,2,0,0,0-1,.26,2,2,0,0,0-1,1.53A2,2,0,0,0,13,8.39l4.41,4.51L22,8.39a2,2,0,0,0-.44-3.22,2,2,0,0,0-2,0,2,2,0,0,0-1,1.7,1,1,0,0,1-1,1h0a1,1,0,0,1-1-1,2,2,0,0,0-2-2Z"/><path class="cls-2" d="M29.81,21.78a2.44,2.44,0,0,0-1.14-1.49A2.38,2.38,0,0,0,27,20h-.32l-.12.12c-.77.27-2.35,1-3.71,1.56a3.07,3.07,0,0,0-3.08-2.87,20.55,20.55,0,0,0-2.31.07,9.87,9.87,0,0,1-2.43,0,5.71,5.71,0,0,0-4.07-.51,27.76,27.76,0,0,1-4.23.37v-1.9h-5v2h3v7h-3v2h5v-2H8l1,.7c1.56,1.18,3.92,3,5.74,3.5a7.25,7.25,0,0,0,1.78.23A6.8,6.8,0,0,0,19,29.79c3.1-1,8.91-4.64,9.34-5S30.2,23.39,29.81,21.78ZM27.1,23.22a56.12,56.12,0,0,1-8.84,4.69,4.94,4.94,0,0,1-3.08.2C13.75,27.69,11.47,26,10.11,25,8.9,24,8.65,23.84,8.2,23.84H6.69v-3.1a28.42,28.42,0,0,0,4.54-.4,3.91,3.91,0,0,1,3,.41l.24.08a11.25,11.25,0,0,0,3,.07,19.83,19.83,0,0,1,2.09-.06,1.1,1.1,0,0,1,1.18,1.05.94.94,0,0,1-.76,1,34.08,34.08,0,0,1-4.75.09l-1.45,0,0,2,1.43,0c.73,0,1.5,0,2.25,0a21.17,21.17,0,0,0,2.83-.14,2.87,2.87,0,0,0,.95-.31h0c2-.93,5.19-2.35,5.9-2.57l.16,0a.4.4,0,0,1,.29.05.42.42,0,0,1,.2.24C27.9,22.39,27.83,22.67,27.1,23.22Z"/><circle class="cls-2" cx="10.19" cy="14.34" r="1"/><circle class="cls-2" cx="28.19" cy="3.84" r="1"/><path class="cls-3" d="M26.9,13.34,28,12.28a.5.5,0,0,0-.71-.71l-1.06,1.06-1.06-1.06a.5.5,0,1,0-.71.71l1.06,1.06L24.42,14.4a.51.51,0,0,0,0,.71.51.51,0,0,0,.36.15.5.5,0,0,0,.35-.15l1.06-1.06,1.06,1.06a.5.5,0,0,0,.35.15.51.51,0,0,0,.36-.15.51.51,0,0,0,0-.71Z"/><path class="cls-3" d="M7,5.57a.51.51,0,0,0-.71,0L5.19,6.63,4.13,5.57a.5.5,0,0,0-.71.71L4.48,7.34,3.42,8.4a.51.51,0,0,0,0,.71.51.51,0,0,0,.36.15.5.5,0,0,0,.35-.15L5.19,8.05,6.25,9.11a.5.5,0,0,0,.35.15A.51.51,0,0,0,7,9.11.51.51,0,0,0,7,8.4L5.9,7.34,7,6.28A.51.51,0,0,0,7,5.57Z"/></g></svg>