<svg xmlns="http://www.w3.org/2000/svg" viewBox="0 0 32 32"><defs><style>.cls-1{fill:#211c1b;}.cls-2{fill:#f15a29;}</style></defs><g id="icons_copy" data-name="icons copy"><path class="cls-1" d="M22,21v-.91c0-2.43-4-3.52-6-3.52s-6,1.09-6,3.53V21H22Z"/><path class="cls-1" d="M22,21v-.91c0-2.43-4-3.52-6-3.52s-6,1.09-6,3.53V21H22Z"/><rect class="cls-1" x="10" y="23" width="12" height="2"/><circle class="cls-1" cx="16" cy="13" r="3"/><path class="cls-2" d="M26.41,7.27,21.73,2.59A2,2,0,0,0,20.32,2H7A2,2,0,0,0,5,4V28a2,2,0,0,0,2,2H25a2,2,0,0,0,2-2V8.68A2,2,0,0,0,26.41,7.27ZM21,4.68,24.32,8H21ZM7,28V4H19V8a2,2,0,0,0,2,2h4V28Z"/></g></svg>