<svg xmlns="http://www.w3.org/2000/svg" viewBox="0 0 32 32"><defs><style>.cls-1{fill:#f15a29;}.cls-2{fill:#211c1b;}</style></defs><g id="icons_copy" data-name="icons copy"><path class="cls-1" d="M14,10.28a2.86,2.86,0,0,1,2.86,2.86h0A2.86,2.86,0,0,1,14,16h0a2.86,2.86,0,0,1,0-5.72Z"/><path class="cls-1" d="M20,22V20.93c0-2.8-4-4.05-6-4.05s-6,1.26-6,4.06V22Z"/><path class="cls-1" d="M24.71,8.13,18.87,2.29a1,1,0,0,0-.7-.29H5A2,2,0,0,0,3,4V27a2,2,0,0,0,2,2H16.6l-2-2H5V4H17.17V9a1,1,0,0,0,1,1H23V23l2-2V8.83A1,1,0,0,0,24.71,8.13ZM19.17,8V5.41L21.75,8Z"/><polygon class="cls-2" points="20.49 30.62 14.85 25 16.26 23.59 20.49 27.8 28.23 20.08 29.64 21.5 20.49 30.62"/></g></svg>