<svg xmlns="http://www.w3.org/2000/svg" viewBox="0 0 32 32"><defs><style>.cls-1{fill:#fff;}</style></defs><g id="icons_copy" data-name="icons copy"><path class="cls-1" d="M4,26h6V24H4V11H9a2,2,0,0,0,2-2V4h8V9h2V4a2,2,0,0,0-2-2H10.56a2,2,0,0,0-1.41.59L2.59,9.15A2,2,0,0,0,2,10.56V24A2,2,0,0,0,4,26ZM5.56,9,9,5.56V9Z"/><path class="cls-1" d="M20,11.77a1,1,0,0,0-1,1V14.5A7.77,7.77,0,1,0,27.5,23h1.73a1,1,0,0,0,1-1A10.24,10.24,0,0,0,20,11.77ZM19.77,28A5.77,5.77,0,0,1,19,16.52V22a1,1,0,0,0,1,1h5.48A5.77,5.77,0,0,1,19.77,28ZM21,21V13.83A8.24,8.24,0,0,1,28.17,21Z"/><rect class="cls-1" x="13" y="8" width="4" height="2"/><rect class="cls-1" x="7" y="13" width="6" height="2"/><rect class="cls-1" x="7" y="18" width="3" height="2"/></g></svg>