<svg xmlns="http://www.w3.org/2000/svg" viewBox="0 0 32 32"><defs><style>.cls-1{fill:#f15a29;}.cls-2{fill:#231f20;}</style></defs><g id="icons_copy" data-name="icons copy"><path class="cls-1" d="M21,2H11.56a1.8,1.8,0,0,0-1.08.33,2,2,0,0,0-.33.25L3.58,9.15a3.25,3.25,0,0,0-.23.29A1.93,1.93,0,0,0,3,10.56V26a2,2,0,0,0,2,2h6V26H5V11h5a2,2,0,0,0,2-2V4h9V20h2V4A2,2,0,0,0,21,2ZM6.56,9,10,5.56V9Z"/><rect class="cls-1" x="7" y="13" width="12" height="2"/><rect class="cls-1" x="7" y="17" width="12" height="2"/><rect class="cls-1" x="7" y="21" width="3" height="2"/><rect class="cls-1" x="14" y="9" width="5" height="2"/><path class="cls-2" d="M13.77,29.85a.85.85,0,0,1-.85-.85V23.83l-.65.57a.85.85,0,0,1-1.12-1.28l2-1.76a.83.83,0,0,1,.56-.21.88.88,0,0,1,.89.85v7A.85.85,0,0,1,13.77,29.85Z"/><path class="cls-2" d="M21.87,29.85h-4.5a.85.85,0,0,1-.85-.85.94.94,0,0,1,.24-.64l1.51-1.58c.73-.75,1.94-2,1.94-3a.79.79,0,0,0-.79-.9,1.14,1.14,0,0,0-1.06,1,.86.86,0,0,1-1.05.6.84.84,0,0,1-.59-1,2.79,2.79,0,0,1,2.7-2.24,2.47,2.47,0,0,1,2.49,2.6c0,1.71-1.45,3.21-2.41,4.21l-.19.19h2.56a.85.85,0,1,1,0,1.7Zm-4.5-.9h0Z"/><path class="cls-2" d="M26.7,29.85a2.61,2.61,0,0,1-2.63-1.91.85.85,0,0,1,1.66-.39.92.92,0,0,0,1,.6,1,1,0,0,0,1.07-1c0-.63-.43-1-1.17-1h-.23a.85.85,0,1,1,0-1.7h.23c.49,0,1.07-.14,1.07-.79a.74.74,0,0,0-.86-.79,1,1,0,0,0-1,.57.85.85,0,0,1-1.51-.79,2.76,2.76,0,0,1,2.52-1.48,2.42,2.42,0,0,1,2.56,2.49,2.39,2.39,0,0,1-.6,1.64,2.64,2.64,0,0,1,.7,1.84A2.68,2.68,0,0,1,26.7,29.85Z"/></g></svg>