<svg xmlns="http://www.w3.org/2000/svg" viewBox="0 0 32 32"><defs><style>.cls-1{fill:#fff;}</style></defs><g id="icons_copy" data-name="icons copy"><path class="cls-1" d="M13.56,2a2,2,0,0,0-1.41.59L5.59,9.15A2,2,0,0,0,5,10.56V28a2,2,0,0,0,2,2H25a2,2,0,0,0,2-2V4a2,2,0,0,0-2-2ZM12,5.56V9H8.56ZM25,28H7V11h5a2,2,0,0,0,2-2V4H25Z"/><path class="cls-1" d="M18.39,21.67l0-.07-2.72-7a1.08,1.08,0,0,0-1-.64,1,1,0,0,0-.93.63l-2.77,7v0l-1.19,3a1,1,0,1,0,1.86.74L12.55,23h4.21l.93,2.36a1,1,0,0,0,.93.64.92.92,0,0,0,.36-.07,1,1,0,0,0,.57-1.29ZM13.34,21l1.33-3.35L16,21Z"/><path class="cls-1" d="M16,12h2v2a1,1,0,0,0,2,0V12h2a1,1,0,0,0,0-2H20V8a1,1,0,0,0-2,0v2H16a1,1,0,0,0,0,2Z"/></g></svg>