<svg xmlns="http://www.w3.org/2000/svg" viewBox="0 0 32 32"><defs><style>.cls-1{fill:#f15a29;}.cls-2{fill:#231f20;}.cls-3{fill:#211c1b;}</style></defs><g id="icons_copy" data-name="icons copy"><path class="cls-1" d="M11,29H7a2,2,0,0,1-2-2V18.94H7V27h4Z"/><path class="cls-1" d="M25.65,9.53a1.5,1.5,0,0,0-.17-.23L19.86,2.6a2.17,2.17,0,0,0-.29-.24A2,2,0,0,0,18.44,2H7A2,2,0,0,0,5,4V7.7H7V4l11-.06V9a2,2,0,0,0,2,2h4v9h2V10.65A1.93,1.93,0,0,0,25.65,9.53ZM20,5.88,22.62,9H20Z"/><path class="cls-2" d="M14.42,30.07a.86.86,0,0,1-.85-.85V24.84l-.42.36A.85.85,0,1,1,12,23.92l1.79-1.56a.81.81,0,0,1,.56-.21.88.88,0,0,1,.88.85v6.22A.85.85,0,0,1,14.42,30.07Z"/><path class="cls-2" d="M21.62,30.07h-4a.85.85,0,0,1-.85-.85,1,1,0,0,1,.24-.63l1.35-1.41c.63-.66,1.69-1.75,1.69-2.62,0-.27-.08-.71-.61-.71a.94.94,0,0,0-.85.8A.85.85,0,0,1,17,24.21a2.57,2.57,0,0,1,2.49-2.06,2.28,2.28,0,0,1,2.31,2.41c0,1.55-1.3,2.91-2.17,3.8h2a.85.85,0,0,1,0,1.7Zm-4-.89h0Z"/><path class="cls-2" d="M25.92,30.07a2.41,2.41,0,0,1-2.43-1.77.85.85,0,0,1,1.65-.39.74.74,0,0,0,.78.46.77.77,0,0,0,.85-.8c0-.69-.59-.79-.95-.79h-.2a.85.85,0,1,1,0-1.7h.2c.57,0,.86-.2.86-.6,0-.55-.36-.62-.67-.62a.84.84,0,0,0-.82.47.85.85,0,0,1-1.5-.8A2.54,2.54,0,0,1,26,22.16a2.32,2.32,0,0,1,1.86,3.77,2.51,2.51,0,0,1-1.95,4.14Z"/><path class="cls-1" d="M9.15,18.79a.85.85,0,0,1-.79-.54L7.87,17H4.14l-.5,1.25a.86.86,0,0,1-1.11.48.84.84,0,0,1-.47-1.1L5.21,9.69A.84.84,0,0,1,6,9.15a.91.91,0,0,1,.84.54l3.1,7.94a.84.84,0,0,1-.48,1.1A.81.81,0,0,1,9.15,18.79ZM4.81,15.3h2.4L6,12.26Z"/><polygon class="cls-1" points="15 8 13 8 13 6 11 6 11 8 9 8 9 10 11 10 11 12 13 12 13 10 15 10 15 8"/><rect class="cls-3" x="12" y="17" width="3" height="2"/><rect class="cls-3" x="17" y="17" width="5" height="2"/><rect class="cls-3" x="17" y="13" width="5" height="2"/></g></svg>