<svg xmlns="http://www.w3.org/2000/svg" viewBox="0 0 32 32"><defs><style>.cls-1{fill:#fff;}</style></defs><g id="icons_copy" data-name="icons copy"><path class="cls-1" d="M26,24.54v-1.4c0-4.53-6.51-6.41-10-6.41S6,18.61,6,23.14v1.42a2.36,2.36,0,0,0,2.35,2.37h0l15.31,0A2.35,2.35,0,0,0,26,24.54Zm-17.65.39A.37.37,0,0,1,8,24.56V23.14c0-2.85,5.29-4.41,8-4.41s8,1.56,8,4.41v1.4a.35.35,0,0,1-.34.36Z"/><path class="cls-1" d="M16,16.1a5.5,5.5,0,1,0-5.5-5.5A5.51,5.51,0,0,0,16,16.1Zm0-9a3.5,3.5,0,1,1-3.5,3.5A3.5,3.5,0,0,1,16,7.1Z"/></g></svg>