<svg xmlns="http://www.w3.org/2000/svg" viewBox="0 0 32 32"><defs><style>.cls-1{fill:#f15a29;}.cls-2{fill:#211c1b;}</style></defs><g id="icons_copy" data-name="icons copy"><rect class="cls-1" x="6" y="24" width="11" height="2"/><rect class="cls-1" x="6" y="20" width="6" height="2"/><rect class="cls-1" x="6" y="16" width="4" height="2"/><rect class="cls-2" x="2" y="24" width="2" height="2"/><rect class="cls-2" x="2" y="20" width="2" height="2"/><rect class="cls-2" x="2" y="16" width="2" height="2"/><path class="cls-2" d="M21.35,23c-6.42,0-9.34-5.78-9.46-6a1,1,0,0,1,0-.88c.12-.25,3-6,9.39-6h.49c6.12.29,8.81,5.8,8.92,6a1,1,0,0,1,0,.87C30.56,17.22,27.67,23,21.35,23Zm-7.42-6.47c.74,1.21,3.12,4.47,7.35,4.47s6.63-3.29,7.36-4.48a8.81,8.81,0,0,0-7-4.45h-.39C17.05,12.06,14.67,15.32,13.93,16.53Z"/><path class="cls-2" d="M21.29,19.78a3.5,3.5,0,1,1,.35-7h0a3.5,3.5,0,0,1-.36,7Zm.05-5h-.05a1.43,1.43,0,1,0,.15,0Z"/><rect class="cls-2" x="20" y="5" width="2" height="3"/><rect class="cls-2" x="14.29" y="5.72" width="2" height="3.16" transform="translate(-1.53 5.21) rotate(-18.43)"/><rect class="cls-2" x="24.7" y="6.31" width="3.16" height="2" transform="translate(11.04 29.93) rotate(-71.55)"/></g></svg>