<svg xmlns="http://www.w3.org/2000/svg" viewBox="0 0 32 32"><defs><style>.cls-1{fill:#f15a29;}.cls-2{fill:#211c1b;}.cls-3{fill:#231f20;}</style></defs><g id="icons_copy" data-name="icons copy"><path class="cls-1" d="M17.75,15.48h0a1,1,0,0,1-.71-.3L11.92,10a4,4,0,0,1,4.87-6.34,4.16,4.16,0,0,1,1,.84,3.93,3.93,0,0,1,1-.84,4,4,0,0,1,4,0,4.08,4.08,0,0,1,2,3A4,4,0,0,1,23.69,10l-5.23,5.23A1,1,0,0,1,17.75,15.48Zm-3-10.41a2,2,0,0,0-1,.26,2,2,0,0,0-1,1.52,2,2,0,0,0,.58,1.69l4.41,4.52,4.51-4.52a2,2,0,0,0,.58-1.69,2,2,0,0,0-1-1.52,2,2,0,0,0-2,0,2,2,0,0,0-1,1.7,1,1,0,0,1-1,1h0a1,1,0,0,1-1-1,2,2,0,0,0-2-2Z"/><path class="cls-2" d="M30.12,21.94a2.43,2.43,0,0,0-2.85-1.76h-.34l-.12.13c-.77.26-2.34.95-3.69,1.55A3.07,3.07,0,0,0,20,19c-.88,0-1.64,0-2.31.06a9.87,9.87,0,0,1-2.43,0,5.71,5.71,0,0,0-4.07-.51A27.76,27.76,0,0,1,7,18.9V17H2v2H5v7H2v2H7V26H8.27l1,.71c1.56,1.17,3.92,2.95,5.74,3.49a7.23,7.23,0,0,0,1.78.22A7,7,0,0,0,19.26,30c3.09-1,8.91-4.64,9.34-5S30.51,23.55,30.12,21.94Zm-2.71,1.44a57.46,57.46,0,0,1-8.84,4.69,5,5,0,0,1-3.07.2c-1.44-.43-3.72-2.14-5.07-3.16S9,24,8.51,24H7V20.9a28.42,28.42,0,0,0,4.54-.4,3.91,3.91,0,0,1,3,.41l.24.07a11.27,11.27,0,0,0,3.05.08A19.83,19.83,0,0,1,20,21a1.1,1.1,0,0,1,1.18,1.05.94.94,0,0,1-.76,1,36,36,0,0,1-4.77.09l-1.43,0,0,2,1.41,0c.74,0,1.52,0,2.26,0a21.24,21.24,0,0,0,2.84-.14,2.67,2.67,0,0,0,.95-.32v0c2-.93,5.2-2.35,5.91-2.57l.17-.05a.39.39,0,0,1,.27.06.42.42,0,0,1,.2.24C28.21,22.54,28.14,22.83,27.41,23.38Z"/><circle class="cls-2" cx="10.5" cy="14.5" r="1"/><circle class="cls-2" cx="28.5" cy="4" r="1"/><path class="cls-3" d="M27.21,13.5l1.06-1.06a.5.5,0,0,0-.71-.71L26.5,12.79l-1.06-1.06a.5.5,0,0,0-.71.71l1.06,1.06-1.06,1.06a.51.51,0,0,0,0,.71.5.5,0,0,0,.36.14.49.49,0,0,0,.35-.14l1.06-1.06,1.06,1.06a.49.49,0,0,0,.35.14.5.5,0,0,0,.36-.14.51.51,0,0,0,0-.71Z"/><path class="cls-3" d="M6.21,7.5,7.27,6.44a.5.5,0,0,0-.71-.71L5.5,6.79,4.44,5.73a.5.5,0,0,0-.71.71L4.79,7.5,3.73,8.56a.51.51,0,0,0,0,.71.5.5,0,0,0,.36.14.49.49,0,0,0,.35-.14L5.5,8.21,6.56,9.27a.49.49,0,0,0,.35.14.5.5,0,0,0,.36-.14.51.51,0,0,0,0-.71Z"/></g></svg>