<svg xmlns="http://www.w3.org/2000/svg" viewBox="0 0 32 32"><defs><style>.cls-1{fill:#fff;}</style></defs><g id="icons_copy" data-name="icons copy"><path class="cls-1" d="M30,26.57c0-3.31-4.88-4.68-7.5-4.68S15,23.26,15,26.57v1.52A2,2,0,0,0,17,30h0L28,30a2,2,0,0,0,2-1.93ZM17,28V26.57c0-1.64,3.61-2.68,5.5-2.68s5.5,1,5.5,2.68L28,28Z"/><path class="cls-1" d="M22.63,13a4.09,4.09,0,1,0,4.17,4.08A4.13,4.13,0,0,0,22.63,13Zm0,6.17a2.09,2.09,0,1,1,2.17-2.09A2.13,2.13,0,0,1,22.63,19.17Z"/><path class="cls-1" d="M22,2H6A2,2,0,0,0,4,4V25a2,2,0,0,0,2,2h7V25H6V4H22v7h2V4A2,2,0,0,0,22,2Z"/><rect class="cls-1" x="8" y="7" width="12" height="2"/><rect class="cls-1" x="8" y="12" width="9" height="2"/><rect class="cls-1" x="8" y="17" width="7" height="2"/></g></svg>