<svg xmlns="http://www.w3.org/2000/svg" viewBox="0 0 32 32"><defs><style>.cls-1{fill:#211c1b;}.cls-2{fill:#f15a29;}</style></defs><g id="icons_copy" data-name="icons copy"><path class="cls-1" d="M16.36,27.26l-.2,0c-1.28-.19-1.49-1.82-1.79-4.08a12,12,0,0,0-.55-2.75,1,1,0,0,1-.12-.51c0-1-.15-1.1-1.8-1.15-1.25,0-3.13-.1-3.69-2.05-.91-1.94,1-5.18,2.67-6.24a2,2,0,0,1,2.87.42,1,1,0,0,1,.1.18,4.12,4.12,0,0,0,3.4.67.38.38,0,0,0,.24-.21h-.06A3.23,3.23,0,0,1,14.72,10a3.52,3.52,0,0,1-2.56-.69A1.57,1.57,0,0,1,11.29,8c0-.83.77-1.25,1.42-1.61a6,6,0,0,0,.75-.48A1.56,1.56,0,0,1,14,4.72a2.28,2.28,0,0,1,2.18-.14c.57.14,1.2.31,1.55.11a1.77,1.77,0,0,0,.57-1.1,1,1,0,0,1,1.95.47,3.51,3.51,0,0,1-1.5,2.34,3.86,3.86,0,0,1-3.08.11l-.22-.06a.82.82,0,0,1-.1.26A3.66,3.66,0,0,1,13.87,8a1.53,1.53,0,0,0,1-.06,1,1,0,0,1,1.23.49c.5,1,.83,1,1.5,1.09a3.86,3.86,0,0,1,1.21.24,1,1,0,0,1,.59.68,2.47,2.47,0,0,1-1.6,3.21c-1.73.59-4.81-.15-5.68-1.6a4,4,0,0,0-1.58,1.71,2.86,2.86,0,0,0-.51,2.1,1.43,1.43,0,0,1,.08.22c.13.5.44.61,1.85.66s3.67.12,3.74,2.95a13.69,13.69,0,0,1,.65,3.2c.06.45.14,1.06.23,1.58.09-.16.18-.35.28-.57a1,1,0,0,1,.19-.27,3.48,3.48,0,0,0,.77-2.09,5.43,5.43,0,0,1,1.51-3.45,1.51,1.51,0,0,1-.74-1.1,1.91,1.91,0,0,1,.75-1.55,1,1,0,0,1,.55-.24,2.53,2.53,0,0,0,.65-.15,5,5,0,0,0-.25-.67,2.13,2.13,0,0,1-.07-2.28c.65-.83,2-.79,3.84-.46l.15,0a3.46,3.46,0,0,1,1.87,1.53,1.71,1.71,0,0,1,1.37-1,1.52,1.52,0,0,1,1.4.88,5.75,5.75,0,0,0,.68,1A1,1,0,0,1,28.8,16c-.42-.12-.79-.45-1.27-1.2-.34.69-.73,1.47-1.55,1.54a1.36,1.36,0,0,1-1.21-.61,1.07,1.07,0,0,1-.19-.6,1.55,1.55,0,0,0-1-1.49,10.15,10.15,0,0,0-1.57-.17l.07.16a2.66,2.66,0,0,1,.2,2.47,2,2,0,0,1-1.11.88,1.43,1.43,0,0,1,.47.92,2.07,2.07,0,0,1-1,1.67,3.48,3.48,0,0,0-.92,2.32,5.3,5.3,0,0,1-1.19,3C18.06,26.07,17.39,27.26,16.36,27.26ZM15.46,6Z"/><path class="cls-1" d="M9.05,28.13a.91.91,0,0,1-.23,0,1,1,0,0,1-.74-1.21,5.75,5.75,0,0,0,0-2.07A5.44,5.44,0,0,1,8,23.6c0-.38,0-.48-.57-1.19-.22-.28-1-.9-3.42-.66H3.77a1,1,0,0,1-1-1,1,1,0,0,1,1-1c3.18-.3,4.6.59,5.24,1.39a3.34,3.34,0,0,1,1,2.48,3.34,3.34,0,0,0,.06.84,7.27,7.27,0,0,1,0,2.89A1,1,0,0,1,9.05,28.13Z"/><path class="cls-2" d="M16,30.12A14.12,14.12,0,1,1,30.12,16,14.14,14.14,0,0,1,16,30.12ZM16,3.88A12.12,12.12,0,1,0,28.12,16,12.14,12.14,0,0,0,16,3.88Z"/></g></svg>