<svg xmlns="http://www.w3.org/2000/svg" viewBox="0 0 32 32"><defs><style>.cls-1{fill:#211c1b;}.cls-2{fill:#f15a29;}</style></defs><g id="icons_copy" data-name="icons copy"><polygon class="cls-1" points="19.52 29.93 13.79 24.21 15.21 22.79 19.52 27.1 28.25 18.37 29.67 19.78 19.52 29.93"/><path class="cls-2" d="M21,2H11.56a2,2,0,0,0-1.41.59L3.59,9.15A2,2,0,0,0,3,10.56V26a2,2,0,0,0,2,2h8V26H5V11h5a2,2,0,0,0,2-2V4h9V21h2V4A2,2,0,0,0,21,2ZM6.56,9,10,5.56V9Z"/><rect class="cls-1" x="8" y="14" width="10" height="2"/><rect class="cls-1" x="8" y="18" width="10" height="2"/></g></svg>