<svg xmlns="http://www.w3.org/2000/svg" viewBox="0 0 32 32"><defs><style>.cls-1{fill:#f15a29;}.cls-2{fill:#211c1b;}</style></defs><g id="icons_copy" data-name="icons copy"><path class="cls-1" d="M22,3H12.25a2,2,0,0,0-1.42.58L5.59,8.83A2,2,0,0,0,5,10.24V26a2,2,0,0,0,2,2H17V26H7V11h4a2,2,0,0,0,2-2V5h9V15h2V5A2,2,0,0,0,22,3ZM8.24,9,11,6.25V9Z"/><rect class="cls-1" x="13" y="13" width="7" height="2"/><rect class="cls-1" x="9" y="13" width="2" height="2"/><rect class="cls-1" x="13" y="17" width="7" height="2"/><rect class="cls-1" x="9" y="17" width="2" height="2"/><rect class="cls-1" x="13" y="21" width="3" height="2"/><rect class="cls-1" x="9" y="21" width="2" height="2"/><rect class="cls-1" x="15" y="9" width="5" height="2"/><polygon class="cls-2" points="30 23 25 23 25 18 23 18 23 23 18 23 18 25 23 25 23 30 25 30 25 25 30 25 30 23"/></g></svg>