<svg xmlns="http://www.w3.org/2000/svg" viewBox="0 0 32 32"><defs><style>.cls-1{fill:#211c1b;}.cls-2{fill:#f15a29;}</style></defs><g id="icons_copy" data-name="icons copy"><polygon class="cls-1" points="30 21 25 21 25 16 23 16 23 21 18 21 18 23 23 23 23 28 25 28 25 23 30 23 30 21"/><path class="cls-2" d="M11.26,14.46a5.34,5.34,0,0,1,0-10.67h0a5.34,5.34,0,0,1,0,10.67Zm0-8.67a3.34,3.34,0,1,0,3.33,3.33A3.33,3.33,0,0,0,11.26,5.79Z"/><path class="cls-2" d="M3.92,25a1.92,1.92,0,0,1-1.33-.52A1.87,1.87,0,0,1,2,23.14V21.3c0-4.13,6.38-5.84,9.8-5.84A15.23,15.23,0,0,1,19,17.39L18,19.1a13.17,13.17,0,0,0-6.17-1.64C9.05,17.46,4,18.92,4,21.3V23H16v2H3.92Z"/></g></svg>