<svg xmlns="http://www.w3.org/2000/svg" viewBox="0 0 32 32"><defs><style>.cls-1{fill:#211c1b;}.cls-2{fill:#f15a29;}</style></defs><g id="exp"><polygon class="cls-1" points="24 20 24 15 22 15 22 20 17 20 17 22 22 22 22 27 24 27 24 22 29 22 29 20 24 20"/><path class="cls-2" d="M20,15H4.05c0-.27.08-.55.13-.81a9,9,0,0,1,.53-1.69A8.08,8.08,0,0,1,5.54,11,9.16,9.16,0,0,1,8,8.54,8.08,8.08,0,0,1,9.5,7.71a9.1,9.1,0,0,1,1.68-.53,9.29,9.29,0,0,1,3.64,0,9.1,9.1,0,0,1,1.68.53A8.08,8.08,0,0,1,18,8.54,9.16,9.16,0,0,1,20.46,11a8.08,8.08,0,0,1,.83,1.53c.07.16.13.33.19.5h2.1a12.84,12.84,0,0,0-.44-1.28,10.55,10.55,0,0,0-1-1.87,11.61,11.61,0,0,0-1.34-1.63,11,11,0,0,0-1.63-1.34,10.56,10.56,0,0,0-1.87-1,10.81,10.81,0,0,0-2.07-.65A12.38,12.38,0,0,0,13.83,5l-.36-2h-.94l-.36,2a12.38,12.38,0,0,0-1.38.18,10.81,10.81,0,0,0-2.07.65,10.56,10.56,0,0,0-1.87,1A11,11,0,0,0,5.22,8.22,11.61,11.61,0,0,0,3.88,9.85a10.55,10.55,0,0,0-1,1.87,11.43,11.43,0,0,0-.64,2.06A11.77,11.77,0,0,0,2,16a1,1,0,0,0,1,1h9v9.3a.7.7,0,0,1-.7.7h-.6a.7.7,0,0,1-.7-.7V25H8v1.3A2.7,2.7,0,0,0,10.7,29h.6A2.7,2.7,0,0,0,14,26.3V17h6Z"/></g></svg>