<svg xmlns="http://www.w3.org/2000/svg" viewBox="0 0 32 32"><defs><style>.cls-1{fill:#fff;}</style></defs><g id="icons_copy" data-name="icons copy"><path class="cls-1" d="M13.41,15a5.6,5.6,0,0,0,0-11.19h0a5.6,5.6,0,0,0,0,11.19Zm0-9.19A3.58,3.58,0,0,1,17,9.41a3.59,3.59,0,1,1-3.59-3.59Z"/><path class="cls-1" d="M4.1,28h0L13,28V26L4.1,26h0A.18.18,0,0,1,4,26v-2.2C4,20.68,10.28,19,13.5,19a15.29,15.29,0,0,1,2.92.32l.39-2A17.75,17.75,0,0,0,13.5,17C9.49,17,2,19,2,23.77V26A2.07,2.07,0,0,0,4.1,28Z"/><path class="cls-1" d="M23,13.39h0a3.94,3.94,0,1,0,2.8,1.16A3.95,3.95,0,0,0,23,13.39Zm0,5.9A2,2,0,1,1,25,17.34,1.94,1.94,0,0,1,23,19.29Z"/><path class="cls-1" d="M16,27.93V29a1,1,0,0,0,.29.71A1,1,0,0,0,17,30h0l12,0a1,1,0,0,0,1-1V27.93c0-3.58-4.56-5.07-7-5.07S16,24.4,16,27.93Zm12,0L18,28v-.07c0-2,3.3-3.07,5-3.07S28,26,28,27.93Z"/></g></svg>