<svg xmlns="http://www.w3.org/2000/svg" viewBox="0 0 32 32"><defs><style>.cls-1{fill:#211c1b;}.cls-2{fill:#f15a29;}</style></defs><g id="icons_copy" data-name="icons copy"><path class="cls-1" d="M15.75,7c-.68,0-.5-.08-.56-.12s0-.25,0-.38c0-.72.3-1.56-.49-2a6.17,6.17,0,0,1-1.19-.75c-.27-.17-.46-.32,0-.5a7.61,7.61,0,0,1,1.28-.19,14.43,14.43,0,0,1,2.46,0c.43.08,1.47,0,1.52.44a5.83,5.83,0,0,1-1.48,1c-.79.44-.53,1.28-.49,2,0,.13.11.25,0,.37s.12.09-.56.13Z"/><path class="cls-1" d="M9.46,10c-.51.45-.41.29-.48.31S8.8,10.1,8.74,10C8.28,9.47,7.88,8.71,7,9a6.18,6.18,0,0,1-1.35.33c-.31.08-.55.11-.37-.31a6.8,6.8,0,0,1,.77-1A13.7,13.7,0,0,1,7.82,6.22c.36-.24,1-1,1.37-.77a5.75,5.75,0,0,1-.36,1.73c-.26.85.5,1.24,1,1.71.11,0,.25.09.27.23s.15,0-.31.48a4,4,0,0,1-.35.36Z"/><path class="cls-1" d="M7,16.25c0,.68-.08.5-.12.56s-.25,0-.38,0c-.72,0-1.56-.3-2,.49a6.17,6.17,0,0,1-.75,1.19c-.17.27-.32.46-.5.05a7.61,7.61,0,0,1-.19-1.28,14.43,14.43,0,0,1,0-2.46c.08-.43,0-1.47.44-1.52a5.83,5.83,0,0,1,1,1.48c.44.79,1.28.53,2,.49.13,0,.25-.11.37,0s.09-.12.13.56a4.17,4.17,0,0,1,0,.5Z"/><path class="cls-1" d="M9.81,22.68c.46.51.3.41.31.48s-.16.18-.27.24c-.52.46-1.28.86-1,1.71a6.18,6.18,0,0,1,.33,1.35c.08.31.11.55-.31.38a7.76,7.76,0,0,1-1-.78,14.3,14.3,0,0,1-1.74-1.74c-.25-.35-1-1.05-.78-1.37A5.63,5.63,0,0,1,7,23.31c.85.26,1.25-.49,1.71-1,.06-.12.09-.25.24-.28s0-.14.48.31l.35.35Z"/><path class="cls-1" d="M16.25,25c.68,0,.5.08.56.12s0,.25,0,.38c0,.72-.3,1.56.49,2a6.17,6.17,0,0,1,1.19.75c.27.17.46.32.05.5a7.61,7.61,0,0,1-1.28.19,14.43,14.43,0,0,1-2.46,0c-.43-.08-1.47,0-1.52-.44a5.83,5.83,0,0,1,1.48-1c.79-.44.53-1.28.49-2,0-.13-.11-.25,0-.37s-.12-.09.56-.13a4.17,4.17,0,0,1,.5,0Z"/><path class="cls-1" d="M22.54,22.33c.51-.45.41-.3.48-.31s.18.16.24.28c.46.52.86,1.27,1.71,1A6.81,6.81,0,0,1,26.32,23c.31-.07.55-.11.37.31a6.83,6.83,0,0,1-.77,1,13.62,13.62,0,0,1-1.74,1.74c-.36.25-1.05,1-1.37.78a5.75,5.75,0,0,1,.36-1.73c.26-.85-.5-1.25-1-1.71-.11-.06-.25-.09-.27-.24s-.15,0,.31-.48a3.85,3.85,0,0,1,.35-.35Z"/><path class="cls-1" d="M25,15.75c0-.68.08-.5.12-.56s.25,0,.38,0c.72,0,1.56.3,2-.49a6.17,6.17,0,0,1,.75-1.19c.17-.27.32-.46.5,0a7.61,7.61,0,0,1,.19,1.28,14.43,14.43,0,0,1,0,2.46c-.08.43,0,1.47-.44,1.52a5.83,5.83,0,0,1-1-1.48c-.44-.79-1.28-.53-2-.49-.13,0-.25.11-.37,0s-.09.12-.13-.56a4.17,4.17,0,0,1,0-.5Z"/><path class="cls-1" d="M22.19,9.6c-.46-.51-.3-.41-.31-.48s.16-.18.27-.23c.52-.47,1.28-.86,1-1.71a6.26,6.26,0,0,1-.33-1.36c-.08-.3-.11-.54.31-.37a7.58,7.58,0,0,1,1,.77A13.7,13.7,0,0,1,25.92,8c.25.35,1,1,.78,1.37A6,6,0,0,1,25,9c-.85-.26-1.25.5-1.71,1-.06.11-.09.25-.24.28s0,.14-.48-.31a4,4,0,0,1-.35-.36Z"/><path class="cls-2" d="M16,26A10,10,0,1,1,26,16,10,10,0,0,1,16,26ZM16,8a8,8,0,1,0,8,8A8,8,0,0,0,16,8Z"/><circle class="cls-2" cx="12.5" cy="17.5" r="1.5"/><circle class="cls-2" cx="15.5" cy="11.5" r="1.5"/><circle class="cls-2" cx="19.5" cy="15.5" r="1.5"/><circle class="cls-2" cx="17.5" cy="20.5" r="1.5"/></g></svg>