<svg xmlns="http://www.w3.org/2000/svg" viewBox="0 0 32 32"><defs><style>.cls-1{fill:#211c1b;}.cls-2{fill:#f15a29;}</style></defs><g id="icons_copy" data-name="icons copy"><circle class="cls-1" cx="24" cy="8.5" r="2.5"/><path class="cls-1" d="M30.2,17.49l-2.51-3.67a3.63,3.63,0,0,0-1.44-1.51,16.36,16.36,0,0,0-4-.14c-1.12.24-1.64,1.47-2.26,2.44l-1.84,2.93a1.3,1.3,0,0,0,.22,1.63.9.9,0,0,0,.59.22,1,1,0,0,0,.81-.47l1.49-2.42L21,22v4.11a1,1,0,1,0,2,0V22h2v4.11a1,1,0,1,0,2,0V22l-.2-5.5L28.64,19a.9.9,0,0,0,1.41.18A1.3,1.3,0,0,0,30.2,17.49Z"/><circle class="cls-1" cx="9.5" cy="6.24" r="2.84"/><path class="cls-1" d="M13,25.67V22h2.67L13,17.06V14.69l2.32,3a1.31,1.31,0,0,0,1.87.21A1.36,1.36,0,0,0,17.4,16l-4.28-5.46a1.36,1.36,0,0,0-1-.51L6.75,10a1.36,1.36,0,0,0-1.11.57l-4,5.49A1.36,1.36,0,0,0,1.92,18a1.32,1.32,0,0,0,.79.27,1.35,1.35,0,0,0,1.08-.55l2.21-3v2.38L3.33,22H6v3.67a1.5,1.5,0,0,0,1.5,1.5h0A1.5,1.5,0,0,0,9,25.67V22h1v3.67a1.5,1.5,0,0,0,1.5,1.5h0A1.5,1.5,0,0,0,13,25.67Z"/><rect class="cls-2" x="4" y="27" width="25" height="2"/></g></svg>