<svg xmlns="http://www.w3.org/2000/svg" viewBox="0 0 32 32"><defs><style>.cls-1{fill:#211c1b;}.cls-2{fill:#f15a29;}</style></defs><g id="icons_copy" data-name="icons copy"><path class="cls-1" d="M22,20H19V17a1,1,0,0,0-1-1H14a1,1,0,0,0-1,1v5H10a1,1,0,0,0-1,1v6a1,1,0,0,0,1,1H22a1,1,0,0,0,1-1V21A1,1,0,0,0,22,20ZM11,24h2v4H11Zm4-1V18h2V28H15Zm6,5H19V22h2Z"/><rect class="cls-1" x="15" y="7" width="8" height="2"/><rect class="cls-1" x="15" y="11" width="8" height="2"/><path class="cls-2" d="M25,2H12.56a2,2,0,0,0-1.47.65l-5.5,6.5A2,2,0,0,0,5,10.56V23.5a2,2,0,0,0,2,2l0-14.5h4a2,2,0,0,0,2-2V4H25V25.5a2,2,0,0,0,2-2V4A2,2,0,0,0,25,2ZM8.33,9,11,5.84V9Z"/></g></svg>