<svg xmlns="http://www.w3.org/2000/svg" viewBox="0 0 32 32"><defs><style>.cls-1{fill:#fff;}</style></defs><g id="icons_copy" data-name="icons copy"><rect class="cls-1" x="15" y="7" width="9" height="2"/><rect class="cls-1" x="15" y="11" width="9" height="2"/><path class="cls-1" d="M26,2H12.56a2,2,0,0,0-1.41.59L4.59,9.15A2,2,0,0,0,4,10.56V28a2,2,0,0,0,2,2H26a2,2,0,0,0,2-2V4A2,2,0,0,0,26,2ZM11,5.56V9H7.56ZM13,28H11V24h2Zm2-5V18h2V28H15Zm4,5V22h2v6Zm7,0H23V21a1,1,0,0,0-1-1H19V17a1,1,0,0,0-1-1H14a1,1,0,0,0-1,1v5H10a1,1,0,0,0-1,1v5H6V11h5a2,2,0,0,0,2-2V4H26Z"/></g></svg>