<svg xmlns="http://www.w3.org/2000/svg" viewBox="0 0 32 32"><defs><style>.cls-1{fill:#f15a29;}.cls-2{fill:#211c1b;}</style></defs><g id="icons_copy" data-name="icons copy"><path class="cls-1" d="M14,30H6a2,2,0,0,1-2-2V10.56a2,2,0,0,1,.59-1.41l5.5-6.5A2,2,0,0,1,11.56,2H24a2,2,0,0,1,2,2V16H24V4H11.56l-5.5,6.5L6,28h8Z"/><path class="cls-2" d="M22,17.1A3,3,0,0,1,25,20.05h0A3,3,0,0,1,22,23h0a3,3,0,0,1,0-5.9Z"/><path class="cls-2" d="M28,30V28.07c0-2.43-4-3.52-6-3.52s-6,1.09-6,3.53V30h0Z"/><polygon class="cls-1" points="20 12 16 12 16 8 14 8 14 12 10 12 10 14 14 14 14 18 16 18 16 14 20 14 20 12"/><rect class="cls-1" x="8" y="22" width="7" height="2"/></g></svg>