<svg xmlns="http://www.w3.org/2000/svg" viewBox="0 0 32 32"><defs><style>.cls-1{fill:#f15a29;}.cls-2{fill:#211c1b;}</style></defs><g id="icons_copy" data-name="icons copy"><path class="cls-1" d="M18.48,12.55a3.88,3.88,0,0,1,0-7.76h0a3.88,3.88,0,1,1,0,7.76Zm0-5.76a1.88,1.88,0,1,0,1.88,1.88,1.88,1.88,0,0,0-1.88-1.88Z"/><path class="cls-1" d="M18.5,15.23a7.31,7.31,0,0,1,3.5,1V14a9.35,9.35,0,0,0-3.5-.76c-2.27,0-6.5,1.31-6.5,4.45v1.71a1.59,1.59,0,0,0,.48,1.15,1.53,1.53,0,0,0,1.1.46H22V19H14V17.68C14,16.16,16.91,15.23,18.5,15.23Z"/><path class="cls-1" d="M9.2,10a4,4,0,0,1,0-8h0a4,4,0,0,1,0,8Zm0-6a2,2,0,1,0,2,2A2,2,0,0,0,9.2,4Z"/><path class="cls-1" d="M2.81,20h7.58A3.45,3.45,0,0,1,10,18.39V18H4V15.81c0-1.6,3.42-2.76,5.2-2.76a8.22,8.22,0,0,1,2.71.55,8.23,8.23,0,0,1,1.8-1.21l-.18-.26A10.75,10.75,0,0,0,9.2,11.05c-2.58,0-7.2,1.59-7.2,4.76V19a1,1,0,0,0,.29.71A1.08,1.08,0,0,0,2.81,20Z"/><polygon class="cls-2" points="28 23 28 17 28 15 26 15 24 15 24 17 26 17 26 23 24 23 24 25 30 25 30 23 28 23"/><rect class="cls-2" x="26" y="11" width="2" height="2"/><rect class="cls-2" x="9" y="23" width="13" height="2"/><rect class="cls-2" x="14" y="27" width="14" height="2"/></g></svg>