<svg xmlns="http://www.w3.org/2000/svg" viewBox="0 0 32 32"><defs><style>.cls-1{fill:#fff;}</style></defs><g id="icons_copy" data-name="icons copy"><path class="cls-1" d="M14.43,24.06a3.65,3.65,0,1,0-3.64-3.64A3.65,3.65,0,0,0,14.43,24.06Zm0-5.29a1.65,1.65,0,1,1-1.64,1.65A1.65,1.65,0,0,1,14.43,18.77Z"/><path class="cls-1" d="M19,30V28a3,3,0,0,0-3-3H13a3,3,0,0,0-3,3v2h2V28a1,1,0,0,1,1-1h3a1,1,0,0,1,1,1v2Z"/><path class="cls-1" d="M21.5,9.85A4.5,4.5,0,1,0,17,5.35,4.51,4.51,0,0,0,21.5,9.85Zm0-7A2.5,2.5,0,1,1,19,5.35,2.5,2.5,0,0,1,21.5,2.85Z"/><path class="cls-1" d="M10.28,11.85A4.28,4.28,0,1,0,6,7.57,4.28,4.28,0,0,0,10.28,11.85Zm0-6.56A2.28,2.28,0,1,1,8,7.57,2.28,2.28,0,0,1,10.28,5.29Z"/><path class="cls-1" d="M4,15v7a1,1,0,0,0,1,1H6v7H8V23H9V21H6V15a1,1,0,0,1,1-1h7a1,1,0,0,1,1,1v1h2V13a1,1,0,0,1,1-1h7a1,1,0,0,1,1,1v7H20v2h3v8h2V22h2a1,1,0,0,0,1-1V13a3,3,0,0,0-3-3H18a3,3,0,0,0-2.88,2.22A3,3,0,0,0,14,12H7A3,3,0,0,0,4,15Z"/></g></svg>