<svg xmlns="http://www.w3.org/2000/svg" viewBox="0 0 32 32"><defs><style>.cls-1{fill:#211c1b;}.cls-2{fill:#f15a29;}</style></defs><g id="icons_copy" data-name="icons copy"><path class="cls-1" d="M18,10.1a3,3,0,0,1,2.95,3h0A3,3,0,0,1,18,16h0a3,3,0,0,1,0-5.9Z"/><path class="cls-1" d="M24,23V21.07c0-2.43-4-3.52-6-3.52s-6,1.09-6,3.53V23h0Z"/><path class="cls-2" d="M26,2H8A3,3,0,0,0,5,5V7H3V9H5v2H3v2H5v2H3v2H5v2H3v2H5v2H3v2H5v2a3,3,0,0,0,3,3H26a3,3,0,0,0,3-3V5A3,3,0,0,0,26,2Zm1,25a1,1,0,0,1-1,1H8a1,1,0,0,1-1-1V25H9V23H7V21H9V19H7V17H9V15H7V13H9V11H7V9H9V7H7V5A1,1,0,0,1,8,4H26a1,1,0,0,1,1,1Z"/></g></svg>