<svg xmlns="http://www.w3.org/2000/svg" viewBox="0 0 32 32"><defs><style>.cls-1{fill:#211c1b;}.cls-2{fill:#f15a29;}</style></defs><g id="icons_copy" data-name="icons copy"><path class="cls-1" d="M28.41,21.26a34.36,34.36,0,0,0-3.59-4.42l-.5-.57a2.82,2.82,0,0,0,.29-.18,1,1,0,0,0-.4-1.76l1.61-2.12a1.93,1.93,0,0,0,.31-1.3,1.91,1.91,0,0,0-.5-1.07,2,2,0,0,0-1.06-.61,1.91,1.91,0,0,0-1.32.21.51.51,0,0,0-.13.09,4.93,4.93,0,0,1-1.27.71L21.59,10A2.39,2.39,0,0,0,20,9.19a2.39,2.39,0,0,0-1.59.82l-.26.23a4.66,4.66,0,0,1-1.27-.71l-.12-.08a1.82,1.82,0,0,0-1-.25l-.37,0a2,2,0,0,0-1.57,1.69,2,2,0,0,0,.35,1.35l1.56,2a1,1,0,0,0-.5,1.76,2.36,2.36,0,0,0,.36.26l-.53.6-.78.9a25.88,25.88,0,0,0-2.74,3.43,4.91,4.91,0,0,0-.06,5A6.13,6.13,0,0,0,16.88,29h6.24a6.08,6.08,0,0,0,5.32-2.8A4.86,4.86,0,0,0,28.41,21.26Zm-10.68-9a2,2,0,0,0,2-.73l.24-.21.24.21a2,2,0,0,0,2,.74,7,7,0,0,0,1.65-.8l-1.63,2.16-1.37,1.56c-.3,0-.59,0-.92,0s-.61,0-.91,0l-1.31-1.51-1.68-2.21A6.7,6.7,0,0,0,17.73,12.21Zm9,13A4.11,4.11,0,0,1,23.12,27H16.88a4.1,4.1,0,0,1-3.62-1.79,2.91,2.91,0,0,1,.08-3,25.66,25.66,0,0,1,2.49-3.09l.79-.9.94-1.08a1.4,1.4,0,0,0,.09-.17l1.14.13c.34,0,.69,0,1,0H20c.42,0,.82,0,1.23,0S22,17,22.34,17a.64.64,0,0,0,.1.18l.89,1a33.87,33.87,0,0,1,3.33,4.07A2.87,2.87,0,0,1,26.72,25.18Z"/><path class="cls-2" d="M12,9V8.5A3.5,3.5,0,0,0,8.5,5H8V3H6V5H5.5a3.5,3.5,0,0,0,0,7h3a1.5,1.5,0,0,1,0,3h-3A1.5,1.5,0,0,1,4,13.5V13H2v.5A3.5,3.5,0,0,0,5.5,17H6v2H8V17h.5a3.5,3.5,0,0,0,0-7h-3a1.5,1.5,0,0,1,0-3h3A1.5,1.5,0,0,1,10,8.5V9Z"/><rect class="cls-2" x="14" y="4" width="5" height="2"/><rect class="cls-2" x="2" y="22" width="7" height="2"/><rect class="cls-1" x="7" y="27" width="23" height="2"/><rect class="cls-1" x="2" y="27" width="3" height="2"/></g></svg>