<svg xmlns="http://www.w3.org/2000/svg" viewBox="0 0 32 32"><defs><style>.cls-1{fill:#fff;}</style></defs><g id="icons_copy" data-name="icons copy"><path class="cls-1" d="M2,16v6a2,2,0,0,0,2,2H6v1a2,2,0,0,0,4,0V24H22v1a2,2,0,0,0,4,0V24h2a2,2,0,0,0,2-2V16a3,3,0,0,0-2.74-3L27,12H28.5a.46.46,0,0,0,.42-.67l-.23-.45A1.59,1.59,0,0,0,27.27,10H26.4l-.52-1.82A3,3,0,0,0,23,6H8A3,3,0,0,0,5.12,8.18L4.6,10h-1a1.59,1.59,0,0,0-1.42.88L2,11.33a.46.46,0,0,0,.41.67H4l.07-.15-.42,1.49A3,3,0,0,0,2,16Zm26,0v6H4V16a1,1,0,0,1,1-1H27A1,1,0,0,1,28,16ZM7.05,8.73A1,1,0,0,1,8,8H23a1,1,0,0,1,1,.73L25.17,13H5.83Z"/><circle class="cls-1" cx="7" cy="18" r="2"/><circle class="cls-1" cx="25" cy="18" r="2"/><rect class="cls-1" x="11" y="18" width="10" height="2"/></g></svg>