<svg xmlns="http://www.w3.org/2000/svg" viewBox="0 0 32 32"><defs><style>.cls-1{fill:#231f20;}.cls-2{fill:#211c1b;}.cls-3{fill:#f15a29;}</style></defs><g id="icons_copy" data-name="icons copy"><path class="cls-1" d="M6.5,24.5h3a0,0,0,0,1,0,0v2.16a.84.84,0,0,1-.84.84H7.34a.84.84,0,0,1-.84-.84V24.5A0,0,0,0,1,6.5,24.5Z"/><path class="cls-1" d="M8.67,28H7.33A1.34,1.34,0,0,1,6,26.67V24.5a.5.5,0,0,1,.5-.5h3a.5.5,0,0,1,.5.5v2.17A1.34,1.34,0,0,1,8.67,28ZM7,25v1.67a.33.33,0,0,0,.33.33H8.67A.33.33,0,0,0,9,26.67V25Z"/><path class="cls-1" d="M22.5,24.5h3a0,0,0,0,1,0,0v2.16a.84.84,0,0,1-.84.84H23.34a.84.84,0,0,1-.84-.84V24.5a0,0,0,0,1,0,0Z"/><path class="cls-1" d="M24.67,28H23.33A1.34,1.34,0,0,1,22,26.67V24.5a.5.5,0,0,1,.5-.5h3a.5.5,0,0,1,.5.5v2.17A1.34,1.34,0,0,1,24.67,28ZM23,25v1.67a.33.33,0,0,0,.33.33h1.34a.33.33,0,0,0,.33-.33V25Z"/><path class="cls-2" d="M26.54,11h1.68a1.57,1.57,0,0,1,1.42.88l.23.45a.46.46,0,0,1-.42.67H27.34Z"/><path class="cls-2" d="M6.5,11H4.4A1.59,1.59,0,0,0,3,11.88l-.22.45a.46.46,0,0,0,.41.67H6Z"/><path class="cls-3" d="M27.35,16h-22a1,1,0,0,1-.78-.38,1,1,0,0,1-.19-.86L6,8.16A3,3,0,0,1,8.81,6H23.9a3,3,0,0,1,2.82,2.12l1.61,6.64a1,1,0,0,1-.19.86A1,1,0,0,1,27.35,16ZM6.63,14H26.08l-1.3-5.37A.93.93,0,0,0,23.9,8H8.81a.93.93,0,0,0-.89.67Z"/><path class="cls-3" d="M28,25H4a2,2,0,0,1-2-2V17a3,3,0,0,1,3-3H27a3,3,0,0,1,3,3v6A2,2,0,0,1,28,25ZM5,16a1,1,0,0,0-1,1v6H28V17a1,1,0,0,0-1-1Z"/><path class="cls-3" d="M7,21a2,2,0,1,1,2-2A2,2,0,0,1,7,21Zm0-2Z"/><path class="cls-3" d="M25,21a2,2,0,1,1,2-2A2,2,0,0,1,25,21Zm0-2Z"/><rect class="cls-2" x="12" y="19" width="8" height="2"/></g></svg>