<svg xmlns="http://www.w3.org/2000/svg" viewBox="0 0 32 32"><defs><style>.cls-1{fill:#211c1b;}.cls-2{fill:#f15a29;}</style></defs><g id="icons_copy" data-name="icons copy"><path class="cls-1" d="M7,26.9a.9.9,0,0,1-.9-.9V20.16l-.8.69A.9.9,0,1,1,4.12,19.5l2.24-2a.94.94,0,0,1,1.54.68V26A.9.9,0,0,1,7,26.9Z"/><path class="cls-1" d="M16,26.9H11a.9.9,0,0,1-.9-.9,1.06,1.06,0,0,1,.25-.68L12,23.56c.81-.84,2.16-2.24,2.16-3.39a.92.92,0,0,0-.92-1.05,1.35,1.35,0,0,0-1.23,1.12.9.9,0,1,1-1.73-.47,3.05,3.05,0,0,1,3-2.45A2.69,2.69,0,0,1,16,20.17c0,1.88-1.6,3.54-2.67,4.64l-.27.29H16a.9.9,0,0,1,0,1.8ZM11,26h0Z"/><path class="cls-1" d="M21.38,26.9a2.87,2.87,0,0,1-2.89-2.08.91.91,0,0,1,.67-1.09.9.9,0,0,1,1.08.67,1.1,1.1,0,0,0,1.14.7,1.12,1.12,0,0,0,1.22-1.16c0-.73-.5-1.16-1.34-1.16H21A.9.9,0,0,1,21,21h.26c.56,0,1.23-.16,1.23-.91s-.33-.93-1-.93a1.21,1.21,0,0,0-1.16.66.91.91,0,0,1-1.22.38A.9.9,0,0,1,18.74,19a3,3,0,0,1,2.75-1.62,2.74,2.74,0,0,1,2.12,4.55,3,3,0,0,1-2.23,5Z"/><rect class="cls-2" x="8" y="5" width="10" height="2"/><rect class="cls-1" x="4" y="5" width="2" height="2"/><rect class="cls-1" x="4" y="9" width="2" height="2"/><rect class="cls-1" x="4" y="13" width="2" height="2"/><rect class="cls-2" x="8" y="9" width="11" height="2"/><rect class="cls-2" x="8" y="13" width="12" height="2"/><path class="cls-1" d="M28.65,15.08c-.45-.54-2.93-3.59-2.93-3.59s3.38-.5,3-.84L20.48,5.46a.12.12,0,0,0-.17.13l3,9.25c.21.51,1.45-2.65,1.56-2.64L27.71,16S28.71,15.37,28.65,15.08Z"/></g></svg>