<svg xmlns="http://www.w3.org/2000/svg" viewBox="0 0 32 32"><defs><style>.cls-1{fill:#f15a29;}.cls-2{fill:#211c1b;}</style></defs><g id="exp"><path class="cls-1" d="M29,25.8a.8.8,0,0,1-.8-.8V18.79l-.81.75a.8.8,0,1,1-1.09-1.17l2.11-2A.84.84,0,0,1,29.8,17v8A.8.8,0,0,1,29,25.8Z"/><path class="cls-1" d="M25,25.8H20a.8.8,0,0,1-.8-.8.91.91,0,0,1,.21-.59L21,22.65c.78-.85,2.07-2.27,2.07-3.48,0-.27-.06-1.15-.92-1.15S21,18.85,21,19.2a.8.8,0,0,1-1.55-.39,2.85,2.85,0,0,1,2.74-2.39,2.56,2.56,0,0,1,2.52,2.75c0,1.82-1.49,3.47-2.48,4.55l-.43.48H25a.8.8,0,0,1,0,1.6ZM20,25h0Z"/><rect class="cls-2" x="6" y="12" width="14" height="2"/><rect class="cls-2" x="6" y="16" width="4" height="2"/><rect class="cls-2" x="2" y="16" width="2" height="2"/><rect class="cls-2" x="6" y="20" width="4" height="2"/><rect class="cls-2" x="2" y="20" width="2" height="2"/><rect class="cls-2" x="2" y="12" width="2" height="2"/><rect class="cls-2" x="6" y="8" width="14" height="2"/><rect class="cls-2" x="2" y="8" width="2" height="2"/><path class="cls-1" d="M15,25.8A2.78,2.78,0,0,1,12.2,23V19.19A2.77,2.77,0,0,1,15,16.42H15a2.77,2.77,0,0,1,2.77,2.77V23A2.77,2.77,0,0,1,15,25.8ZM15,18a1.18,1.18,0,0,0-1.17,1.17V23A1.18,1.18,0,0,0,15,24.2,1.19,1.19,0,0,0,16.2,23V19.19A1.18,1.18,0,0,0,15,18Z"/></g></svg>