<svg xmlns="http://www.w3.org/2000/svg" viewBox="0 0 32 32"><defs><style>.cls-1{fill:#f15a29;}.cls-2{fill:#211c1b;}</style></defs><g id="icons_copy" data-name="icons copy"><path class="cls-1" d="M26,21H24a1,1,0,0,1-1-1V19a1,1,0,0,1,1-1h2a1,1,0,0,1,1,1h2a3,3,0,0,0-3-3V14H24v2a3,3,0,0,0-3,3v1a3,3,0,0,0,3,3h2a1,1,0,0,1,1,1v1a1,1,0,0,1-1,1H24a1,1,0,0,1-1-1H21a3,3,0,0,0,3,3v2h2V28a3,3,0,0,0,3-3V24A3,3,0,0,0,26,21Z"/><path class="cls-2" d="M14,25A11,11,0,0,1,6.22,6.22a11,11,0,0,1,15.56,0,11.09,11.09,0,0,1,2.73,4.51l-1.91.59a9,9,0,0,0-2.24-3.68,9,9,0,1,0-1.88,14.17l1,1.73A11,11,0,0,1,14,25Z"/><polygon class="cls-2" points="20 15 13 15 13 8 15 8 15 13 20 13 20 15"/></g></svg>