<svg xmlns="http://www.w3.org/2000/svg" viewBox="0 0 32 32"><defs><style>.cls-1{fill:#f15a29;}.cls-2{fill:#211c1b;}</style></defs><g id="icons_copy" data-name="icons copy"><path class="cls-1" d="M9,23H4a2,2,0,0,1-2-2V7A2,2,0,0,1,4,5H26a2,2,0,0,1,2,2v8H26V7H4V21H9Z"/><path class="cls-2" d="M13.05,26.12a.91.91,0,0,1-.9-.9V19.38l-.79.69a.9.9,0,1,1-1.19-1.36l2.25-1.95a.9.9,0,0,1,.59-.22.94.94,0,0,1,.94.9v7.78A.9.9,0,0,1,13.05,26.12Z"/><path class="cls-2" d="M22.05,26.12h-5a.91.91,0,0,1-.9-.9,1.06,1.06,0,0,1,.25-.68l1.69-1.76c.81-.84,2.17-2.24,2.17-3.39a.92.92,0,0,0-.93-1.05,1.34,1.34,0,0,0-1.22,1.12.9.9,0,0,1-1.11.63.89.89,0,0,1-.63-1.1,3.06,3.06,0,0,1,3-2.45,2.7,2.7,0,0,1,2.73,2.85c0,1.88-1.61,3.54-2.68,4.64l-.27.29h2.94a.9.9,0,0,1,0,1.8Zm-5-1h0Z"/><path class="cls-2" d="M27.43,26.12A2.87,2.87,0,0,1,24.54,24a.9.9,0,0,1,1.76-.41,1.08,1.08,0,0,0,1.13.7,1.12,1.12,0,0,0,1.22-1.17c0-.72-.5-1.15-1.34-1.15h-.26a.9.9,0,1,1,0-1.8h.26c.56,0,1.24-.16,1.24-.92s-.34-.92-1-.92a1.21,1.21,0,0,0-1.17.66.89.89,0,0,1-1.22.37.88.88,0,0,1-.37-1.21,3,3,0,0,1,2.76-1.63,2.65,2.65,0,0,1,2.8,2.73,2.61,2.61,0,0,1-.69,1.83,2.87,2.87,0,0,1,.8,2A2.91,2.91,0,0,1,27.43,26.12Z"/><rect class="cls-2" x="6" y="9" width="18" height="2"/><rect class="cls-2" x="6" y="13" width="11" height="2"/></g></svg>