<svg xmlns="http://www.w3.org/2000/svg" viewBox="0 0 32 32"><defs><style>.cls-1{fill:#f15a29;}.cls-2{fill:#211c1b;}</style></defs><g id="icons_copy" data-name="icons copy"><path class="cls-1" d="M19,2H11.56a2,2,0,0,0-1.41.59L3.59,9.15A2,2,0,0,0,3,10.56V23a2,2,0,0,0,2,2H18V23H5V11h5a2,2,0,0,0,2-2V4h7V7h2V4A2,2,0,0,0,19,2ZM6.56,9,10,5.56V9Z"/><rect class="cls-1" x="7" y="15" width="5" height="2"/><rect class="cls-1" x="7" y="19" width="9" height="2"/><path class="cls-2" d="M27,7V8H17V7H15V17h2V16h2V27a3,3,0,0,0,6,0V16h2v1h2V7ZM23,27a1,1,0,0,1-2,0V16h2ZM17,14V10H27v4Z"/><rect class="cls-2" x="2" y="28" width="12" height="2"/><rect class="cls-2" x="24" y="2" width="6" height="2"/></g></svg>