<svg xmlns="http://www.w3.org/2000/svg" viewBox="0 0 32 32"><defs><style>.cls-1{fill:#fff;}</style></defs><g id="icons_copy" data-name="icons copy"><rect class="cls-1" x="25" y="5" width="2" height="12"/><polygon class="cls-1" points="27 27 27 21 30 21 30 19 22 19 22 21 25 21 25 27 27 27"/><rect class="cls-1" x="15" y="5" width="2" height="6"/><polygon class="cls-1" points="17 15 20 15 20 13 12 13 12 15 15 15 15 27 17 27 17 15"/><rect class="cls-1" x="5" y="5" width="2" height="10"/><polygon class="cls-1" points="5 27 7 27 7 19 10 19 10 17 2 17 2 19 5 19 5 27"/></g></svg>