<svg xmlns="http://www.w3.org/2000/svg" viewBox="0 0 32 32"><defs><style>.cls-1{fill:#fff;}</style></defs><g id="icons_copy" data-name="icons copy"><path class="cls-1" d="M26.6,9.4,15,19.75a3.69,3.69,0,0,0-3.95,1.05,6,6,0,0,0-1,2.33,5.26,5.26,0,0,1-.43,1.29A1.64,1.64,0,0,1,9,25.1c-.19.1-.79.4-1,.5a1,1,0,0,0-.61,1.71,9.94,9.94,0,0,0,3.31,2.07,7.22,7.22,0,0,0,2.43.44,6.63,6.63,0,0,0,1.54-.19c1.92-.48,4.11-1.86,4.47-4.29a4.21,4.21,0,0,0,0-.51A4.64,4.64,0,0,0,19,23.66L29.25,11.87A1.82,1.82,0,0,0,26.6,9.4ZM17.08,25.05c-.22,1.45-1.74,2.33-3,2.64a4.84,4.84,0,0,1-2.8-.19A7.55,7.55,0,0,1,10,26.84a3.78,3.78,0,0,0,1.48-1.46,7.5,7.5,0,0,0,.61-1.76,4.33,4.33,0,0,1,.59-1.57c.49-.62,1.44-.48,2-.35a5.17,5.17,0,0,1,1,.41,3.1,3.1,0,0,1,1.49,2.64C17.1,24.85,17.09,25,17.08,25.05Zm1-3.37a4.93,4.93,0,0,0-1.06-1l8.78-7.85Z"/><path class="cls-1" d="M8,22H5V4H15.59L20,8.41V12h2V8a1,1,0,0,0-.29-.71l-5-5A1,1,0,0,0,16,2H5A2,2,0,0,0,3,4V22a2,2,0,0,0,2,2H8Z"/><rect class="cls-1" x="8" y="7" width="7" height="2"/><rect class="cls-1" x="7" y="12" width="11" height="2"/><rect class="cls-1" x="7" y="17" width="5" height="2"/></g></svg>