<svg xmlns="http://www.w3.org/2000/svg" viewBox="0 0 32 32"><defs><style>.cls-1{fill:#211c1b;}.cls-2{fill:#f15a29;}</style></defs><g id="icons_copy" data-name="icons copy"><path class="cls-1" d="M27,12a1,1,0,0,1-1-1V6.16l-.41.36A1,1,0,1,1,24.28,5l2-1.76A1,1,0,0,1,27,3a1,1,0,0,1,1,1v7A1,1,0,0,1,27,12Z"/><path class="cls-1" d="M28.77,24.18H24.26a1,1,0,0,1-1-1,1.14,1.14,0,0,1,.27-.74l1.53-1.6c.71-.74,1.9-2,1.9-2.93,0-.35-.11-.76-.65-.76s-.83.55-.92.87a1,1,0,1,1-1.93-.52,2.94,2.94,0,0,1,2.85-2.35A2.61,2.61,0,0,1,29,17.91c0,1.74-1.43,3.25-2.41,4.27h2.22a1,1,0,1,1,0,2Zm-4.51-1.05h0Z"/><path class="cls-1" d="M18.34,29.72a2.78,2.78,0,0,1-2.79-2,1,1,0,0,1,1.95-.46.79.79,0,0,0,.84.49.83.83,0,0,0,.92-.87c0-.74-.65-.85-1-.85H18a1,1,0,0,1,0-2h.23c.93,0,.93-.48.93-.64,0-.58-.38-.65-.71-.65a.91.91,0,0,0-.89.5,1,1,0,0,1-1.77-.94,2.92,2.92,0,0,1,2.66-1.56,2.57,2.57,0,0,1,2.71,2.65A2.5,2.5,0,0,1,20.59,25a2.88,2.88,0,0,1-2.25,4.72Z"/><rect class="cls-2" x="6" y="13" width="11" height="2"/><rect class="cls-2" x="12" y="9" width="5" height="2"/><rect class="cls-2" x="6" y="17" width="11" height="2"/><rect class="cls-2" x="6" y="21" width="7" height="2"/><path class="cls-2" d="M20.41,2.59A2,2,0,0,0,19,2H9.56a2,2,0,0,0-.76.15,1.83,1.83,0,0,0-.65.44L2.59,8.15a1.83,1.83,0,0,0-.44.65A2,2,0,0,0,2,9.56V25a2,2,0,0,0,2,2h9V25H4V11H8a2,2,0,0,0,2-2V4h9V17h2V4A2,2,0,0,0,20.41,2.59ZM4.56,9,8,5.56V9Z"/></g></svg>