<svg xmlns="http://www.w3.org/2000/svg" viewBox="0 0 32 32"><defs><style>.cls-1{fill:#f15a29;}.cls-2{fill:#211c1b;}.cls-3{fill:#231f20;}</style></defs><g id="icons_copy" data-name="icons copy"><path class="cls-1" d="M17,30H7a2,2,0,0,1-2-2V4A2,2,0,0,1,7,2H22a1,1,0,0,1,.71.29l5,5A1,1,0,0,1,28,8v9H26V8.41L21.59,4H7V28H17Z"/><rect class="cls-1" x="10" y="7" width="11" height="2"/><path class="cls-2" d="M19.83,22.29a6.83,6.83,0,0,1-2.1-1,11.28,11.28,0,0,0,2.32-5.37H22a.9.9,0,0,0,0-1.8H17.35l-1-2.43a.9.9,0,0,0-1.17-.51.91.91,0,0,0-.5,1.17l.71,1.77H11a.9.9,0,0,0,0,1.8h1.89a11.21,11.21,0,0,0,2.25,5.37,7.17,7.17,0,0,1-2.76,1.19.9.9,0,0,0,.18,1.78l.18,0a8.79,8.79,0,0,0,3.7-1.69A8.54,8.54,0,0,0,19.16,24ZM14.71,15.9h3.52A9.34,9.34,0,0,1,16.44,20,9.24,9.24,0,0,1,14.71,15.9Z"/><path class="cls-3" d="M28,29.34a.91.91,0,0,1-.84-.57l-.73-1.87H22.08l-.74,1.87a.9.9,0,1,1-1.67-.66l3.75-9.44a.89.89,0,0,1,.83-.57,1,1,0,0,1,.9.57l3.69,9.44a.91.91,0,0,1-.51,1.17A1,1,0,0,1,28,29.34ZM22.8,25.1h2.93l-1.46-3.72Z"/></g></svg>