<svg xmlns="http://www.w3.org/2000/svg" viewBox="0 0 32 32"><defs><style>.cls-1{fill:#f15a29;}.cls-2{fill:#211c1b;}</style></defs><g id="exp"><polygon class="cls-1" points="4.94 12.1 2.11 9.27 3.52 7.85 4.94 9.27 8.47 5.73 9.89 7.15 4.94 12.1"/><polygon class="cls-1" points="4.94 18.1 2.11 15.27 3.52 13.85 4.94 15.27 8.47 11.73 9.89 13.15 4.94 18.1"/><polygon class="cls-1" points="4.94 24.1 2.11 21.27 3.52 19.85 4.94 21.27 8.47 17.73 9.89 19.15 4.94 24.1"/><rect class="cls-1" x="12" y="9" width="12" height="2"/><rect class="cls-1" x="12" y="15" width="5" height="2"/><rect class="cls-1" x="12" y="21" width="6" height="2"/><path class="cls-2" d="M30.3,23.39l-2.9-2.9a5,5,0,0,0-.63-6.29,5,5,0,1,0-3.54,8.53A5,5,0,0,0,26,21.9l2.9,2.9Zm-9.19-3.54a3,3,0,1,1,5.12-2.12,3,3,0,0,1-.88,2.12A3.06,3.06,0,0,1,21.11,19.85Z"/></g></svg>