<svg xmlns="http://www.w3.org/2000/svg" viewBox="0 0 32 32"><defs><style>.cls-1{fill:#f15a29;}.cls-2{fill:#211c1b;}</style></defs><g id="exp"><path class="cls-1" d="M9,20H7v-.18A6.14,6.14,0,0,1,9.53,15l.24-.21a2.51,2.51,0,0,0,0-3.54,2.57,2.57,0,0,0-3.54,0,2.51,2.51,0,0,0,0,3.54L4.82,16.2a4.5,4.5,0,1,1,6.36,0,3.08,3.08,0,0,1-.43.38A4.12,4.12,0,0,0,9,19.82Z"/><rect class="cls-1" x="7" y="22" width="2" height="2"/><rect class="cls-2" x="19" y="16" width="9" height="2"/><rect class="cls-2" x="15" y="16" width="2" height="2"/><rect class="cls-2" x="19" y="21" width="9" height="2"/><rect class="cls-2" x="15" y="21" width="2" height="2"/><rect class="cls-2" x="19" y="11" width="9" height="2"/><rect class="cls-2" x="15" y="11" width="2" height="2"/><rect class="cls-2" x="19" y="16" width="9" height="2"/><rect class="cls-2" x="15" y="16" width="2" height="2"/><rect class="cls-2" x="19" y="21" width="9" height="2"/><rect class="cls-2" x="15" y="21" width="2" height="2"/><rect class="cls-2" x="19" y="11" width="9" height="2"/><rect class="cls-2" x="15" y="11" width="2" height="2"/></g></svg>