<svg xmlns="http://www.w3.org/2000/svg" viewBox="0 0 32 32"><defs><style>.cls-1{fill:#211c1b;}.cls-2{fill:#f15a29;}</style></defs><g id="icons_copy" data-name="icons copy"><path class="cls-1" d="M27,10H8A1,1,0,0,1,8,8H27a1,1,0,0,1,0,2Z"/><path class="cls-2" d="M26,27H6.5A4.51,4.51,0,0,1,2,22.5V8.5A4.51,4.51,0,0,1,6.5,4H26a2,2,0,0,1,2,2v9H26V6H6.5A2.5,2.5,0,0,0,4,8.5v14A2.5,2.5,0,0,0,6.5,25H26V20h2v5A2,2,0,0,1,26,27Z"/><path class="cls-1" d="M28,21H23.49a3.5,3.5,0,0,1,0-7H28a2,2,0,0,1,2,2V19A2,2,0,0,1,28,21Zm0-5-4.51,0a1.5,1.5,0,0,0,0,3H28Z"/></g></svg>