<svg xmlns="http://www.w3.org/2000/svg" viewBox="0 0 32 32"><defs><style>.cls-1{fill:#f15a29;}.cls-2{fill:#211c1b;}</style></defs><g id="icons_copy" data-name="icons copy"><path class="cls-1" d="M12,10V9.5A4.49,4.49,0,0,0,8,5.05V3H6V5.05a4.49,4.49,0,0,0,.5,9h1a2.5,2.5,0,0,1,0,5h-1A2.5,2.5,0,0,1,4,16.5V16H2v.5A4.49,4.49,0,0,0,6,21V23H8V21A4.49,4.49,0,0,0,7.5,12h-1a2.5,2.5,0,0,1,0-5h1A2.5,2.5,0,0,1,10,9.5V10Z"/><rect class="cls-1" x="14" y="7" width="8" height="2"/><rect class="cls-1" x="24" y="7" width="3" height="2"/><rect class="cls-1" x="2" y="26" width="7" height="2"/><rect class="cls-1" x="11" y="26" width="3" height="2"/><rect class="cls-1" x="17" y="11" width="3" height="2"/><rect class="cls-1" x="22" y="11" width="8" height="2"/><path class="cls-2" d="M29,23V21H26.9a5,5,0,0,0-.73-1.75l1.49-1.49-1.42-1.42-1.49,1.49A5,5,0,0,0,23,17.1V15H21v2.1a5,5,0,0,0-1.75.73l-1.49-1.49-1.42,1.42,1.49,1.49A5,5,0,0,0,17.1,21H15v2h2.1a5,5,0,0,0,.73,1.75l-1.49,1.49,1.42,1.42,1.49-1.49A5,5,0,0,0,21,26.9V29h2V26.9a5,5,0,0,0,1.75-.73l1.49,1.49,1.42-1.42-1.49-1.49A5,5,0,0,0,26.9,23Zm-7,2a3,3,0,1,1,3-3A3,3,0,0,1,22,25Z"/></g></svg>