<svg xmlns="http://www.w3.org/2000/svg" viewBox="0 0 32 32"><defs><style>.cls-1{fill:#f15a29;}.cls-2{fill:#211c1b;}</style></defs><g id="icons_copy" data-name="icons copy"><path class="cls-1" d="M29.05,28.67a1.19,1.19,0,0,1-.32-.05l-4.24-1.41A1.06,1.06,0,0,1,24.1,27l-7.64-7.64,1.42-1.42,7.47,7.48,2.12.7L26.76,24,19.09,16.3l1.42-1.42,7.83,7.84a1.06,1.06,0,0,1,.24.39L30,27.35a1,1,0,0,1-.95,1.32Z"/><path class="cls-1" d="M16.74,14l1.42-1.42L10.67,5A3.09,3.09,0,0,0,6.42,5a3,3,0,0,0,0,4.25l7.33,7.33,1.42-1.42-4-4,1.41-1.41Zm-7-4.13L7.84,7.87a1,1,0,0,1,0-1.41,1,1,0,0,1,1.41,0L11.2,8.4Z"/><path class="cls-2" d="M27.79,5.13a2,2,0,0,0-2.68-.07L11.38,17.32a4.2,4.2,0,0,0-4.56,1.16,6.8,6.8,0,0,0-1.1,2.67,6.71,6.71,0,0,1-.52,1.57,2.16,2.16,0,0,1-.92.87c-.25.14-1,.5-1.28.61a1,1,0,0,0-.66.3,1,1,0,0,0,0,1.42h0a11.44,11.44,0,0,0,3.84,2.39,8.18,8.18,0,0,0,2.8.51,7.46,7.46,0,0,0,1.77-.22c2.21-.55,4.72-2.13,5.13-4.9a5.61,5.61,0,0,0,.06-.59,5.24,5.24,0,0,0-.15-1.42L28,7.74A2,2,0,0,0,27.79,5.13ZM13.94,23.41c-.27,1.79-2.13,2.87-3.65,3.25a5.8,5.8,0,0,1-3.4-.23,9.55,9.55,0,0,1-1.88-1l.22-.12A4.14,4.14,0,0,0,7,23.68a8.82,8.82,0,0,0,.71-2,5.26,5.26,0,0,1,.73-1.91,2.35,2.35,0,0,1,2.49-.47,5.11,5.11,0,0,1,1.25.5A3.8,3.8,0,0,1,14,23Zm1-3.72a5.63,5.63,0,0,0-1.52-1.48l13-11.73Z"/></g></svg>