<svg xmlns="http://www.w3.org/2000/svg" viewBox="0 0 32 32"><defs><style>.cls-1{fill:#211c1b;}.cls-2{fill:#f15a29;}</style></defs><g id="icons_copy" data-name="icons copy"><rect class="cls-1" x="22" y="10" width="8" height="2"/><rect class="cls-1" x="22" y="15" width="8" height="2"/><rect class="cls-1" x="22" y="20" width="8" height="2"/><rect class="cls-1" x="15" y="25" width="15" height="2"/><path class="cls-2" d="M19.92,15.06a3.61,3.61,0,0,0-3.66-3,2.93,2.93,0,0,0-2.8,2.73A7.33,7.33,0,0,0,10.53,16a3.73,3.73,0,0,0-1.26-4.05A4.51,4.51,0,0,0,4,11.62L4,11.68,5,14.32l.13-.08c1.33-.9,2.59-1.12,3.38-.59A1.16,1.16,0,0,1,9,14.89c-.18.88-1.17,1.57-2.66,1.84l-.15,0L7.3,19.4l.11,0a5.66,5.66,0,0,0,2.17-1.61c1.3,2.11,1.6,4.07.83,5.39A2.57,2.57,0,0,1,8,24.4c-2.74-.15-4.87-3.75-4.76-8v-.16l-1.34.35v.09c-.33,4.44,1.9,9.1,4.87,10.17a4.8,4.8,0,0,0,1.69.31,4.47,4.47,0,0,0,3.39-1.51c1.55-1.76,1.57-4.51,0-7.55.64-.41,1.1-.57,1.36-.44s.4.84.46,1.62c0,.39.07.78.14,1.18a1.82,1.82,0,0,0,.85,1.37,2.79,2.79,0,0,0,2.57.17C19.51,21,20.45,17.59,19.92,15.06Zm-5.08-.81a1.78,1.78,0,0,1,2.43-.56,3.15,3.15,0,0,1,1.12,4h0a2.41,2.41,0,0,1-2.29,1.85c-.58-.1-.87-.67-.81-1.62a9.83,9.83,0,0,1,0-1.06A3.69,3.69,0,0,0,14.84,14.25Z"/><path class="cls-2" d="M9.72,10.26a4.45,4.45,0,0,0,2.4.7h0a3.75,3.75,0,0,0,1.76-.46,6.47,6.47,0,0,0,1.67-1.3l.35-.28L13.73,7.08l-.21.3a3.28,3.28,0,0,1-1.07,1,2.21,2.21,0,0,1-1.14.32h0A2.57,2.57,0,0,1,10,8.34,3.48,3.48,0,0,1,9,7.39L8.78,7.1l-.87.64L7.59,8l.18.25A6.55,6.55,0,0,0,9.72,10.26Z"/><rect class="cls-2" x="10.18" y="4.34" width="2.35" height="2.35" transform="translate(-0.58 9.65) rotate(-45)"/></g></svg>