<svg xmlns="http://www.w3.org/2000/svg" viewBox="0 0 32 32"><defs><style>.cls-1{fill:#f15a29;}.cls-2{fill:#211c1b;}</style></defs><g id="icons_copy" data-name="icons copy"><path class="cls-1" d="M26,6H8A3,3,0,0,0,5,9v4H7V10.26l8,7.26a3,3,0,0,0,4,0l8-7.26V22a1,1,0,0,1-1,1H7v2H26a3,3,0,0,0,3-3V9A3,3,0,0,0,26,6ZM17.67,16a1,1,0,0,1-1.34,0L7.59,8.09A1.12,1.12,0,0,1,8,8H26a1.12,1.12,0,0,1,.41.09Z"/><rect class="cls-2" x="4" y="19" width="5" height="2"/><rect class="cls-2" x="1" y="15" width="6" height="2"/></g></svg>