<svg xmlns="http://www.w3.org/2000/svg" viewBox="0 0 32 32"><defs><style>.cls-1{fill:#211c1b;}.cls-2{fill:#f15a29;}</style></defs><g id="icons_copy" data-name="icons copy"><path class="cls-1" d="M14,8H6a3,3,0,0,0-3,3V27a3,3,0,0,0,3,3h8a3,3,0,0,0,3-3V11A3,3,0,0,0,14,8ZM6,10h8a1,1,0,0,1,1,1v1H5V11A1,1,0,0,1,6,10Zm9,4V24H5V14ZM14,28H6a1,1,0,0,1-1-1V26H15v1A1,1,0,0,1,14,28Z"/><path class="cls-2" d="M28.85,8.8a1.83,1.83,0,0,0-.44-.65L22.85,2.59a1.83,1.83,0,0,0-.65-.44A2,2,0,0,0,21.44,2H14a2,2,0,0,0-2,2V8h2V4h7V9a2,2,0,0,0,2,2h4V21H17v2H27a2,2,0,0,0,2-2V9.56A2,2,0,0,0,28.85,8.8ZM23,5.56,26.44,9H23Z"/><rect class="cls-2" x="19" y="13" width="6" height="2"/><rect class="cls-2" x="19" y="17" width="6" height="2"/><polygon class="cls-1" points="13 18 11 18 11 16 9 16 9 18 7 18 7 20 9 20 9 22 11 22 11 20 13 20 13 18"/></g></svg>