<svg xmlns="http://www.w3.org/2000/svg" viewBox="0 0 32 32"><defs><style>.cls-1{fill:#211c1b;}.cls-2{fill:#f15a29;}</style></defs><g id="icons_copy" data-name="icons copy"><path class="cls-1" d="M15,23.75v-1l-1.94-.7-.57-1.37.88-1.87-.69-.69L10.85,19l-1.38-.57-.69-1.94h-1l-.7,1.94L5.73,19l-1.87-.88-.69.69.89,1.87-.57,1.37-1.95.7v1l2,.69.57,1.38-.89,1.86.69.69,1.87-.88L7.06,28l.1.17L7.8,30h1l.69-1.94,1.38-.57,1.86.88.69-.69-.88-1.86.57-1.38ZM8.29,25.86a2.6,2.6,0,1,1,2.6-2.6A2.6,2.6,0,0,1,8.29,25.86Z"/><path class="cls-2" d="M4,17H2V8A3,3,0,0,1,5,5H23a3,3,0,0,1,3,3v6H24V8a1,1,0,0,0-1-1H5A1,1,0,0,0,4,8Z"/><rect class="cls-2" x="3" y="10" width="22" height="2"/><rect class="cls-2" x="19" y="3" width="2" height="5"/><rect class="cls-2" x="7" y="3" width="2" height="5"/><rect class="cls-1" x="17" y="16" width="2" height="2"/><rect class="cls-1" x="21" y="16" width="9" height="2"/><rect class="cls-1" x="17" y="20" width="2" height="2"/><rect class="cls-1" x="21" y="20" width="9" height="2"/><rect class="cls-1" x="17" y="24" width="2" height="2"/><rect class="cls-1" x="21" y="24" width="9" height="2"/></g></svg>