<svg xmlns="http://www.w3.org/2000/svg" viewBox="0 0 32 32"><defs><style>.cls-1{fill:#fff;}</style></defs><g id="icons_copy" data-name="icons copy"><path class="cls-1" d="M4,12H19V10H4V7H7V8H9V7h8V8h2V7h3v3.69h2V7a2,2,0,0,0-2-2H19V3H17V5H9V3H7V5H4A2,2,0,0,0,2,7V21a2,2,0,0,0,2,2h6.59V21H4Z"/><path class="cls-1" d="M27,18.11l1.13-2.36-.88-.88L24.91,16l-1.74-.72-.88-2.46H21.05l-.88,2.46L18.42,16l-2.36-1.12-.88.88,1.12,2.36-.72,1.75-2.47.88V22l2.47.88.72,1.75L15.18,27l.88.88,2.36-1.12,1.69.7.13.21.81,2.27h1.24l.88-2.46,1.74-.72,2.37,1.12.88-.88L27,24.61l.73-1.75L30.22,22V20.74l-2.46-.88Zm-5.36,6.55A3.3,3.3,0,1,1,25,21.36,3.3,3.3,0,0,1,21.67,24.66Z"/></g></svg>