<svg xmlns="http://www.w3.org/2000/svg" viewBox="0 0 32 32"><defs><style>.cls-1{fill:#fff;}</style></defs><g id="icons_copy" data-name="icons copy"><path class="cls-1" d="M4,6H7V7H9V6H19V7h2V6h3V9h2V6a2,2,0,0,0-2-2H21V2H19V4H9V2H7V4H4A2,2,0,0,0,2,6V22a2,2,0,0,0,2,2h9V22H4V11h9V9H4Z"/><path class="cls-1" d="M26.25,11.29a1,1,0,0,0-.71-.29H16a1,1,0,0,0-1,1V29a1,1,0,0,0,1,1H29a1,1,0,0,0,1-1V15.46a1,1,0,0,0-.29-.71ZM28,28H17V13h8.13L28,15.87Z"/><rect class="cls-1" x="19" y="16" width="7" height="2"/><rect class="cls-1" x="19" y="20" width="7" height="2"/><rect class="cls-1" x="19" y="24" width="7" height="2"/></g></svg>