<svg xmlns="http://www.w3.org/2000/svg" viewBox="0 0 32 32"><defs><style>.cls-1{fill:#231f20;}.cls-2{fill:#f15a29;}</style></defs><g id="exp"><path class="cls-1" d="M17,16H15V14a3.5,3.5,0,0,1,2-3.21,2.45,2.45,0,0,0,.76-.52,2.5,2.5,0,0,0,0-3.53,2.55,2.55,0,0,0-3.54,0,2.5,2.5,0,0,0,0,3.53l-1.41,1.42a4.5,4.5,0,1,1,6.36,0,4.65,4.65,0,0,1-1.35.93A1.49,1.49,0,0,0,17,14Z"/><rect class="cls-1" x="15" y="18" width="2" height="2"/><path class="cls-2" d="M23.28,23.47l-1.81-.85L22.21,21A3.49,3.49,0,0,1,25.34,19h.1a2.5,2.5,0,0,0,2.27-1.44,2.51,2.51,0,0,0,.08-1.92,2.55,2.55,0,0,0-1.29-1.41,2.51,2.51,0,0,0-1.92-.08,2.55,2.55,0,0,0-1.41,1.29,2.48,2.48,0,0,0-.08,1.91L21.21,18A4.5,4.5,0,1,1,27,20.71a4.83,4.83,0,0,1-1.62.27,1.44,1.44,0,0,0-1.34.9Z"/><rect class="cls-2" x="20.11" y="24.77" width="2" height="2" transform="translate(-11.17 34) rotate(-64.99)"/><path class="cls-2" d="M8.63,23.28,8,21.88a3.47,3.47,0,0,1,.47-3.76,2.6,2.6,0,0,0,.46-.79,2.48,2.48,0,0,0-.08-1.91,2.55,2.55,0,0,0-1.41-1.29,2.51,2.51,0,0,0-1.92.08,2.55,2.55,0,0,0-1.29,1.41,2.51,2.51,0,0,0,.08,1.92,2.54,2.54,0,0,0,1.42,1.29L5,20.71A4.5,4.5,0,1,1,10.79,18,4.61,4.61,0,0,1,10,19.44,1.48,1.48,0,0,0,9.79,21l.65,1.4Z"/><rect class="cls-2" x="9.8" y="24.58" width="2" height="2" transform="translate(-9.79 6.96) rotate(-24.99)"/></g></svg>