<svg xmlns="http://www.w3.org/2000/svg" viewBox="0 0 32 32"><defs><style>.cls-1{fill:#211c1b;}.cls-2{fill:#f15a29;}</style></defs><g id="icons_copy" data-name="icons copy"><path class="cls-1" d="M16.7,15.37l1.2,3.7h3.9a.53.53,0,0,1,.31.95L19,22.31l1.2,3.7a.53.53,0,0,1-.81.59L16.2,24.31,13.05,26.6a.53.53,0,0,1-.81-.59l1.2-3.7L10.29,20a.53.53,0,0,1,.31-.95h3.89l1.21-3.7A.52.52,0,0,1,16.7,15.37Z"/><path class="cls-2" d="M26,7H6A2,2,0,0,0,4,9V22a2,2,0,0,0,2,2h5.32l.36-1.12L10.46,22H6V14H26v8H21.94l-1.22.88L21.08,24H26a2,2,0,0,0,2-2V9A2,2,0,0,0,26,7Zm0,5H6V9H26Z"/><rect class="cls-1" x="21" y="5" width="2" height="5"/><rect class="cls-1" x="9" y="5" width="2" height="5"/></g></svg>