<svg xmlns="http://www.w3.org/2000/svg" viewBox="0 0 32 32"><defs><style>.cls-1{fill:#211c1b;}.cls-2{fill:#f15a29;}</style></defs><g id="icons_copy" data-name="icons copy"><rect class="cls-1" x="21" y="20" width="2" height="9"/><rect class="cls-1" x="17" y="22" width="2" height="7"/><rect class="cls-1" x="25" y="16" width="2" height="13"/><rect class="cls-2" x="8" y="13" width="11" height="2"/><rect class="cls-2" x="8" y="17" width="11" height="2"/><rect class="cls-2" x="8" y="21" width="6" height="2"/><rect class="cls-2" x="15" y="7" width="4" height="2"/><path class="cls-2" d="M21,2H12.56a2,2,0,0,0-1.41.59L4.59,9.15A2,2,0,0,0,4,10.56V25a2,2,0,0,0,2,2h8V25H6V11h5a2,2,0,0,0,2-2V4h8V17h2V4A2,2,0,0,0,21,2ZM7.56,9,11,5.56V9Z"/><rect class="cls-2" x="15" y="28" width="14" height="2"/></g></svg>