<svg xmlns="http://www.w3.org/2000/svg" viewBox="0 0 32 32"><defs><style>.cls-1{fill:#f15a29;}.cls-2{fill:#211c1b;}</style></defs><g id="icons_copy" data-name="icons copy"><path class="cls-1" d="M21,7V6a2,2,0,0,0-2-2H12.56a2,2,0,0,0-1.41.59L4.59,11.15A2,2,0,0,0,4,12.56V26a2,2,0,0,0,2,2H19a2,2,0,0,0,2-2V18.33L19,20v6H6V13h5a2,2,0,0,0,2-2V6h6V8.59ZM7.56,11,11,7.56V11Z"/><path class="cls-2" d="M29.1,7.47,27.39,5.73A1.73,1.73,0,0,0,26,5.24a2,2,0,0,0-1.21.55l-12,9.81a1,1,0,0,0-.31.46l-1.42,4.25a1,1,0,0,0,.23,1,1,1,0,0,0,.71.3,1.06,1.06,0,0,0,.31-.05l4.27-1.36A1.06,1.06,0,0,0,16.9,20L29,10.16a2.14,2.14,0,0,0,.63-1.26A1.73,1.73,0,0,0,29.1,7.47ZM15.78,18.37l-2.21.71.7-2.11,7.94-6.51,1.44,1.46Zm9.43-7.72L23.77,9.19,26,7.33l.08,0,1.43,1.46Z"/></g></svg>