<svg xmlns="http://www.w3.org/2000/svg" viewBox="0 0 32 32"><defs><style>.cls-1{fill:#211c1b;}.cls-2{fill:#f15a29;}</style></defs><g id="icons_copy" data-name="icons copy"><path class="cls-1" d="M29,23.5v-2H26.65a5.35,5.35,0,0,0-.8-1.94l1.66-1.66L26.1,16.49l-1.66,1.66a5.35,5.35,0,0,0-1.94-.8V15h-2v2.35a5.35,5.35,0,0,0-1.94.8L16.9,16.49,15.49,17.9l1.66,1.66a5.35,5.35,0,0,0-.8,1.94H14v2h2.35a5.35,5.35,0,0,0,.8,1.94L15.49,27.1l1.41,1.41,1.66-1.66a5.35,5.35,0,0,0,1.94.8V30h2V27.65a5.35,5.35,0,0,0,1.94-.8l1.66,1.66,1.41-1.41-1.66-1.66a5.35,5.35,0,0,0,.8-1.94Zm-7.5,1.25a2.25,2.25,0,1,1,2.25-2.25A2.25,2.25,0,0,1,21.5,24.75Z"/><path class="cls-2" d="M17.56,7.86l1.15-1.15L17.29,5.29,16,6.55a8.91,8.91,0,0,0-4-1.49V4h2V2H8V4h2V5.06A9,9,0,0,0,11,23V21a7,7,0,1,1,7-7h2A8.94,8.94,0,0,0,17.56,7.86Z"/><polygon class="cls-2" points="12 10 10 10 10 16 15 16 15 14 12 14 12 10"/></g></svg>