<svg xmlns="http://www.w3.org/2000/svg" viewBox="0 0 32 32"><defs><style>.cls-1{fill:#f15a29;}.cls-2{fill:#211c1b;}</style></defs><g id="icons_copy" data-name="icons copy"><path class="cls-1" d="M23,30H4a2,2,0,0,1-2-2V4A2,2,0,0,1,4,2H23a2,2,0,0,1,2,2V8H23V4H4V28H23V21h2v7A2,2,0,0,1,23,30Z"/><path class="cls-2" d="M17.62,19.26a3.32,3.32,0,0,1-3.16-1.89A1,1,0,0,1,15,16.05a1,1,0,0,1,1.31.53,1.35,1.35,0,0,0,1.32.68c.76,0,1.25-.36,1.25-.92s-.52-.79-1.61-1.28-2.71-1.23-2.71-3a2.9,2.9,0,0,1,3.16-2.81,2.93,2.93,0,0,1,2.83,1.64,1,1,0,0,1-.49,1.32,1,1,0,0,1-1.33-.49c-.14-.31-.48-.47-1-.47-.71,0-1.16.31-1.16.81s.45.68,1.53,1.17,2.79,1.26,2.79,3.1A3,3,0,0,1,17.62,19.26Z"/><path class="cls-2" d="M29.49,18.94a1,1,0,0,1-.93-.63L28.05,17H24.63l-.52,1.31a1,1,0,0,1-1.86-.74l3.16-7.94A1,1,0,0,1,26.34,9a1.06,1.06,0,0,1,1,.64l3.1,7.94a1,1,0,0,1-.57,1.29A.89.89,0,0,1,29.49,18.94ZM25.43,15h1.84l-.92-2.33Z"/><path class="cls-2" d="M8,19a1,1,0,0,1-1-1V10A1,1,0,0,1,8,9h4a1,1,0,0,1,0,2H9v2h3a1,1,0,0,1,0,2H9v3A1,1,0,0,1,8,19Z"/><rect class="cls-2" x="7" y="23" width="7" height="2"/><rect class="cls-2" x="16" y="23" width="4" height="2"/></g></svg>