<svg xmlns="http://www.w3.org/2000/svg" viewBox="0 0 32 32"><defs><style>.cls-1{fill:#fff;}</style></defs><g id="icons_copy" data-name="icons copy"><path class="cls-1" d="M25,10V5a3,3,0,0,0-3-3H5A3,3,0,0,0,2,5V27a3,3,0,0,0,3,3H22a3,3,0,0,0,3-3V23H23v4a1,1,0,0,1-1,1H5a1,1,0,0,1-1-1V5A1,1,0,0,1,5,4H22a1,1,0,0,1,1,1v5Z"/><path class="cls-1" d="M18.08,15.24c-1.08-.5-1.53-.77-1.53-1.17s.45-.81,1.16-.81c.53,0,.87.16,1,.47a1,1,0,0,0,1.82-.83,2.93,2.93,0,0,0-2.83-1.64,2.9,2.9,0,0,0-3.16,2.81c0,1.76,1.56,2.47,2.71,3s1.61.78,1.61,1.28-.49.92-1.25.92a1.35,1.35,0,0,1-1.32-.68A1,1,0,0,0,15,18.05a1,1,0,0,0-.53,1.32,3.32,3.32,0,0,0,3.16,1.89,3,3,0,0,0,3.25-2.92C20.87,16.5,19.26,15.77,18.08,15.24Z"/><path class="cls-1" d="M27.32,11.64a1.06,1.06,0,0,0-1-.64,1,1,0,0,0-.93.63l-3.16,7.94a1,1,0,0,0,1.86.74L24.63,19h3.42l.51,1.31a1,1,0,0,0,.93.63.89.89,0,0,0,.36-.07,1,1,0,0,0,.57-1.29ZM25.43,17l.92-2.33L27.27,17Z"/><path class="cls-1" d="M7,20a1,1,0,0,0,2,0V17h3a1,1,0,0,0,0-2H9V13h3a1,1,0,0,0,0-2H8a1,1,0,0,0-1,1Z"/><rect class="cls-1" x="7" y="6" width="13" height="2"/><rect class="cls-1" x="7" y="24" width="13" height="2"/></g></svg>