<svg xmlns="http://www.w3.org/2000/svg" viewBox="0 0 32 32"><defs><style>.cls-1{fill:#211c1b;}.cls-2{fill:#f15a29;}</style></defs><g id="icons_copy" data-name="icons copy"><polygon class="cls-1" points="20 16 16 16 16 12 14 12 14 16 10 16 10 18 14 18 14 22 16 22 16 18 20 18 20 16"/><polygon class="cls-1" points="27 28 27 22 27 20 25 20 23 20 23 22 25 22 25 28 23 28 23 30 29 30 29 28 27 28"/><rect class="cls-1" x="25" y="16" width="2" height="2"/><path class="cls-2" d="M22,2H12.56a2,2,0,0,0-1.41.59L4.59,9.15A2,2,0,0,0,4,10.56V25a2,2,0,0,0,2,2H20V25H6V12h5a2,2,0,0,0,2-2V4h9v9h2V4A2,2,0,0,0,22,2ZM6.56,10,11,5.56V10Z"/></g></svg>