<svg xmlns="http://www.w3.org/2000/svg" viewBox="0 0 32 32"><defs><style>.cls-1{fill:#f15a29;}.cls-2{fill:#211c1b;}</style></defs><g id="icons_copy" data-name="icons copy"><path class="cls-1" d="M30,6V21a3,3,0,0,1-3,3H19.82A2.77,2.77,0,0,0,20,23V22h7a1,1,0,0,0,1-1V6a1,1,0,0,0-1-1H12a1,1,0,0,0-1,1v6H9V6a3,3,0,0,1,3-3H27A3,3,0,0,1,30,6Z"/><rect class="cls-1" x="14" y="8" width="11" height="2"/><path class="cls-1" d="M25,12v2H14.82A2.87,2.87,0,0,0,14,12.77V12Z"/><path class="cls-1" d="M25,16v2H19.23A3,3,0,0,0,17,17H15V16Z"/><path class="cls-2" d="M12,30H9a2,2,0,0,1-2-2V25H4a2,2,0,0,1-2-2V20a2,2,0,0,1,2-2H7V15a2,2,0,0,1,2-2h3a2,2,0,0,1,2,2v3h3a2,2,0,0,1,2,2v3a2,2,0,0,1-2,2H14v3A2,2,0,0,1,12,30ZM4,20v3H9v5h3V23h5V20H12V15H9v5Z"/></g></svg>