<svg xmlns="http://www.w3.org/2000/svg" viewBox="0 0 32 32"><defs><style>.cls-1{fill:#f15a29;}.cls-2{fill:#211c1b;}</style></defs><g id="icons_copy" data-name="icons copy"><path class="cls-1" d="M8,9H6A1,1,0,0,1,5,8V7A1,1,0,0,1,6,6H8A1,1,0,0,1,9,7h2A3,3,0,0,0,8,4V2H6V4A3,3,0,0,0,3,7V8a3,3,0,0,0,3,3H8a1,1,0,0,1,1,1v1a1,1,0,0,1-1,1H6a1,1,0,0,1-1-1H3a3,3,0,0,0,3,3v2H8V16a3,3,0,0,0,3-3V12A3,3,0,0,0,8,9Z"/><path class="cls-2" d="M27.29,24.29,25,26.59V6a2,2,0,0,0-2-2H12V6H23V26.59l-2.29-2.3-1.42,1.42L24,30.41l4.71-4.7Z"/><rect class="cls-2" x="13" y="8" width="8" height="2"/><rect class="cls-2" x="13" y="12" width="8" height="2"/><rect class="cls-2" x="14" y="16" width="7" height="2"/><path class="cls-2" d="M21,22H12a2,2,0,0,1-2-2V17h2v3h9Z"/></g></svg>