<svg xmlns="http://www.w3.org/2000/svg" viewBox="0 0 32 32"><defs><style>.cls-1{fill:#211c1b;}.cls-2{fill:#f15a29;}</style></defs><g id="icons_copy" data-name="icons copy"><polygon class="cls-1" points="19 26 19 22 17 22 17 26 15 26 15 22 13 22 13 26 9 26 9 28 23 28 23 26 19 26"/><rect class="cls-1" x="10" y="10" width="2" height="8"/><polygon class="cls-1" points="23 10 15 10 15 12 18 12 18 18 20 18 20 12 23 12 23 10"/><path class="cls-2" d="M27,23H5a2,2,0,0,1-2-2V7A2,2,0,0,1,5,5H27a2,2,0,0,1,2,2V21A2,2,0,0,1,27,23ZM5,7V21H27V7Z"/></g></svg>