<svg xmlns="http://www.w3.org/2000/svg" viewBox="0 0 32 32"><defs><style>.cls-1{fill:#f15a29;}.cls-2{fill:#211c1b;}</style></defs><g id="icons_copy" data-name="icons copy"><path class="cls-1" d="M12.43,18.77a1.52,1.52,0,0,1,.57.11V16.82a3.55,3.55,0,0,0-.57-.05,3.65,3.65,0,0,0,0,7.29A3.55,3.55,0,0,0,13,24V22a1.52,1.52,0,0,1-.57.11,1.65,1.65,0,0,1,0-3.29Z"/><path class="cls-1" d="M13,25v2H11a1,1,0,0,0-1,1v2H8V28a3,3,0,0,1,3-3Z"/><path class="cls-1" d="M19.5.85A4.5,4.5,0,1,0,24,5.35,4.51,4.51,0,0,0,19.5.85Zm0,7A2.5,2.5,0,1,1,22,5.35,2.5,2.5,0,0,1,19.5,7.85Z"/><path class="cls-1" d="M8.28,3.29a4.28,4.28,0,1,0,4.28,4.28A4.28,4.28,0,0,0,8.28,3.29Zm0,6.56a2.28,2.28,0,1,1,2.28-2.28A2.28,2.28,0,0,1,8.28,9.85Z"/><path class="cls-1" d="M26,13v3.5H24V13a1,1,0,0,0-1-1H16a1,1,0,0,0-1,1v2.5H13V15a1,1,0,0,0-1-1H5a1,1,0,0,0-1,1v6H7.65a4.88,4.88,0,0,0,.7,2H6v7H4V23H3a1,1,0,0,1-1-1V15a3,3,0,0,1,3-3h7a3,3,0,0,1,1.12.22A3,3,0,0,1,16,10h7A3,3,0,0,1,26,13Z"/><rect class="cls-2" x="20" y="18" width="10" height="2"/><rect class="cls-2" x="15" y="17" width="3" height="3"/><rect class="cls-2" x="20" y="23" width="10" height="2"/><rect class="cls-2" x="15" y="22" width="3" height="3"/><rect class="cls-2" x="20" y="28" width="10" height="2"/><rect class="cls-2" x="15" y="27" width="3" height="3"/></g></svg>