<svg xmlns="http://www.w3.org/2000/svg" viewBox="0 0 32 32"><defs><style>.cls-1,.cls-2{fill:none;}.cls-1{stroke:#f15a29;stroke-miterlimit:10;stroke-width:2px;}.cls-2{stroke:#211c1b;stroke-linejoin:round;stroke-width:3px;}</style></defs><g id="icons"><path class="cls-1" d="M20,8V4a1,1,0,0,0-1-1H9.56a1,1,0,0,0-.7.29L3.29,8.86a1,1,0,0,0-.29.7V24a1,1,0,0,0,1,1h6"/><path class="cls-1" d="M9,3V8A1,1,0,0,1,8,9H3"/><circle class="cls-2" cx="20" cy="20" r="5.71"/><line class="cls-2" x1="20" y1="14.29" x2="20" y2="10"/><line class="cls-2" x1="15.96" y1="15.96" x2="12.93" y2="12.93"/><line class="cls-2" x1="14.29" y1="20" x2="10" y2="20"/><line class="cls-2" x1="15.96" y1="24.04" x2="12.93" y2="27.07"/><line class="cls-2" x1="20" y1="25.71" x2="20" y2="30"/><line class="cls-2" x1="24.04" y1="24.04" x2="27.07" y2="27.07"/><line class="cls-2" x1="25.71" y1="20" x2="30" y2="20"/><line class="cls-2" x1="24.04" y1="15.96" x2="27.07" y2="12.93"/></g></svg>