<svg xmlns="http://www.w3.org/2000/svg" viewBox="0 0 32 32"><defs><style>.cls-1{fill:#f15a29;}.cls-2{fill:#211c1b;}</style></defs><g id="exp"><path class="cls-1" d="M10,23H5a2,2,0,0,1-2-2V11.56a2,2,0,0,1,.59-1.41L9.15,4.59A2,2,0,0,1,10.56,4H16a2,2,0,0,1,2,2v4H16V6H10.56L5,11.56V21h5Z"/><path class="cls-1" d="M9,12H4V10H9V5h2v5A2,2,0,0,1,9,12Z"/><path class="cls-2" d="M29,21V18H26.67a6.35,6.35,0,0,0-.75-1.8l1.65-1.65-2.12-2.12L23.8,14.08a6.35,6.35,0,0,0-1.8-.75V11H19v2.33a6.35,6.35,0,0,0-1.8.75l-1.65-1.65-2.12,2.12,1.65,1.65a6.35,6.35,0,0,0-.75,1.8H12v3h2.33a6.35,6.35,0,0,0,.75,1.8l-1.65,1.65,2.12,2.12,1.65-1.65a6.35,6.35,0,0,0,1.8.75V28h3V25.67a6.35,6.35,0,0,0,1.8-.75l1.65,1.65,2.12-2.12L25.92,22.8a6.35,6.35,0,0,0,.75-1.8Zm-8.5,1.86a3.36,3.36,0,1,1,3.36-3.36A3.37,3.37,0,0,1,20.5,22.86Z"/></g></svg>