<svg xmlns="http://www.w3.org/2000/svg" viewBox="0 0 32 32"><defs><style>.cls-1{fill:#f15a29;}.cls-2{fill:#211c1b;}</style></defs><g id="icons_copy" data-name="icons copy"><path class="cls-1" d="M8.64,22.36,6.89,23.44A11,11,0,0,1,7.16,8.28L8.58,9.7a9,9,0,0,0-1.87,9.8A8.81,8.81,0,0,0,8.64,22.36Z"/><path class="cls-1" d="M28,16a10.85,10.85,0,0,1-.87,4.28,10.46,10.46,0,0,1-1.37,2.36l-1.43-1.43a8.23,8.23,0,0,0,1-1.71,9,9,0,0,0,0-7,8.81,8.81,0,0,0-1.93-2.86l1.75-1.07a11,11,0,0,1,2,3.15A10.85,10.85,0,0,1,28,16Z"/><path class="cls-1" d="M19.31,1.81l-1.71,1L19.05,5.2A10.79,10.79,0,0,0,17,5H15a10.85,10.85,0,0,0-4.28.87,11.34,11.34,0,0,0-1.16.57l1.49,1.49a3.11,3.11,0,0,1,.45-.22A8.94,8.94,0,0,1,15,7h2a8.93,8.93,0,0,1,1.55.14l-2.3,1.42,1.06,1.7L22.53,7Z"/><path class="cls-1" d="M22.21,23.33a8.23,8.23,0,0,1-1.71,1A8.94,8.94,0,0,1,17,25H15a9.11,9.11,0,0,1-1.95-.22l2.61-1.61-1.05-1.7L9.38,24.69l3.23,5.23,1.7-1.05L13,26.82A11.71,11.71,0,0,0,15,27h2a10.85,10.85,0,0,0,4.28-.87,10.46,10.46,0,0,0,2.36-1.37Z"/><rect class="cls-2" x="14.86" y="-0.11" width="2" height="33.94" transform="translate(-7.28 16.15) rotate(-45)"/></g></svg>