<svg xmlns="http://www.w3.org/2000/svg" viewBox="0 0 32 32"><defs><style>.cls-1{fill:#fff;}</style></defs><g id="icons_copy" data-name="icons copy"><path class="cls-1" d="M13,26V24H5a1,1,0,0,1-1-1V5A1,1,0,0,1,5,4H23a1,1,0,0,1,1,1V15h2V5a3,3,0,0,0-3-3H5A3,3,0,0,0,2,5V23a3,3,0,0,0,3,3Z"/><path class="cls-1" d="M17,9.63h0a2.95,2.95,0,1,0-3,2.95A2.95,2.95,0,0,0,17,9.63Z"/><path class="cls-1" d="M8,17.93V19h6.31a8.51,8.51,0,0,1,4.4-3.51A8.26,8.26,0,0,0,14,13.86C12,13.86,8,15.13,8,17.93Z"/><path class="cls-1" d="M29.52,25.36l-1.73-.25A6.3,6.3,0,0,0,28,23.5a6.5,6.5,0,1,0-3.53,5.78l-.91-1.78a4.44,4.44,0,0,1-2.06.5A4.5,4.5,0,1,1,26,23.5a4.44,4.44,0,0,1-.2,1.32L24,24.55a.33.33,0,0,0-.31.53L26,28.26a.33.33,0,0,0,.46.06L29.67,26A.33.33,0,0,0,29.52,25.36Z"/></g></svg>