<svg xmlns="http://www.w3.org/2000/svg" viewBox="0 0 32 32"><defs><style>.cls-1{fill:#211c1b;}.cls-2{fill:#f15a29;}</style></defs><g id="icons_copy" data-name="icons copy"><rect class="cls-1" x="23" y="16" width="2" height="12"/><rect class="cls-1" x="18" y="21" width="12" height="2"/><path class="cls-2" d="M11.26,14.46a5.34,5.34,0,0,1,0-10.67h0a5.34,5.34,0,0,1,0,10.67Zm0-8.67a3.34,3.34,0,1,0,3.33,3.33A3.33,3.33,0,0,0,11.26,5.79Z"/><path class="cls-2" d="M3.92,25A1.9,1.9,0,0,1,2,23.14V21.3c0-4.13,6.38-5.84,9.8-5.84A15.23,15.23,0,0,1,19,17.39L18,19.1a13.17,13.17,0,0,0-6.17-1.64C9.05,17.46,4,18.92,4,21.3V23H16v2H3.92Z"/></g></svg>