<svg xmlns="http://www.w3.org/2000/svg" viewBox="0 0 32 32"><defs><style>.cls-1{fill:#211c1b;}.cls-2{fill:#f15a29;}</style></defs><g id="icons_copy" data-name="icons copy"><path class="cls-1" d="M9.2,18.38a4,4,0,0,1,0-8h0A4,4,0,0,1,12,11.58a4,4,0,0,1-2.82,6.8Zm0-6a2,2,0,1,0,1.4,3.39,2,2,0,0,0-1.4-3.39Z"/><path class="cls-2" d="M29.85,9.8a1.83,1.83,0,0,0-.44-.65L23.85,3.59a1.83,1.83,0,0,0-.65-.44A2,2,0,0,0,22.44,3H16a2,2,0,0,0-2,2v7h2V5h6v5a2,2,0,0,0,2,2h4v9H25v2h3a2,2,0,0,0,2-2V10.56A2,2,0,0,0,29.85,9.8ZM24,6.56,27.44,10H24Z"/><path class="cls-1" d="M18.49,20.87a3.89,3.89,0,0,1,0-7.77h0a3.89,3.89,0,0,1,0,7.77Zm0-5.77A1.89,1.89,0,1,0,20.36,17,1.89,1.89,0,0,0,18.49,15.1Z"/><path class="cls-1" d="M13.58,29a1.53,1.53,0,0,1-1.1-.46A1.59,1.59,0,0,1,12,27.39V25.68c0-3.14,4.23-4.45,6.5-4.45S25,22.54,25,25.67v1.7A1.62,1.62,0,0,1,23.39,29h0l-9.81,0Zm4.92-5.77c-1.59,0-4.5.93-4.5,2.45V27l9,0V25.67C23,24.16,20.09,23.23,18.5,23.23ZM23.38,27Z"/><path class="cls-1" d="M2.81,29h7.58A3.45,3.45,0,0,1,10,27.39V27H4V23.81c0-1.6,3.42-2.76,5.2-2.76a8.22,8.22,0,0,1,2.71.55,8.23,8.23,0,0,1,1.8-1.21l-.18-.26A10.75,10.75,0,0,0,9.2,19.05c-2.58,0-7.2,1.59-7.2,4.76V28a1,1,0,0,0,.29.71A1.08,1.08,0,0,0,2.81,29Z"/></g></svg>