<svg xmlns="http://www.w3.org/2000/svg" viewBox="0 0 32 32"><defs><style>.cls-1{fill:#f15a29;}.cls-2{fill:#211c1b;}</style></defs><g id="icons_copy" data-name="icons copy"><path class="cls-1" d="M20,14v-.5a3.5,3.5,0,0,0-3-3.45V8H15v2.05a3.49,3.49,0,0,0,.5,7h1a1.5,1.5,0,0,1,0,3h-1A1.5,1.5,0,0,1,14,18.5V18H12v.5A3.5,3.5,0,0,0,15,22V24h2V22A3.49,3.49,0,0,0,16.5,15h-1a1.5,1.5,0,0,1,0-3h1A1.5,1.5,0,0,1,18,13.5V14Z"/><path class="cls-2" d="M10,24A10,10,0,0,1,16,6H29.41L24.77,1.36,23.36,2.77,24.59,4H16A12,12,0,0,0,7.07,24Z"/><path class="cls-2" d="M22,8a10,10,0,0,1-6,18H2.59l4.79,4.8L8.8,29.38,7.41,28H16A12,12,0,0,0,24.93,8Z"/></g></svg>