<svg xmlns="http://www.w3.org/2000/svg" viewBox="0 0 32 32"><defs><style>.cls-1{fill:#f15a29;}.cls-2{fill:#211c1b;}</style></defs><g id="icons_copy" data-name="icons copy"><path class="cls-1" d="M9.58,25a10.14,10.14,0,0,1-3.32-2.24A10.31,10.31,0,0,1,4,19.43a10.48,10.48,0,0,1-.81-4.07,10.23,10.23,0,0,1,.67-3.69h-2A12.39,12.39,0,0,0,15.46,27.59v-2A10.46,10.46,0,0,1,9.58,25Z"/><path class="cls-1" d="M25,10.55a12.28,12.28,0,0,0-2.65-3.93,12.35,12.35,0,0,0-17.48,0l0,0V3H2.94V9.74H9.68V7.81H6.44A10.38,10.38,0,0,1,17.7,5.74a10.5,10.5,0,0,1,5.56,5.56,10.66,10.66,0,0,1,.81,4.06c0,.22,0,.43,0,.64H26c0-.21,0-.42,0-.64A12.37,12.37,0,0,0,25,10.55Z"/><path class="cls-2" d="M14,14H13a1,1,0,0,1,0-2h1a1,1,0,0,1,1,1h2a3,3,0,0,0-2.47-2.95V8.3h-2v1.75A3,3,0,0,0,13,16h1a1,1,0,0,1,0,2H13a1,1,0,0,1-1-1H10A3,3,0,0,0,12.53,20v1.79h2V20A3,3,0,0,0,14,14Z"/><rect class="cls-2" x="18" y="19" width="2" height="2"/><rect class="cls-2" x="22" y="19" width="8" height="2"/><rect class="cls-2" x="18" y="23" width="2" height="2"/><rect class="cls-2" x="22" y="23" width="8" height="2"/><rect class="cls-2" x="18" y="27" width="2" height="2"/><rect class="cls-2" x="22" y="27" width="8" height="2"/></g></svg>