<svg xmlns="http://www.w3.org/2000/svg" viewBox="0 0 32 32"><defs><style>.cls-1{fill:#f15a29;}.cls-2{fill:#211c1b;}</style></defs><g id="icons_copy" data-name="icons copy"><path class="cls-1" d="M7,9H5A1,1,0,0,1,4,8V7A1,1,0,0,1,5,6H7A1,1,0,0,1,8,7h2A3,3,0,0,0,7,4V2H5V4A3,3,0,0,0,2,7V8a3,3,0,0,0,3,3H7a1,1,0,0,1,1,1v1a1,1,0,0,1-1,1H5a1,1,0,0,1-1-1H2a3,3,0,0,0,3,3v2H7V16a3,3,0,0,0,3-3V12A3,3,0,0,0,7,9Z"/><rect class="cls-1" x="13" y="2" width="7" height="2"/><rect class="cls-1" x="14" y="6" width="6" height="2"/><rect class="cls-1" x="4" y="25" width="5" height="2"/><polygon class="cls-2" points="25 22 19 22 19 15 21 15 21 20 25 20 25 22"/><path class="cls-2" d="M28,20a8,8,0,1,1-2.34-5.66L24,16h5V11l-1.93,1.93A10,10,0,1,0,30,20Z"/></g></svg>