<svg xmlns="http://www.w3.org/2000/svg" viewBox="0 0 32 32"><defs><style>.cls-1{fill:#f15a29;}.cls-2{fill:#211c1b;}</style></defs><g id="icons_copy" data-name="icons copy"><path class="cls-1" d="M9,12a2,2,0,0,0,2-2V5h4V3H10.56a2,2,0,0,0-1.41.59L2.59,10.15A2,2,0,0,0,2,11.56V24a2,2,0,0,0,2,2h9V24H4V12ZM5.56,10,9,6.56V10Z"/><rect class="cls-1" x="6" y="15" width="5" height="2"/><rect class="cls-1" x="6" y="19" width="5" height="2"/><path class="cls-2" d="M27.55,6.81a2.37,2.37,0,0,0-.84.16V6.79a2.32,2.32,0,0,0-3.17-2.14V4.46a2.34,2.34,0,0,0-4.68,0h0a2.32,2.32,0,0,0-3.17,2.14v3.63a3,3,0,0,0-1.44-.38,1.73,1.73,0,0,0-1.74,1.71V19a5.2,5.2,0,0,0,.74,2.66l2,3.25V30h1.5V24.71a.77.77,0,0,0-.11-.39l-2.09-3.43A3.59,3.59,0,0,1,14,19V11.57a.23.23,0,0,1,.24-.21,1.42,1.42,0,0,1,1.44,1.38v5.48h1.5V6.61a.84.84,0,0,1,1.67,0v7.91h1.5V4.46a.84.84,0,0,1,1.68,0V14.52h1.5V6.79a.84.84,0,0,1,1.67,0v7.73h1.5V9.11a.84.84,0,0,1,1.68,0V19a3.53,3.53,0,0,1-.53,1.87l-2.09,3.44a.77.77,0,0,0-.11.39V30h1.5V24.92l2-3.25A5.09,5.09,0,0,0,29.89,19V9.11A2.32,2.32,0,0,0,27.55,6.81Z"/></g></svg>