<svg xmlns="http://www.w3.org/2000/svg" viewBox="0 0 32 32"><defs><style>.cls-1{fill:#f15a29;}.cls-2{fill:#211c1b;}</style></defs><g id="icons_copy" data-name="icons copy"><path class="cls-1" d="M22.1,6.8a2.32,2.32,0,0,0-.84.16V6.78a2.33,2.33,0,0,0-3.18-2.14V4.46a2.34,2.34,0,0,0-4.67,0h0A2.33,2.33,0,0,0,10.23,6.6v3.63a3,3,0,0,0-1.44-.38,1.73,1.73,0,0,0-1.73,1.72V19a5.07,5.07,0,0,0,.74,2.65l2,3.25V29.7h1.5v-5a.68.68,0,0,0-.11-.39L9.08,20.88A3.61,3.61,0,0,1,8.56,19V11.57a.22.22,0,0,1,.23-.22,1.41,1.41,0,0,1,1.44,1.38v5.48h1.5V6.6a.84.84,0,0,1,1.68,0v7.92h1.5V4.46a.84.84,0,0,1,1.67,0V14.52h1.5V6.78a.84.84,0,0,1,1.68,0v7.74h1.5V9.1a.84.84,0,0,1,1.67,0V19h1.5V9.1A2.31,2.31,0,0,0,22.1,6.8Z"/><rect class="cls-2" x="19" y="20" width="11" height="2"/><rect class="cls-2" x="15" y="20" width="2" height="2"/><rect class="cls-2" x="15" y="24" width="2" height="2"/><rect class="cls-2" x="15" y="28" width="2" height="2"/><rect class="cls-2" x="19" y="24" width="11" height="2"/><rect class="cls-2" x="19" y="28" width="11" height="2"/></g></svg>