<svg xmlns="http://www.w3.org/2000/svg" viewBox="0 0 32 32"><defs><style>.cls-1{fill:#211c1b;}.cls-2{fill:#f15a29;}</style></defs><g id="icons_copy" data-name="icons copy"><path class="cls-1" d="M7.2,3H4.8A1.91,1.91,0,0,0,3,5V21a1,1,0,0,0,.11.45l2,4a1,1,0,0,0,1.78,0l2-4A1,1,0,0,0,9,21V5A1.91,1.91,0,0,0,7.2,3ZM7,5V8H5V5ZM6,22.76l-1-2V10H7V20.76Z"/><path class="cls-2" d="M28.41,10.15,21.85,3.59A2,2,0,0,0,20.44,3H13a2,2,0,0,0-2,2V24a2,2,0,0,0,2,2h2V24H13V5h7v5a2,2,0,0,0,2,2h5v7.14h2V11.56A2,2,0,0,0,28.41,10.15ZM22,6.56,25.44,10H22Z"/><path class="cls-1" d="M17.5,23H24V20.64a.5.5,0,0,1,.82-.38l5.26,4.45a.49.49,0,0,1,0,.76l-5.26,4.46a.5.5,0,0,1-.82-.39V27H17.5a.5.5,0,0,1-.5-.5v-3A.5.5,0,0,1,17.5,23Z"/><rect class="cls-2" x="15" y="14" width="10.26" height="2"/><rect class="cls-2" x="15" y="18" width="7.26" height="2"/></g></svg>