<svg xmlns="http://www.w3.org/2000/svg" viewBox="0 0 32 32"><defs><style>.cls-1{fill:#fff;}</style></defs><g id="icons_copy" data-name="icons copy"><path class="cls-1" d="M4.11,28.45a1,1,0,0,0,1.78,0l2-4A1,1,0,0,0,8,24V6A1.91,1.91,0,0,0,6.2,4H3.8A1.91,1.91,0,0,0,2,6V24a1,1,0,0,0,.11.45ZM5,25.76l-1-2V11H6V23.76ZM6,6V9H4V6Z"/><path class="cls-1" d="M29,19.14V10.56a2,2,0,0,0-.59-1.41L21.85,2.59A2,2,0,0,0,20.44,2H12a2,2,0,0,0-2,2V28a2,2,0,0,0,2,2h2V28H12V4h8V9a2,2,0,0,0,2,2h5v8.14ZM22,5.56,25.44,9H22Z"/><path class="cls-1" d="M24.82,20.26a.5.5,0,0,0-.82.38V23H16.5a.5.5,0,0,0-.5.5v3a.5.5,0,0,0,.5.5H24v2.54a.5.5,0,0,0,.82.39l5.26-4.46a.49.49,0,0,0,0-.76Z"/><rect class="cls-1" x="15" y="14" width="9.26" height="2"/><rect class="cls-1" x="15" y="18" width="7.26" height="2"/></g></svg>