<svg xmlns="http://www.w3.org/2000/svg" viewBox="0 0 32 32"><defs><style>.cls-1{fill:#211c1b;}.cls-2{fill:#231f20;}.cls-3{fill:#f15a29;}</style></defs><g id="icons_copy" data-name="icons copy"><path class="cls-1" d="M27.45,28h-18a5,5,0,1,1,0-10h18a1,1,0,0,1,.93.62,1,1,0,0,1-.23,1.1c-1.39,1.35-1.34,4.79.1,6.67a1,1,0,0,1,.1,1.05A1,1,0,0,1,27.45,28Zm-18-8a3,3,0,1,0,0,6h16.3a8.3,8.3,0,0,1-.11-6Z"/><path class="cls-1" d="M29.45,20h-18a5,5,0,1,1,0-10h18a1,1,0,0,1,.93.62,1,1,0,0,1-.23,1.1c-1.39,1.35-1.34,4.79.1,6.67a1,1,0,0,1,.1,1.05A1,1,0,0,1,29.45,20Zm-18-8a3,3,0,0,0,0,6h16.3a8.3,8.3,0,0,1-.11-6Z"/><path class="cls-1" d="M25.45,12h-18a5,5,0,0,1,0-10h18a1,1,0,0,1,.93.62,1,1,0,0,1-.23,1.1c-1.39,1.35-1.34,4.79.1,6.67a1,1,0,0,1,.1,1A1,1,0,0,1,25.45,12Zm-18-8a3,3,0,0,0,0,6h16.3a8.3,8.3,0,0,1-.11-6Z"/><path class="cls-2" d="M23.5,8H8.5a.5.5,0,0,1,0-1h15a.5.5,0,0,1,0,1Z"/><path class="cls-2" d="M27.5,15h-15a.5.5,0,0,1,0-1h15a.5.5,0,0,1,0,1Z"/><path class="cls-2" d="M25.5,24h-15a.5.5,0,0,1,0-1h15a.5.5,0,0,1,0,1Z"/><rect class="cls-3" x="2" y="28" width="28" height="2"/></g></svg>