<svg xmlns="http://www.w3.org/2000/svg" viewBox="0 0 32 32"><defs><style>.cls-1{fill:#f15a29;}.cls-2{fill:#211c1b;}</style></defs><g id="icons_copy" data-name="icons copy"><rect class="cls-1" x="2" y="24" width="14" height="2"/><rect class="cls-1" x="2" y="19.94" width="9" height="2"/><rect class="cls-1" x="2" y="15.94" width="7" height="2"/><rect class="cls-1" x="2" y="12" width="8" height="2"/><path class="cls-2" d="M20.57,22.94c-6.43,0-9.35-5.78-9.47-6a1,1,0,0,1,0-.88c.12-.25,3-6,9.39-6H21c6.12.29,8.8,5.8,8.91,6a1,1,0,0,1,0,.87C29.78,17.15,26.89,22.89,20.57,22.94Zm-7.42-6.47c.74,1.22,3.12,4.47,7.34,4.47a8.92,8.92,0,0,0,7.37-4.48,8.83,8.83,0,0,0-7-4.45h-.39C16.29,12,13.89,15.27,13.15,16.47Z"/><path class="cls-2" d="M20.5,20a3.5,3.5,0,1,1,.36-7h0a3.5,3.5,0,0,1-.36,7Zm.06-5H20.5a1.5,1.5,0,1,0,1.5,1.5A1.51,1.51,0,0,0,20.66,15Z"/><rect class="cls-2" x="19" y="5" width="2" height="3"/><rect class="cls-2" x="13.5" y="5.92" width="2" height="3.16" transform="translate(-1.63 4.97) rotate(-18.43)"/><rect class="cls-2" x="23.92" y="6.5" width="3.16" height="2" transform="translate(10.31 29.32) rotate(-71.55)"/></g></svg>