<svg xmlns="http://www.w3.org/2000/svg" viewBox="0 0 32 32"><defs><style>.cls-1{fill:#f15a29;}.cls-2{fill:#211c1b;}</style></defs><g id="icons_copy" data-name="icons copy"><path class="cls-1" d="M23.42,4.59A2,2,0,0,0,22,4H4A2,2,0,0,0,2,6V22a2,2,0,0,0,.59,1.41A2,2,0,0,0,4,24h7V22H4V11H22v1.5h2V6A2,2,0,0,0,23.42,4.59ZM22,9H4V6H22Z"/><rect class="cls-2" x="7" y="2" width="2" height="5"/><rect class="cls-2" x="17" y="2" width="2" height="5"/><path class="cls-2" d="M27.77,21.62a6.37,6.37,0,1,1-2.41-5L23,19h6V13l-2.22,2.22a8.38,8.38,0,1,0,3,6.41Z"/><rect class="cls-2" x="6" y="13" width="7" height="2"/><rect class="cls-2" x="6" y="17" width="4.5" height="2"/></g></svg>