<svg xmlns="http://www.w3.org/2000/svg" viewBox="0 0 32 32"><defs><style>.cls-1{fill:#fff;}</style></defs><g id="icons_copy" data-name="icons copy"><path class="cls-1" d="M7,30h7V28H7V4H25V14h2V4a2,2,0,0,0-2-2H7A2,2,0,0,0,5,4V28A2,2,0,0,0,7,30Z"/><rect class="cls-1" x="10" y="8" width="12" height="2"/><rect class="cls-1" x="10" y="14" width="9" height="2"/><rect class="cls-1" x="10" y="20" width="5" height="2"/><path class="cls-1" d="M24.6,17.16,17.81,24a2.19,2.19,0,0,0-.6,1.08l-.72,3.3a1,1,0,0,0,1,1.21.82.82,0,0,0,.22,0L21,28.79h0a2.27,2.27,0,0,0,1.07-.59l6.79-6.8A2.17,2.17,0,0,0,29.48,20a2,2,0,0,0-.57-1.49L27.5,17.09A1.94,1.94,0,0,0,26,16.52,2.17,2.17,0,0,0,24.6,17.16Zm1.49,1.34,1.39,1.38a.14.14,0,0,1-.06.11l-6.79,6.79a.12.12,0,0,1-.09,0l-1.76.4.39-1.77a.12.12,0,0,1,0-.09L26,18.57S26.1,18.52,26.09,18.5Z"/></g></svg>