<svg xmlns="http://www.w3.org/2000/svg" viewBox="0 0 32 32"><defs><style>.cls-1{fill:#fff;}</style></defs><g id="icons_copy" data-name="icons copy"><path class="cls-1" d="M4,28H8V26H4V11H9a2,2,0,0,0,2-2V4h9V7.5l-5.33,5.32a1.06,1.06,0,0,0-.24.39L13,17.46a1,1,0,0,0,.24,1,1,1,0,0,0,.71.29.84.84,0,0,0,.31-.05l4.25-1.41a1.06,1.06,0,0,0,.39-.24L20,16v3h2V14l6.11-6.11a1.9,1.9,0,0,0,.14-2.68l-1.7-1.7A1.73,1.73,0,0,0,25.13,3a2.07,2.07,0,0,0-1.26.62L22,5.5V4a2,2,0,0,0-2-2H10.56a1.93,1.93,0,0,0-1.12.35l-.29.23L2.58,9.15a1.9,1.9,0,0,0-.2.25A1.92,1.92,0,0,0,2,10.56V26A2,2,0,0,0,4,28ZM17.67,15.49l-2.12.7.7-2.12,5.5-5.48L23.16,10ZM25.29,5.06l1.4,1.4L24.57,8.58l-1.4-1.4ZM5.56,9,9,5.56V9Z"/><rect class="cls-1" x="6" y="14" width="5" height="2"/><rect class="cls-1" x="6" y="19" width="3" height="2"/><rect class="cls-1" x="13" y="7" width="4" height="2"/><path class="cls-1" d="M12,30a1,1,0,0,0,1-1V21.22a1,1,0,0,0-1.05-1,1,1,0,0,0-.65.25l-2.25,2a1,1,0,0,0,1.32,1.51l.63-.55V29A1,1,0,0,0,12,30Z"/><path class="cls-1" d="M15.28,28.25A1.14,1.14,0,0,0,15,29a1,1,0,0,0,1,1h5a1,1,0,0,0,0-2H18.29l.11-.12c1.08-1.11,2.7-2.79,2.7-4.71a2.79,2.79,0,0,0-2.82-3,3.16,3.16,0,0,0-3.06,2.53,1,1,0,0,0,.7,1.22,1,1,0,0,0,1.23-.7,1.24,1.24,0,0,1,1.13-1.05.83.83,0,0,1,.82,1c0,1.11-1.34,2.5-2.14,3.32Z"/><path class="cls-1" d="M26.38,28a1,1,0,0,1-1-.62,1,1,0,0,0-1.95.46,3,3,0,0,0,3,2.16,3,3,0,0,0,3.12-3.06,3,3,0,0,0-.75-2.05,2.85,2.85,0,0,0-2.26-4.65,3.11,3.11,0,0,0-2.84,1.67,1,1,0,0,0,1.76.94,1.13,1.13,0,0,1,1.08-.61.77.77,0,0,1,.9.83c0,.54-.38.81-1.13.81H26a1,1,0,0,0,0,2h.26c.79,0,1.24.39,1.24,1.06A1,1,0,0,1,26.38,28Z"/></g></svg>