<svg xmlns="http://www.w3.org/2000/svg" viewBox="0 0 32 32"><defs><style>.cls-1{fill:#f15a29;}.cls-2{fill:#211c1b;}</style></defs><g id="icons_copy" data-name="icons copy"><path class="cls-1" d="M26.42,8.75,21.05,3.54A1.92,1.92,0,0,0,19.7,3H12.93A1.93,1.93,0,0,0,11,4.93V16h2V5l5,0V9.07A1.93,1.93,0,0,0,19.93,11H25V21H18v2h7.07A1.93,1.93,0,0,0,27,21.07V10.14A2,2,0,0,0,26.42,8.75ZM20,5.31,23.82,9H20Z"/><rect class="cls-2" x="2.58" y="20.7" width="19.09" height="2" transform="translate(-11.79 14.93) rotate(-45)"/><rect class="cls-2" x="11.12" y="12.15" width="2" height="19.09" transform="translate(-11.79 14.93) rotate(-45)"/></g></svg>