<svg xmlns="http://www.w3.org/2000/svg" viewBox="0 0 32 32"><defs><style>.cls-1{fill:#f15a29;}.cls-2{fill:#211c1b;}</style></defs><g id="icons_copy" data-name="icons copy"><path class="cls-1" d="M21,9v1.08a6.69,6.69,0,0,0-2.6.92H12V9Z"/><path class="cls-1" d="M15.68,14a6.44,6.44,0,0,0-.6,2H11V14Z"/><path class="cls-1" d="M15.68,20H11V18h4.08A6.44,6.44,0,0,0,15.68,20Z"/><path class="cls-1" d="M21,23.92V24H11V22h6.11A6.92,6.92,0,0,0,21,23.92Z"/><path class="cls-1" d="M26,11.26V5a1,1,0,0,0-1-1H8A1,1,0,0,0,7,5V16H3a1,1,0,0,0-1,1v7.5A3.5,3.5,0,0,0,5,28a2.74,2.74,0,0,0,.5,0H22a4,4,0,0,0,3.85-2.91l-1.5-1.5L24,23.7V24a2,2,0,0,1-2,2H8.65A3.28,3.28,0,0,0,9,24.5V6H24v4.29A6.87,6.87,0,0,1,26,11.26ZM4,24.5V18H7v6.5a1.5,1.5,0,0,1-3,0Z"/><path class="cls-2" d="M29.78,23.36l-3.61-3.61a5,5,0,1,0-1.42,1.42l3.61,3.61ZM22,20a3,3,0,1,1,3-3A3,3,0,0,1,22,20Z"/></g></svg>