<svg xmlns="http://www.w3.org/2000/svg" viewBox="0 0 32 32"><defs><style>.cls-1{fill:#f15a29;}.cls-2{fill:#211c1b;}</style></defs><g id="icons_copy" data-name="icons copy"><rect class="cls-1" x="20" y="13.57" width="2" height="5.43"/><path class="cls-1" d="M20,2H10.56a1.8,1.8,0,0,0-1.08.33,2,2,0,0,0-.33.25L2.58,9.15a3.25,3.25,0,0,0-.23.29A1.93,1.93,0,0,0,2,10.56V26a2,2,0,0,0,2,2H8V26H4V11H9a2,2,0,0,0,2-2V4h9V7.91h2V4A2,2,0,0,0,20,2ZM5.56,9,9,5.56V9Z"/><path class="cls-2" d="M28.25,5.19l-1.7-1.7a1.9,1.9,0,0,0-2.68.14l-9.2,9.19a1.06,1.06,0,0,0-.24.39L13,17.46a1,1,0,0,0,.24,1,1,1,0,0,0,.71.29.84.84,0,0,0,.31-.05l4.25-1.41a1.06,1.06,0,0,0,.39-.24l9.19-9.19a2.13,2.13,0,0,0,.62-1.27A1.73,1.73,0,0,0,28.25,5.19ZM17.67,15.49l-2.12.7.7-2.12,5.5-5.48L23.16,10Zm6.9-6.91-1.4-1.4,2.12-2.12,1.4,1.4Z"/><rect class="cls-1" x="6" y="14" width="5" height="2"/><rect class="cls-1" x="6" y="18" width="3" height="2"/><rect class="cls-1" x="13" y="7" width="4" height="2"/><path class="cls-2" d="M12,30a1,1,0,0,1-1-1V23.38l-.63.55a1,1,0,0,1-1.32-1.51l2.25-2a1,1,0,0,1,.65-.25,1,1,0,0,1,1.05,1V29A1,1,0,0,1,12,30Z"/><path class="cls-2" d="M21,30H16a1,1,0,0,1-1-1,1.14,1.14,0,0,1,.28-.75L17,26.49c.8-.83,2.13-2.21,2.13-3.32a.83.83,0,0,0-.82-1,1.24,1.24,0,0,0-1.13,1.05,1,1,0,0,1-1.93-.52,3.16,3.16,0,0,1,3.06-2.53,2.79,2.79,0,0,1,2.82,3c0,1.92-1.62,3.6-2.7,4.71l-.11.12H21a1,1,0,0,1,0,2ZM16,29h0Z"/><path class="cls-2" d="M26.38,30a3,3,0,0,1-3-2.16,1,1,0,0,1,.75-1.2,1,1,0,0,1,1.2.74,1,1,0,0,0,1,.62,1,1,0,0,0,1.12-1.06c0-.67-.45-1.06-1.24-1.06H26a1,1,0,0,1,0-2h.26c.75,0,1.13-.27,1.13-.81a.77.77,0,0,0-.9-.83,1.1,1.1,0,0,0-1.07.61,1,1,0,1,1-1.77-.94,3.11,3.11,0,0,1,2.84-1.67,2.74,2.74,0,0,1,2.9,2.83,2.7,2.7,0,0,1-.65,1.82,2.93,2.93,0,0,1,.76,2.05A3,3,0,0,1,26.38,30Z"/></g></svg>