<svg xmlns="http://www.w3.org/2000/svg" viewBox="0 0 32 32"><defs><style>.cls-1{fill:#f15a29;}.cls-2{fill:#211c1b;}</style></defs><g id="icons_copy" data-name="icons copy"><path class="cls-1" d="M7.22,20A3.69,3.69,0,0,1,7.78,18H4V6H21v8.08l2-2V6a2,2,0,0,0-2-2H4A2,2,0,0,0,2,6V18a2,2,0,0,0,2,2H7.22Z"/><rect class="cls-2" x="6" y="8" width="12" height="2"/><rect class="cls-2" x="6" y="12" width="12" height="2"/><path class="cls-2" d="M17.43,28.32a1.67,1.67,0,0,1-1.19-.5L9.46,21A1.66,1.66,0,0,1,9,19.85a1.69,1.69,0,0,1,.49-1.2l1.85-1.85a1.69,1.69,0,0,1,2.39,0l3.73,3.73,7.67-7.66a1.69,1.69,0,0,1,2.39,0l1.85,1.85a1.69,1.69,0,0,1,0,2.39L18.63,27.82A1.7,1.7,0,0,1,17.43,28.32ZM11.1,19.85l6.33,6.34L27.71,15.91,26.29,14.5l-8.86,8.86-4.92-4.93Z"/></g></svg>