<svg xmlns="http://www.w3.org/2000/svg" viewBox="0 0 32 32"><defs><style>.cls-1{fill:#fff;}</style></defs><g id="icons_copy" data-name="icons copy"><path class="cls-1" d="M29.56,14.63,27.72,15.7A4.92,4.92,0,0,0,25,14.1V12H23v2.1a4.92,4.92,0,0,0-2.72,1.6l-1.84-1.07-1,1.74,1.84,1.06a4.54,4.54,0,0,0,0,3.14l-1.84,1.06,1,1.74,1.84-1.07A4.92,4.92,0,0,0,23,23.9V26h2V23.9a4.92,4.92,0,0,0,2.72-1.6l1.84,1.07,1-1.74-1.84-1.06a4.54,4.54,0,0,0,0-3.14l1.84-1.06ZM24,21.5A2.5,2.5,0,1,1,26.5,19,2.5,2.5,0,0,1,24,21.5Z"/><path class="cls-1" d="M4.2,25.83l12.61,0v-2l-12.61,0a.21.21,0,0,1-.2-.22V22.35c0-2.47,4.62-3.81,7-3.81a11.31,11.31,0,0,1,5.42,1.52l1.08-1.68A13.32,13.32,0,0,0,11,16.54c-3.14,0-9,1.7-9,5.81v1.26A2.22,2.22,0,0,0,4.2,25.83Z"/><path class="cls-1" d="M11,6.2a5,5,0,1,0,5,5A5,5,0,0,0,11,6.2Zm0,8a3,3,0,1,1,3-3A3,3,0,0,1,11,14.2Z"/></g></svg>