<svg xmlns="http://www.w3.org/2000/svg" viewBox="0 0 32 32"><defs><style>.cls-1{fill:#f15a29;}.cls-2{fill:#211c1b;}</style></defs><g id="icons_copy" data-name="icons copy"><path class="cls-1" d="M24,2H8A3,3,0,0,0,5,5V27a3,3,0,0,0,3,3H24a3,3,0,0,0,3-3V5A3,3,0,0,0,24,2ZM13,4h6V5H13ZM25,27a1,1,0,0,1-1,1H8a1,1,0,0,1-1-1V5A1,1,0,0,1,8,4h3V6a1,1,0,0,0,1,1h8a1,1,0,0,0,1-1V4h3a1,1,0,0,1,1,1Z"/><rect class="cls-2" x="15" y="11" width="7" height="2"/><rect class="cls-2" x="10" y="10" width="3" height="3"/><rect class="cls-2" x="15" y="16" width="7" height="2"/><rect class="cls-2" x="10" y="15" width="3" height="3"/><rect class="cls-2" x="15" y="21" width="7" height="2"/><rect class="cls-2" x="10" y="20" width="3" height="3"/></g></svg>