<svg xmlns="http://www.w3.org/2000/svg" viewBox="0 0 32 32"><defs><style>.cls-1{fill:#fff;}</style></defs><g id="icons_copy" data-name="icons copy"><path class="cls-1" d="M22,14.39h0a3.94,3.94,0,1,0,2.8,1.16A3.95,3.95,0,0,0,22,14.39Zm0,5.9A2,2,0,1,1,24,18.34,1.94,1.94,0,0,1,22,20.29Z"/><path class="cls-1" d="M15,28.08V29a1,1,0,0,0,.29.71A1,1,0,0,0,16,30h0l12,0a1,1,0,0,0,1-1v-.91c0-3.2-4.56-4.52-7-4.52S15,24.88,15,28.08ZM27,28,17,28c.11-1.5,3.31-2.45,5-2.45S26.87,26.49,27,28Z"/><rect class="cls-1" x="13" y="8" width="7" height="2"/><rect class="cls-1" x="13" y="13" width="4" height="2"/><rect class="cls-1" x="13" y="18" width="3" height="2"/><rect class="cls-1" x="9" y="8" width="2" height="2"/><rect class="cls-1" x="9" y="13" width="2" height="2"/><rect class="cls-1" x="9" y="18" width="2" height="2"/><path class="cls-1" d="M7,26h6V24H7V4H23v8h2V4a2,2,0,0,0-2-2H7A2,2,0,0,0,5,4V24A2,2,0,0,0,7,26Z"/></g></svg>