<svg xmlns="http://www.w3.org/2000/svg" viewBox="0 0 32 32"><defs><style>.cls-1{fill:#f15a29;}.cls-2{fill:#211c1b;}</style></defs><g id="icons_copy" data-name="icons copy"><path class="cls-1" d="M5,19.35v1.26a.21.21,0,0,0,.2.22l8.17,0a7.13,7.13,0,0,0,.54,2l-8.71,0A2.22,2.22,0,0,1,3,20.61V19.35c0-4.11,5.86-5.81,9-5.81a13.58,13.58,0,0,1,3.86.65,6.93,6.93,0,0,0-1.42,1.68A10.55,10.55,0,0,0,12,15.54C9.62,15.54,5,16.88,5,19.35Z"/><path class="cls-1" d="M12,13.2a5,5,0,1,1,5-5A5,5,0,0,1,12,13.2Zm0-8a3,3,0,1,0,3,3A3,3,0,0,0,12,5.2Z"/><path class="cls-2" d="M28.71,26.29,25.6,23.18a5.79,5.79,0,0,0,1.07-3.35,5.84,5.84,0,1,0-5.84,5.84,5.79,5.79,0,0,0,3.35-1.07l3.11,3.11Zm-7.88-2.62a3.84,3.84,0,1,1,3.84-3.84A3.84,3.84,0,0,1,20.83,23.67Z"/></g></svg>