<svg xmlns="http://www.w3.org/2000/svg" viewBox="0 0 32 32"><defs><style>.cls-1{fill:#fff;}</style></defs><g id="icons_copy" data-name="icons copy"><path class="cls-1" d="M27.39,18.61A5.5,5.5,0,1,0,23.5,28a5.43,5.43,0,0,0,3.11-1l2.68,2.69,1.42-1.42L28,25.61A5.5,5.5,0,0,0,27.39,18.61ZM21,25a3.51,3.51,0,1,1,5,0A3.52,3.52,0,0,1,21,25Z"/><path class="cls-1" d="M12.43,24.06a3.65,3.65,0,1,0-3.64-3.64A3.65,3.65,0,0,0,12.43,24.06Zm0-5.29a1.65,1.65,0,1,1-1.64,1.65A1.65,1.65,0,0,1,12.43,18.77Z"/><path class="cls-1" d="M14,25H11a3,3,0,0,0-3,3v2h2V28a1,1,0,0,1,1-1h3a1,1,0,0,1,1,1v2h2V28A3,3,0,0,0,14,25Z"/><path class="cls-1" d="M19.5,9.85A4.5,4.5,0,1,0,15,5.35,4.51,4.51,0,0,0,19.5,9.85Zm0-7A2.5,2.5,0,1,1,17,5.35,2.5,2.5,0,0,1,19.5,2.85Z"/><path class="cls-1" d="M8.28,11.85A4.28,4.28,0,1,0,4,7.57,4.28,4.28,0,0,0,8.28,11.85Zm0-6.56A2.28,2.28,0,1,1,6,7.57,2.28,2.28,0,0,1,8.28,5.29Z"/><path class="cls-1" d="M3,23H4v7H6V23H7V21H4V15a1,1,0,0,1,1-1h7a1,1,0,0,1,1,1v1h2V13a1,1,0,0,1,1-1h7a1,1,0,0,1,1,1v2h2V13a3,3,0,0,0-3-3H16a3,3,0,0,0-2.88,2.22A3,3,0,0,0,12,12H5a3,3,0,0,0-3,3v7A1,1,0,0,0,3,23Z"/></g></svg>