<svg xmlns="http://www.w3.org/2000/svg" viewBox="0 0 32 32"><defs><style>.cls-1{fill:#211c1b;}.cls-2{fill:#f15a29;}</style></defs><g id="icons_copy" data-name="icons copy"><path class="cls-1" d="M30.12,21.94a2.43,2.43,0,0,0-2.85-1.76H27l-.12.12c-.77.27-2.35,1-3.71,1.56A3.07,3.07,0,0,0,20,19a20.68,20.68,0,0,0-2.31.06,9.87,9.87,0,0,1-2.43,0,5.71,5.71,0,0,0-4.07-.51A27.76,27.76,0,0,1,7,18.9v-.19A1.72,1.72,0,0,0,5.29,17H2v2H5v7H2v2H5.29A1.72,1.72,0,0,0,7,26.29V26H8.27l1,.7c1.56,1.18,3.92,3,5.74,3.5a7.25,7.25,0,0,0,1.78.23A7,7,0,0,0,19.26,30c3.11-1,8.91-4.64,9.34-5S30.51,23.55,30.12,21.94Zm-2.71,1.44a57,57,0,0,1-8.84,4.69,5,5,0,0,1-3.07.2c-1.44-.43-3.72-2.14-5.08-3.16C9.21,24.19,9,24,8.51,24H7V20.9a28.42,28.42,0,0,0,4.54-.4,3.91,3.91,0,0,1,3,.41l.24.07a11.27,11.27,0,0,0,3.05.08A17.46,17.46,0,0,1,20,21a1.1,1.1,0,0,1,1.18,1.05.94.94,0,0,1-.76,1,23.14,23.14,0,0,1-3.61.09l-1.6,0v2l1.56,0c.52,0,1.05,0,1.58,0a16.19,16.19,0,0,0,2.36-.14,2.79,2.79,0,0,0,1-.32v0c2-.93,5.19-2.35,5.9-2.57l.16,0a.36.36,0,0,1,.29.05.42.42,0,0,1,.2.23C28.21,22.54,28.14,22.83,27.41,23.38Z"/><path class="cls-2" d="M20.46,17.49H17a1,1,0,0,1-1-1V15.39a6.46,6.46,0,0,1-.92-.53l-.92.53a1,1,0,0,1-1.4-.37l-1.91-3.31.08-.45a1,1,0,0,1,.48-.63l.92-.53c0-.18,0-.35,0-.53s0-.36,0-.54l-1.24-.71-.16-.44A1.06,1.06,0,0,1,11,7.1l1.72-3a1,1,0,0,1,1.41-.38l.92.54A6.46,6.46,0,0,1,16,3.75V2.68a1,1,0,0,1,1-1h3.44a1,1,0,0,1,1,1V3.75a6.46,6.46,0,0,1,.92.53l.92-.54a1,1,0,0,1,1.41.37l1.91,3.31-.09.46a1,1,0,0,1-.48.62L25.16,9a4.87,4.87,0,0,1,0,.54,4.7,4.7,0,0,1,0,.53l1.24.72.16.44a1,1,0,0,1-.1.78l-1.72,3a1,1,0,0,1-1.41.37l-.92-.53a6.46,6.46,0,0,1-.92.53v1.07A1,1,0,0,1,20.46,17.49Zm-2.67-1.8h1.9V14.15l.6-.21a4.55,4.55,0,0,0,1.46-.85l.49-.41,1.33.77.94-1.64L23.19,11l.11-.62a4.56,4.56,0,0,0,0-1.7l-.11-.62,1.32-.77-.94-1.64-1.33.77L21.75,6a4.52,4.52,0,0,0-1.46-.84L19.69,5V3.45h-1.9V5l-.6.22A4.52,4.52,0,0,0,15.73,6l-.49.42-1.32-.77L13,7.33l1.33.77-.12.62a5.18,5.18,0,0,0-.08.85,5.18,5.18,0,0,0,.08.85l.12.62L13,11.81l.95,1.64,1.33-.77.48.41a4.55,4.55,0,0,0,1.46.85l.6.21Zm-4.54-1.86Zm11,0h0Zm.95-1.64h0ZM12.3,6.94Zm.95-1.64Zm11,0h0Z"/><circle class="cls-2" cx="18.74" cy="9.57" r="2.26"/></g></svg>