<svg xmlns="http://www.w3.org/2000/svg" viewBox="0 0 32 32"><defs><style>.cls-1{fill:#fff;}</style></defs><g id="icons_copy" data-name="icons copy"><path class="cls-1" d="M22,18.09c0-2.43-4-3.52-6-3.52s-6,1.09-6,3.53V19H22Z"/><rect class="cls-1" x="9" y="22" width="14" height="2"/><path class="cls-1" d="M27,27V5a3,3,0,0,0-3-3H8A3,3,0,0,0,5,5V27a3,3,0,0,0,3,3H24A3,3,0,0,0,27,27ZM7,27V5A1,1,0,0,1,8,4H24a1,1,0,0,1,1,1V27a1,1,0,0,1-1,1H8A1,1,0,0,1,7,27Z"/><circle class="cls-1" cx="16" cy="10" r="3"/></g></svg>