<svg xmlns="http://www.w3.org/2000/svg" viewBox="0 0 32 32"><defs><style>.cls-1{fill:#fff;}</style></defs><g id="icons_copy" data-name="icons copy"><path class="cls-1" d="M4,27H6V25H4V8.25L8.25,4H20V15h2V4a2,2,0,0,0-2-2H7.43L2,7.43V25A2,2,0,0,0,4,27Z"/><rect class="cls-1" x="9" y="7" width="8" height="2"/><rect class="cls-1" x="7" y="11" width="10" height="2"/><rect class="cls-1" x="7" y="15" width="4" height="2"/><path class="cls-1" d="M7.24,22.34a1,1,0,0,0,0,1.3c.2.24,5.06,5.82,11.25,5.82H19c6-.29,10.57-5.58,10.77-5.81a1,1,0,0,0,0-1.3c-.2-.24-5-5.77-11.27-5.82S7.44,22.1,7.24,22.34ZM27.62,23c-1.36,1.34-4.78,4.28-8.74,4.46h-.39c-4.1,0-7.7-3.09-9.11-4.47,1.41-1.38,5-4.47,9.17-4.47S26.22,21.62,27.62,23Z"/><path class="cls-1" d="M18.5,26.49h.36a3.58,3.58,0,1,0-.36,0Zm0-5A1.5,1.5,0,0,1,20,23a1.51,1.51,0,0,1-1.34,1.5h-.1A1.54,1.54,0,0,1,17,23,1.5,1.5,0,0,1,18.5,21.49Z"/></g></svg>