<svg xmlns="http://www.w3.org/2000/svg" viewBox="0 0 32 32"><defs><style>.cls-1{fill:#f15a29;}.cls-2{fill:#281b19;}.cls-3{fill:#211c1b;}</style></defs><g id="icons_copy" data-name="icons copy"><path class="cls-1" d="M12.63,22l.64,2H4a2,2,0,0,1-2-2V12a2,2,0,0,1,2-2H6v2H4V22Z"/><path class="cls-1" d="M30,12V22a2,2,0,0,1-2,2H24.81A1.79,1.79,0,0,0,24,22.31L23.47,22H28V12H26V10h2A2,2,0,0,1,30,12Z"/><path class="cls-1" d="M6,16h6.36a1.75,1.75,0,0,0-.67.57A1.78,1.78,0,0,0,11.37,18H6Z"/><polygon class="cls-1" points="26 16 26 18 17.16 18 14.16 16.1 13.99 16 26 16"/><path class="cls-2" d="M8.55,12.62a.9.9,0,0,1-.9-.9V5.88l-.8.69A.9.9,0,1,1,5.67,5.21L7.91,3.26A.9.9,0,0,1,8.5,3a.94.94,0,0,1,.95.9v7.78A.91.91,0,0,1,8.55,12.62Z"/><path class="cls-2" d="M16.71,12.62h-5a.9.9,0,0,1-.9-.9,1.06,1.06,0,0,1,.25-.68l1.68-1.76c.81-.84,2.17-2.24,2.17-3.39a.92.92,0,0,0-.93-1A1.34,1.34,0,0,0,12.76,6,.9.9,0,0,1,11,5.49,3.06,3.06,0,0,1,14,3a2.7,2.7,0,0,1,2.73,2.85c0,1.88-1.61,3.54-2.68,4.64l-.27.29h3a.9.9,0,1,1,0,1.8Zm-5-1h0Z"/><path class="cls-2" d="M21.58,12.62a2.86,2.86,0,0,1-2.88-2.09.89.89,0,0,1,.67-1.08.9.9,0,0,1,1.08.67,1.09,1.09,0,0,0,1.13.7,1.12,1.12,0,0,0,1.23-1.17c0-.72-.51-1.15-1.35-1.15h-.25a.9.9,0,1,1,0-1.8h.25c.57,0,1.24-.16,1.24-.92s-.34-.92-1-.92a1.21,1.21,0,0,0-1.17.66.89.89,0,0,1-1.21.37.9.9,0,0,1-.38-1.21A3,3,0,0,1,21.7,3.05a2.65,2.65,0,0,1,2.8,2.73,2.61,2.61,0,0,1-.69,1.83,2.83,2.83,0,0,1,.8,2A2.91,2.91,0,0,1,21.58,12.62Z"/><path class="cls-3" d="M23,29.06c-.54-.65-3.51-4.31-3.51-4.31L23,24a.13.13,0,0,0,0-.24l-9.81-6.22a.14.14,0,0,0-.2.16l3.54,11.08a.13.13,0,0,0,.25,0l1.62-3.18s3.44,4.49,3.46,4.5.82-.63,1.1-.87A.12.12,0,0,0,23,29.06Z"/></g></svg>