<svg xmlns="http://www.w3.org/2000/svg" viewBox="0 0 32 32"><defs><style>.cls-1{fill:#f15a29;}.cls-2{fill:#211c1b;}</style></defs><g id="icons_copy" data-name="icons copy"><path class="cls-1" d="M20,2H11.56a2,2,0,0,0-1.41.59L3.59,9.15A2,2,0,0,0,3,10.56V24a2,2,0,0,0,2,2H17V24H5V11h5a2,2,0,0,0,2-2V4h8v8h2V4A2,2,0,0,0,20,2ZM6.56,9,10,5.56V9Z"/><rect class="cls-2" x="8" y="14" width="6" height="2"/><rect class="cls-2" x="8" y="18" width="7" height="2"/><path class="cls-2" d="M29.31,27.83l-4.6-5.65,4.58-1a.18.18,0,0,0,.06-.32L16.48,12.72a.17.17,0,0,0-.26.2l4.64,14.53a.17.17,0,0,0,.32,0l2.13-4.18,4.53,5.91s1.07-.83,1.45-1.14A.16.16,0,0,0,29.31,27.83Z"/></g></svg>