<svg xmlns="http://www.w3.org/2000/svg" viewBox="0 0 32 32"><defs><style>.cls-1{fill:#f15a29;}.cls-2{fill:#231f20;}</style></defs><g id="exp"><path class="cls-1" d="M24,19.21V28H8V23.27L7.43,23,6,22.43V28a2,2,0,0,0,2,2H24a2,2,0,0,0,2-2V20l-.57-.23ZM24,2H14.56a2,2,0,0,0-1.41.59L6.59,9.15A2,2,0,0,0,6,10.56V17l.28.14a2.77,2.77,0,0,0,.27.12l.09,0c.38.18.84.39,1.36.61V11h5a2,2,0,0,0,2-2V4h9v9.73l.28.14a2.77,2.77,0,0,0,.27.12l.09,0c.38.18.84.38,1.36.6V4A2,2,0,0,0,24,2ZM13,9H9.56L13,5.56Z"/><path class="cls-2" d="M27.25,16.75c-.33-.17-.76-.36-1.25-.58s-1.29-.56-2-.85c-1.34-.54-3.23-1.09-4.19-1.47l.61-3.77-5.2,3.76L19,19l.51-3.17h0c1.12.45,3.16,1.06,4.51,1.62.77.32,1.48.63,2,.87l.33.17c1.92,1,2.05,1.8,2,2.39A2,2,0,0,1,26,22.58v2h.32a4,4,0,0,0,3.94-3.37C30.55,19.44,29.54,17.93,27.25,16.75Z"/><path class="cls-2" d="M12.72,21.33c-1.1-.45-3.36-1.28-4.72-1.85-.77-.32-1.47-.62-2-.87l-.36-.16c-2.14-1-2-2-1.92-2.37A2,2,0,0,1,6,14.42v-2a4,4,0,0,0-4.26,3.35c-.21,1.3.15,3.13,3.05,4.5L6,20.81l2,.84c1.35.56,3.46,1.32,4.39,1.7h0l-.6,3.76L17,23.35l-3.76-5.19Z"/></g></svg>