<svg xmlns="http://www.w3.org/2000/svg" viewBox="0 0 32 32"><defs><style>.cls-1{fill:#211c1b;}.cls-2{fill:#f15a29;}</style></defs><g id="icons_copy" data-name="icons copy"><path class="cls-1" d="M15.23,9.5A6.36,6.36,0,1,0,6,15.17v11a1,1,0,0,0,.29.7l1.6,1.6a1,1,0,0,0,.71.29,1,1,0,0,0,.7-.29l2-2.05a1,1,0,0,0,.2-1.13L11,24.21l.85-1.52a1,1,0,0,0,0-1L11,20.21l.85-1.52A1,1,0,0,0,12,18.2V15A6.35,6.35,0,0,0,15.23,9.5ZM10,18,9,19.73a1,1,0,0,0,0,1l.83,1.5L9,23.68a1,1,0,0,0,0,.92l.45,1-.84.84L8,25.8v-10a8.48,8.48,0,0,0,.87.06,7,7,0,0,0,1.13-.1ZM8.87,13.86A4.36,4.36,0,1,1,13.23,9.5,4.36,4.36,0,0,1,8.87,13.86Z"/><path class="cls-1" d="M8.87,10.19h0A1.76,1.76,0,0,1,7.11,8.43h0A1.76,1.76,0,0,1,8.87,6.67h0a1.76,1.76,0,0,1,1.76,1.76h0A1.76,1.76,0,0,1,8.87,10.19Z"/><rect class="cls-2" x="19" y="17" width="11" height="2"/><rect class="cls-1" x="15" y="17" width="2" height="2"/><rect class="cls-1" x="15" y="21" width="2" height="2"/><rect class="cls-1" x="15" y="25" width="2" height="2"/><rect class="cls-2" x="19" y="21" width="11" height="2"/><rect class="cls-2" x="19" y="25" width="11" height="2"/></g></svg>