<svg xmlns="http://www.w3.org/2000/svg" viewBox="0 0 32 32"><defs><style>.cls-1{fill:#fff;}</style></defs><g id="icons_copy" data-name="icons copy"><path class="cls-1" d="M4,13H25v3h2V8a2,2,0,0,0-2-2H22V4H20V6H9V4H7V6H4A2,2,0,0,0,2,8V24a2,2,0,0,0,2,2H7V24H4ZM7,8V9H9V8H20V9h2V8h3v3H4V8Z"/><path class="cls-1" d="M19.64,17C14,17,9.54,22.62,9.35,22.86a1,1,0,0,0,0,1.22c.19.24,4.61,5.86,10.29,5.86h.46c5.45-.29,9.65-5.62,9.83-5.85a1,1,0,0,0,0-1.22C29.75,22.62,25.35,17.05,19.64,17ZM20,27.93h-.34c-3.69,0-6.94-3.12-8.18-4.47C12.7,22.12,15.94,19,19.69,19s6.9,3.12,8.13,4.47C26.62,24.78,23.54,27.75,20,27.93Z"/><path class="cls-1" d="M19.64,20a3.5,3.5,0,0,0,0,7A2.3,2.3,0,0,0,20,27a3.5,3.5,0,0,0-.37-7Zm.15,5H19.7a1.55,1.55,0,0,1-1.56-1.5A1.5,1.5,0,1,1,19.79,25Z"/></g></svg>